solid OpenSCAD_Model
  facet normal 0.26618 0 0.963923
    outer loop
      vertex 10.5 0 0.75
      vertex 8.11351 6 1.40901
      vertex 8.11351 0 1.40901
    endloop
  endfacet
  facet normal 0 -1 0
    outer loop
      vertex 13.875 0 3
      vertex 87.25 0 4.5
      vertex 12.8865 0 4.59099
    endloop
  endfacet
  facet normal 0 -1 0
    outer loop
      vertex 13.875 0 3
      vertex 87.25 0 1.5
      vertex 87.25 0 4.5
    endloop
  endfacet
  facet normal 0 -1 0
    outer loop
      vertex 10.5 0 0.75
      vertex 87.25 0 1.5
      vertex 12.8865 0 1.40901
    endloop
  endfacet
  facet normal 0 -1 0
    outer loop
      vertex 12.8865 0 1.40901
      vertex 87.25 0 1.5
      vertex 13.875 0 3
    endloop
  endfacet
  facet normal 0 -1 0
    outer loop
      vertex 87.25 0 4.5
      vertex 0 0 8
      vertex 10.5 0 5.25
    endloop
  endfacet
  facet normal 0 -1 0
    outer loop
      vertex 0 0 8
      vertex 8.11351 0 4.59099
      vertex 10.5 0 5.25
    endloop
  endfacet
  facet normal 0 -1 0
    outer loop
      vertex 0 0 8
      vertex 7.125 0 3
      vertex 8.11351 0 4.59099
    endloop
  endfacet
  facet normal 0 -1 0
    outer loop
      vertex 0 0 0
      vertex 7.125 0 3
      vertex 0 0 8
    endloop
  endfacet
  facet normal 0 -1 -0
    outer loop
      vertex 8.11351 0 1.40901
      vertex 0 0 0
      vertex 10.5 0 0.75
    endloop
  endfacet
  facet normal 0 -1 -0
    outer loop
      vertex 7.125 0 3
      vertex 0 0 0
      vertex 8.11351 0 1.40901
    endloop
  endfacet
  facet normal 0 -1 0
    outer loop
      vertex 87.25 0 4.5
      vertex 10.5 0 5.25
      vertex 12.8865 0 4.59099
    endloop
  endfacet
  facet normal 0 -1 0
    outer loop
      vertex 0 0 8
      vertex 87.25 0 4.5
      vertex 126 0 8
    endloop
  endfacet
  facet normal 0 -1 0
    outer loop
      vertex 103.75 0 4.5
      vertex 126 0 8
      vertex 87.25 0 4.5
    endloop
  endfacet
  facet normal 0 -1 0
    outer loop
      vertex 126 0 0
      vertex 103.75 0 4.5
      vertex 103.75 0 1.5
    endloop
  endfacet
  facet normal 0 -1 0
    outer loop
      vertex 0 0 0
      vertex 87.25 0 1.5
      vertex 10.5 0 0.75
    endloop
  endfacet
  facet normal 0 -1 0
    outer loop
      vertex 126 0 0
      vertex 87.25 0 1.5
      vertex 0 0 0
    endloop
  endfacet
  facet normal 0 -1 0
    outer loop
      vertex 103.75 0 4.5
      vertex 126 0 0
      vertex 126 0 8
    endloop
  endfacet
  facet normal 0 -1 0
    outer loop
      vertex 87.25 0 1.5
      vertex 126 0 0
      vertex 103.75 0 1.5
    endloop
  endfacet
  facet normal 0.8494 -1.35008e-07 0.527749
    outer loop
      vertex 7.125 3 3
      vertex 8.11351 6 1.40901
      vertex 7.125 6 3
    endloop
  endfacet
  facet normal 0.8494 -1.35009e-07 0.527749
    outer loop
      vertex 8.11351 6 1.40901
      vertex 7.125 3 3
      vertex 7.125 0 3
    endloop
  endfacet
  facet normal 0.26618 -1.53211e-07 0.963923
    outer loop
      vertex 10.5 0 0.75
      vertex 10.5 6 0.750001
      vertex 8.11351 6 1.40901
    endloop
  endfacet
  facet normal 0.26618 0 -0.963923
    outer loop
      vertex 8.11351 0 4.59099
      vertex 10.5 0.75 5.25
      vertex 10.5 0 5.25
    endloop
  endfacet
  facet normal 0.26618 0 -0.963923
    outer loop
      vertex 10.5 0.75 5.25
      vertex 8.11351 0 4.59099
      vertex 8.11351 1.40901 4.59099
    endloop
  endfacet
  facet normal 0.8494 -0 0.52775
    outer loop
      vertex 8.11351 0 1.40901
      vertex 8.11351 6 1.40901
      vertex 7.125 0 3
    endloop
  endfacet
  facet normal -4.82377e-07 -1 -2.99711e-07
    outer loop
      vertex 12.8865 6 1.40901
      vertex 13.875 6 3
      vertex 12.8865 6 3
    endloop
  endfacet
  facet normal -0.8494 0 -0.52775
    outer loop
      vertex 13.875 0 3
      vertex 12.8865 1.40901 4.59099
      vertex 13.875 3 3
    endloop
  endfacet
  facet normal -0.8494 -0 -0.52775
    outer loop
      vertex 12.8865 1.40901 4.59099
      vertex 13.875 0 3
      vertex 12.8865 0 4.59099
    endloop
  endfacet
  facet normal -0.26618 -0 -0.963923
    outer loop
      vertex 10.5 0.75 5.25
      vertex 12.8865 0 4.59099
      vertex 10.5 0 5.25
    endloop
  endfacet
  facet normal -0.26618 0 -0.963923
    outer loop
      vertex 12.8865 0 4.59099
      vertex 10.5 0.75 5.25
      vertex 12.8865 1.40901 4.59099
    endloop
  endfacet
  facet normal 0.8494 -1.35009e-07 -0.527749
    outer loop
      vertex 7.125 3 3
      vertex 7.51567 2.37123 3.62877
      vertex 7.125 0 3
    endloop
  endfacet
  facet normal 0 -1 0
    outer loop
      vertex 8.11351 6 1.40901
      vertex 10.5 6 3
      vertex 7.125 6 3
    endloop
  endfacet
  facet normal 0 -1 0
    outer loop
      vertex 10.5 6 0.750001
      vertex 10.5 6 3
      vertex 8.11351 6 1.40901
    endloop
  endfacet
  facet normal 0 -1 0
    outer loop
      vertex 10.5 6 3
      vertex 10.5 6 0.750001
      vertex 12.8865 6 1.40901
    endloop
  endfacet
  facet normal 0.8494 0 -0.52775
    outer loop
      vertex 7.125 0 3
      vertex 8.11351 1.40901 4.59099
      vertex 8.11351 0 4.59099
    endloop
  endfacet
  facet normal 0.8494 -6.7089e-08 -0.52775
    outer loop
      vertex 8.11351 1.40901 4.59099
      vertex 7.125 0 3
      vertex 7.51567 2.37123 3.62877
    endloop
  endfacet
  facet normal -0.26618 0 0.963923
    outer loop
      vertex 12.8865 0 1.40901
      vertex 12.8865 6 1.40901
      vertex 10.5 0 0.75
    endloop
  endfacet
  facet normal -0.26618 -1.53211e-07 0.963923
    outer loop
      vertex 12.8865 6 1.40901
      vertex 10.5 6 0.750001
      vertex 10.5 0 0.75
    endloop
  endfacet
  facet normal -1.99807e-07 -1 -2.99711e-07
    outer loop
      vertex 12.8865 6 1.40901
      vertex 12.8865 6 3
      vertex 10.5 6 3
    endloop
  endfacet
  facet normal -0.8494 0 0.52775
    outer loop
      vertex 12.8865 6 1.40901
      vertex 13.875 3 3
      vertex 13.875 6 3
    endloop
  endfacet
  facet normal -0.8494 0 0.52775
    outer loop
      vertex 12.8865 0 1.40901
      vertex 13.875 3 3
      vertex 12.8865 6 1.40901
    endloop
  endfacet
  facet normal -0.8494 0 0.52775
    outer loop
      vertex 13.875 3 3
      vertex 12.8865 0 1.40901
      vertex 13.875 0 3
    endloop
  endfacet
  facet normal -0 0 1
    outer loop
      vertex 3 88 3
      vertex 7.125 85 3
      vertex 7.125 88 3
    endloop
  endfacet
  facet normal 0 0 1
    outer loop
      vertex 7.125 85 3
      vertex 6 83.875 3
      vertex 6 80.5 3
    endloop
  endfacet
  facet normal 0 0 1
    outer loop
      vertex 7.125 85 3
      vertex 3 88 3
      vertex 6 83.875 3
    endloop
  endfacet
  facet normal 0 0 1
    outer loop
      vertex 6 83.875 3
      vertex 3 88 3
      vertex 3 83.875 3
    endloop
  endfacet
  facet normal 0 0 1
    outer loop
      vertex 13.875 85 3
      vertex 12.8865 6 3
      vertex 13.875 6 3
    endloop
  endfacet
  facet normal 0 0 1
    outer loop
      vertex 13.875 85 3
      vertex 10.5 6 3
      vertex 12.8865 6 3
    endloop
  endfacet
  facet normal -0 0 1
    outer loop
      vertex 7.125 85 3
      vertex 10.5 6 3
      vertex 13.875 85 3
    endloop
  endfacet
  facet normal 0 0 1
    outer loop
      vertex 10.5 6 3
      vertex 7.125 85 3
      vertex 7.125 6 3
    endloop
  endfacet
  facet normal 0 0 1
    outer loop
      vertex 7.125 3 3
      vertex 7.125 6 3
      vertex 7.125 85 3
    endloop
  endfacet
  facet normal 0 0 1
    outer loop
      vertex 7.125 85 3
      vertex 6 80.5 3
      vertex 6 78.1135 3
    endloop
  endfacet
  facet normal 0 0 1
    outer loop
      vertex 7.125 85 3
      vertex 6 78.1135 3
      vertex 6 77.125 3
    endloop
  endfacet
  facet normal 0 0 1
    outer loop
      vertex 7.125 85 3
      vertex 6 77.125 3
      vertex 7.125 3 3
    endloop
  endfacet
  facet normal 0 0 1
    outer loop
      vertex 3 3 3
      vertex 6 77.125 3
      vertex 3 77.125 3
    endloop
  endfacet
  facet normal 0 0 1
    outer loop
      vertex 6 77.125 3
      vertex 3 3 3
      vertex 7.125 3 3
    endloop
  endfacet
  facet normal 0 0 1
    outer loop
      vertex 62 88 3
      vertex 57.5 83.875 3
      vertex 62 83.875 3
    endloop
  endfacet
  facet normal 0 0 1
    outer loop
      vertex 13.875 85 3
      vertex 57.5 82.8865 3
      vertex 57.5 83.875 3
    endloop
  endfacet
  facet normal 0 0 1
    outer loop
      vertex 57.5 82.8865 3
      vertex 13.875 85 3
      vertex 57.5 80.5 3
    endloop
  endfacet
  facet normal 0 0 1
    outer loop
      vertex 57.5 80.5 3
      vertex 13.875 85 3
      vertex 57.5 77.125 3
    endloop
  endfacet
  facet normal 0 0 1
    outer loop
      vertex 57.5 77.125 3
      vertex 13.875 85 3
      vertex 57.5 13.875 3
    endloop
  endfacet
  facet normal 0 0 1
    outer loop
      vertex 13.875 6 3
      vertex 57.5 13.875 3
      vertex 13.875 85 3
    endloop
  endfacet
  facet normal 0 0 1
    outer loop
      vertex 57.5 13.875 3
      vertex 13.875 6 3
      vertex 57.5 12.8865 3
    endloop
  endfacet
  facet normal -0 0 1
    outer loop
      vertex 13.875 85 3
      vertex 57.5 83.875 3
      vertex 13.875 88 3
    endloop
  endfacet
  facet normal -0 0 1
    outer loop
      vertex 13.875 88 3
      vertex 57.5 83.875 3
      vertex 62 88 3
    endloop
  endfacet
  facet normal -0 0 1
    outer loop
      vertex 57.5 77.125 3
      vertex 62 13.875 3
      vertex 62 77.125 3
    endloop
  endfacet
  facet normal 0 0 1
    outer loop
      vertex 62 13.875 3
      vertex 57.5 77.125 3
      vertex 57.5 13.875 3
    endloop
  endfacet
  facet normal -0 0 1
    outer loop
      vertex 57.5 7.125 3
      vertex 62 3 3
      vertex 62 7.125 3
    endloop
  endfacet
  facet normal 0 0 1
    outer loop
      vertex 57.5 12.8865 3
      vertex 13.875 6 3
      vertex 57.5 10.5 3
    endloop
  endfacet
  facet normal 0 0 1
    outer loop
      vertex 57.5 10.5 3
      vertex 13.875 6 3
      vertex 57.5 7.125 3
    endloop
  endfacet
  facet normal 0 0 1
    outer loop
      vertex 13.875 3 3
      vertex 57.5 7.125 3
      vertex 13.875 6 3
    endloop
  endfacet
  facet normal 0 0 1
    outer loop
      vertex 57.5 7.125 3
      vertex 13.875 3 3
      vertex 62 3 3
    endloop
  endfacet
  facet normal -0.8494 0.527749 0
    outer loop
      vertex 12.8865 1.40901 4.59099
      vertex 13.875 3 8
      vertex 13.875 3 3
    endloop
  endfacet
  facet normal -0.8494 0.527749 0
    outer loop
      vertex 13.875 3 8
      vertex 12.8865 1.40901 4.59099
      vertex 12.8865 1.40901 8
    endloop
  endfacet
  facet normal 0.26618 0.963923 -0
    outer loop
      vertex 10.5 0.75 5.25
      vertex 8.11351 1.40901 8
      vertex 10.5 0.75 8
    endloop
  endfacet
  facet normal 0.26618 0.963923 0
    outer loop
      vertex 8.11351 1.40901 8
      vertex 10.5 0.75 5.25
      vertex 8.11351 1.40901 4.59099
    endloop
  endfacet
  facet normal 0.8494 0.52775 0
    outer loop
      vertex 7.51567 2.37123 3.62877
      vertex 7.125 3 3
      vertex 7.125 3 8
    endloop
  endfacet
  facet normal 0.8494 0.527749 -0
    outer loop
      vertex 8.11351 1.40901 4.59099
      vertex 7.125 3 8
      vertex 8.11351 1.40901 8
    endloop
  endfacet
  facet normal 0.8494 0.527749 2.28117e-08
    outer loop
      vertex 7.125 3 8
      vertex 8.11351 1.40901 4.59099
      vertex 7.51567 2.37123 3.62877
    endloop
  endfacet
  facet normal -0.26618 0.963923 0
    outer loop
      vertex 12.8865 1.40901 8
      vertex 10.5 0.75 5.25
      vertex 10.5 0.75 8
    endloop
  endfacet
  facet normal -0.26618 0.963923 0
    outer loop
      vertex 10.5 0.75 5.25
      vertex 12.8865 1.40901 8
      vertex 12.8865 1.40901 4.59099
    endloop
  endfacet
  facet normal 0.26618 0 0.963923
    outer loop
      vertex 10.5 85 0.75
      vertex 8.11351 91 1.40901
      vertex 8.11351 85 1.40901
    endloop
  endfacet
  facet normal 0.8494 -1.35009e-07 0.527749
    outer loop
      vertex 7.125 88 3
      vertex 8.11351 91 1.40901
      vertex 7.125 91 3
    endloop
  endfacet
  facet normal 0.8494 -1.35009e-07 0.527749
    outer loop
      vertex 8.11351 91 1.40901
      vertex 7.125 88 3
      vertex 7.125 85 3
    endloop
  endfacet
  facet normal 0.26618 -1.53211e-07 0.963923
    outer loop
      vertex 10.5 85 0.75
      vertex 10.5 91 0.750001
      vertex 8.11351 91 1.40901
    endloop
  endfacet
  facet normal 0.26618 0 -0.963923
    outer loop
      vertex 8.11351 91 4.59099
      vertex 10.5 90.25 5.25
      vertex 8.11351 89.591 4.59099
    endloop
  endfacet
  facet normal 0.26618 0 -0.963923
    outer loop
      vertex 10.5 90.25 5.25
      vertex 8.11351 91 4.59099
      vertex 10.5 91 5.25
    endloop
  endfacet
  facet normal 0.8494 -0 0.52775
    outer loop
      vertex 8.11351 85 1.40901
      vertex 8.11351 91 1.40901
      vertex 7.125 85 3
    endloop
  endfacet
  facet normal -0.8494 0 -0.52775
    outer loop
      vertex 13.875 91 3
      vertex 12.8865 89.591 4.59099
      vertex 12.8865 91 4.59099
    endloop
  endfacet
  facet normal -0.8494 0 -0.52775
    outer loop
      vertex 12.8865 89.591 4.59099
      vertex 13.875 91 3
      vertex 13.875 88 3
    endloop
  endfacet
  facet normal 0 -1 0
    outer loop
      vertex 12.8865 91 1.40901
      vertex 13.875 91 3
      vertex 12.8865 91 4.59099
    endloop
  endfacet
  facet normal -0.26618 0 -0.963923
    outer loop
      vertex 10.5 90.25 5.25
      vertex 12.8865 91 4.59099
      vertex 12.8865 89.591 4.59099
    endloop
  endfacet
  facet normal -0.26618 0 -0.963923
    outer loop
      vertex 12.8865 91 4.59099
      vertex 10.5 90.25 5.25
      vertex 10.5 91 5.25
    endloop
  endfacet
  facet normal 0.8494 -3.25537e-08 -0.527749
    outer loop
      vertex 7.79761 89.0826 4.08255
      vertex 7.125 91 3
      vertex 8.11351 91 4.59099
    endloop
  endfacet
  facet normal 0.8494 -1.35009e-07 -0.527749
    outer loop
      vertex 7.125 91 3
      vertex 7.79761 89.0826 4.08255
      vertex 7.125 88 3
    endloop
  endfacet
  facet normal 0 1 0
    outer loop
      vertex 126 91 8
      vertex 8.11351 91 4.59099
      vertex 0 91 8
    endloop
  endfacet
  facet normal 0 1 0
    outer loop
      vertex 126 91 8
      vertex 12.8865 91 1.40901
      vertex 8.11351 91 4.59099
    endloop
  endfacet
  facet normal 0 1 -0
    outer loop
      vertex 126 91 0
      vertex 12.8865 91 1.40901
      vertex 126 91 8
    endloop
  endfacet
  facet normal 0 1 0
    outer loop
      vertex 12.8865 91 1.40901
      vertex 126 91 0
      vertex 10.5 91 0.750001
    endloop
  endfacet
  facet normal 0 1 -0
    outer loop
      vertex 7.125 91 3
      vertex 0 91 8
      vertex 8.11351 91 4.59099
    endloop
  endfacet
  facet normal 0 1 0
    outer loop
      vertex 0 91 0
      vertex 7.125 91 3
      vertex 8.11351 91 1.40901
    endloop
  endfacet
  facet normal 0 1 0
    outer loop
      vertex 7.125 91 3
      vertex 0 91 0
      vertex 0 91 8
    endloop
  endfacet
  facet normal 0 1 0
    outer loop
      vertex 10.5 91 0.750001
      vertex 0 91 0
      vertex 8.11351 91 1.40901
    endloop
  endfacet
  facet normal 0 1 0
    outer loop
      vertex 0 91 0
      vertex 10.5 91 0.750001
      vertex 126 91 0
    endloop
  endfacet
  facet normal 0.8494 0 -0.527749
    outer loop
      vertex 8.11351 91 4.59099
      vertex 8.11351 89.591 4.59099
      vertex 7.79761 89.0826 4.08255
    endloop
  endfacet
  facet normal 0 1 0
    outer loop
      vertex 10.5 85 0.75
      vertex 13.875 85 3
      vertex 12.8865 85 1.40901
    endloop
  endfacet
  facet normal 0 1 0
    outer loop
      vertex 13.875 85 3
      vertex 10.5 85 0.75
      vertex 7.125 85 3
    endloop
  endfacet
  facet normal 0 1 0
    outer loop
      vertex 7.125 85 3
      vertex 10.5 85 0.75
      vertex 8.11351 85 1.40901
    endloop
  endfacet
  facet normal -0.26618 0 0.963923
    outer loop
      vertex 12.8865 85 1.40901
      vertex 12.8865 91 1.40901
      vertex 10.5 85 0.75
    endloop
  endfacet
  facet normal -0.26618 -1.53211e-07 0.963923
    outer loop
      vertex 12.8865 91 1.40901
      vertex 10.5 91 0.750001
      vertex 10.5 85 0.75
    endloop
  endfacet
  facet normal 0 -1 0
    outer loop
      vertex 12.8865 91 1.40901
      vertex 12.8865 91 4.59099
      vertex 8.11351 91 4.59099
    endloop
  endfacet
  facet normal 0 -1 0
    outer loop
      vertex 12.8865 91 4.59099
      vertex 10.5 91 5.25
      vertex 8.11351 91 4.59099
    endloop
  endfacet
  facet normal -0.8494 0 0.52775
    outer loop
      vertex 12.8865 91 1.40901
      vertex 13.875 88 3
      vertex 13.875 91 3
    endloop
  endfacet
  facet normal -0.8494 0 0.52775
    outer loop
      vertex 12.8865 85 1.40901
      vertex 13.875 88 3
      vertex 12.8865 91 1.40901
    endloop
  endfacet
  facet normal -0.8494 0 0.52775
    outer loop
      vertex 13.875 88 3
      vertex 12.8865 85 1.40901
      vertex 13.875 85 3
    endloop
  endfacet
  facet normal -0.8494 -0.52775 -0
    outer loop
      vertex 13.875 88 8
      vertex 12.8865 89.591 4.59099
      vertex 13.875 88 3
    endloop
  endfacet
  facet normal -0.8494 -0.52775 0
    outer loop
      vertex 12.8865 89.591 4.59099
      vertex 13.875 88 8
      vertex 12.8865 89.591 8
    endloop
  endfacet
  facet normal 0.266181 -0.963923 0
    outer loop
      vertex 8.11351 89.591 8
      vertex 10.5 90.25 5.25
      vertex 10.5 90.25 8
    endloop
  endfacet
  facet normal 0.266181 -0.963923 0
    outer loop
      vertex 10.5 90.25 5.25
      vertex 8.11351 89.591 8
      vertex 8.11351 89.591 4.59099
    endloop
  endfacet
  facet normal -0.266181 -0.963923 0
    outer loop
      vertex 10.5 90.25 5.25
      vertex 12.8865 89.591 8
      vertex 10.5 90.25 8
    endloop
  endfacet
  facet normal -0.266181 -0.963923 -0
    outer loop
      vertex 12.8865 89.591 8
      vertex 10.5 90.25 5.25
      vertex 12.8865 89.591 4.59099
    endloop
  endfacet
  facet normal 0.8494 -0.52775 0
    outer loop
      vertex 7.125 88 8
      vertex 8.11351 89.591 4.59099
      vertex 8.11351 89.591 8
    endloop
  endfacet
  facet normal 0.849399 -0.527751 -6.2068e-07
    outer loop
      vertex 8.11351 89.591 4.59099
      vertex 7.125 88 8
      vertex 7.79761 89.0826 4.08255
    endloop
  endfacet
  facet normal 0.8494 -0.527749 0
    outer loop
      vertex 7.79761 89.0826 4.08255
      vertex 7.125 88 8
      vertex 7.125 88 3
    endloop
  endfacet
  facet normal 0 -0.849399 -0.527751
    outer loop
      vertex 0 83.875 3
      vertex 1.40901 82.8865 4.59099
      vertex 0 82.8865 4.59099
    endloop
  endfacet
  facet normal 2.02485e-06 -0.849398 -0.527752
    outer loop
      vertex 1.40901 82.8865 4.59099
      vertex 0 83.875 3
      vertex 2.37123 83.4843 3.62877
    endloop
  endfacet
  facet normal 0 0.849399 -0.527751
    outer loop
      vertex 0 77.125 3
      vertex 1.40901 78.1135 4.59099
      vertex 3 77.125 3
    endloop
  endfacet
  facet normal 0 0.849399 -0.527751
    outer loop
      vertex 1.40901 78.1135 4.59099
      vertex 0 77.125 3
      vertex 0 78.1135 4.59099
    endloop
  endfacet
  facet normal -0 -0.849402 -0.527747
    outer loop
      vertex 3 83.875 3
      vertex 2.37123 83.4843 3.62877
      vertex 0 83.875 3
    endloop
  endfacet
  facet normal 0 -0.26618 -0.963923
    outer loop
      vertex 0 82.8865 4.59099
      vertex 0.75 80.5 5.25
      vertex 0 80.5 5.25
    endloop
  endfacet
  facet normal 0 -0.26618 -0.963923
    outer loop
      vertex 0.75 80.5 5.25
      vertex 0 82.8865 4.59099
      vertex 1.40901 82.8865 4.59099
    endloop
  endfacet
  facet normal -1 0 0
    outer loop
      vertex 0 91 0
      vertex 0 83.875 3
      vertex 0 91 8
    endloop
  endfacet
  facet normal -1 0 0
    outer loop
      vertex 0 91 0
      vertex 0 82.8865 1.40901
      vertex 0 83.875 3
    endloop
  endfacet
  facet normal -1 0 0
    outer loop
      vertex 0 91 0
      vertex 0 80.5 0.75
      vertex 0 82.8865 1.40901
    endloop
  endfacet
  facet normal -1 -0 0
    outer loop
      vertex 0 78.1135 1.40901
      vertex 0 0 0
      vertex 0 77.125 3
    endloop
  endfacet
  facet normal -1 -0 0
    outer loop
      vertex 0 80.5 0.75
      vertex 0 0 0
      vertex 0 78.1135 1.40901
    endloop
  endfacet
  facet normal -1 0 0
    outer loop
      vertex 0 0 0
      vertex 0 80.5 0.75
      vertex 0 91 0
    endloop
  endfacet
  facet normal -1 0 0
    outer loop
      vertex 0 82.8865 4.59099
      vertex 0 91 8
      vertex 0 83.875 3
    endloop
  endfacet
  facet normal -1 0 0
    outer loop
      vertex 0 80.5 5.25
      vertex 0 91 8
      vertex 0 82.8865 4.59099
    endloop
  endfacet
  facet normal -1 0 0
    outer loop
      vertex 0 0 8
      vertex 0 77.125 3
      vertex 0 0 0
    endloop
  endfacet
  facet normal -1 0 0
    outer loop
      vertex 0 77.125 3
      vertex 0 0 8
      vertex 0 78.1135 4.59099
    endloop
  endfacet
  facet normal -1 0 0
    outer loop
      vertex 0 78.1135 4.59099
      vertex 0 0 8
      vertex 0 80.5 5.25
    endloop
  endfacet
  facet normal -1 0 0
    outer loop
      vertex 0 80.5 5.25
      vertex 0 0 8
      vertex 0 91 8
    endloop
  endfacet
  facet normal -1 1.99808e-07 -2.99711e-07
    outer loop
      vertex 6 80.5 3
      vertex 6 78.1135 1.40901
      vertex 6 78.1135 3
    endloop
  endfacet
  facet normal -1.53211e-07 0.26618 0.963923
    outer loop
      vertex 6 78.1135 1.40901
      vertex 6 80.5 0.750001
      vertex 0 80.5 0.75
    endloop
  endfacet
  facet normal 0 0.26618 -0.963923
    outer loop
      vertex 0 78.1135 4.59099
      vertex 0.75 80.5 5.25
      vertex 1.40901 78.1135 4.59099
    endloop
  endfacet
  facet normal 0 0.26618 -0.963923
    outer loop
      vertex 0.75 80.5 5.25
      vertex 0 78.1135 4.59099
      vertex 0 80.5 5.25
    endloop
  endfacet
  facet normal -1 4.82376e-07 -2.99711e-07
    outer loop
      vertex 6 78.1135 3
      vertex 6 78.1135 1.40901
      vertex 6 77.125 3
    endloop
  endfacet
  facet normal 0 -0.849399 0.527751
    outer loop
      vertex 6 82.8865 1.40901
      vertex 0 83.875 3
      vertex 0 82.8865 1.40901
    endloop
  endfacet
  facet normal 0 -0.849399 0.527751
    outer loop
      vertex 6 82.8865 1.40901
      vertex 3 83.875 3
      vertex 0 83.875 3
    endloop
  endfacet
  facet normal 0 -0.849399 0.527751
    outer loop
      vertex 3 83.875 3
      vertex 6 82.8865 1.40901
      vertex 6 83.875 3
    endloop
  endfacet
  facet normal 0 0.26618 0.963923
    outer loop
      vertex 6 78.1135 1.40901
      vertex 0 80.5 0.75
      vertex 0 78.1135 1.40901
    endloop
  endfacet
  facet normal 0 0.849399 0.527751
    outer loop
      vertex 6 78.1135 1.40901
      vertex 3 77.125 3
      vertex 6 77.125 3
    endloop
  endfacet
  facet normal -0 0.849399 0.527751
    outer loop
      vertex 0 78.1135 1.40901
      vertex 3 77.125 3
      vertex 6 78.1135 1.40901
    endloop
  endfacet
  facet normal 0 0.849399 0.527751
    outer loop
      vertex 3 77.125 3
      vertex 0 78.1135 1.40901
      vertex 0 77.125 3
    endloop
  endfacet
  facet normal -1.53211e-07 -0.26618 0.963923
    outer loop
      vertex 6 80.5 0.750001
      vertex 6 82.8865 1.40901
      vertex 0 80.5 0.75
    endloop
  endfacet
  facet normal -1 0 0
    outer loop
      vertex 6 80.5 3
      vertex 6 82.8865 1.40901
      vertex 6 80.5 0.750001
    endloop
  endfacet
  facet normal -1 0 0
    outer loop
      vertex 6 82.8865 1.40901
      vertex 6 80.5 3
      vertex 6 83.875 3
    endloop
  endfacet
  facet normal -1 0 -0
    outer loop
      vertex 6 80.5 3
      vertex 6 80.5 0.750001
      vertex 6 78.1135 1.40901
    endloop
  endfacet
  facet normal 0 -0.26618 0.963923
    outer loop
      vertex 6 82.8865 1.40901
      vertex 0 82.8865 1.40901
      vertex 0 80.5 0.75
    endloop
  endfacet
  facet normal 0.963923 0.26618 0
    outer loop
      vertex 1.40901 78.1135 8
      vertex 0.75 80.5 5.25
      vertex 0.75 80.5 8
    endloop
  endfacet
  facet normal 0.963923 0.26618 0
    outer loop
      vertex 0.75 80.5 5.25
      vertex 1.40901 78.1135 8
      vertex 1.40901 78.1135 4.59099
    endloop
  endfacet
  facet normal 0.527751 -0.849399 0
    outer loop
      vertex 1.40901 82.8865 4.59099
      vertex 3 83.875 8
      vertex 1.40901 82.8865 8
    endloop
  endfacet
  facet normal 0.527752 -0.849398 -1.23235e-06
    outer loop
      vertex 2.37123 83.4843 3.62877
      vertex 3 83.875 8
      vertex 1.40901 82.8865 4.59099
    endloop
  endfacet
  facet normal 0.527746 -0.849402 0
    outer loop
      vertex 2.37123 83.4843 3.62877
      vertex 3 83.875 3
      vertex 3 83.875 8
    endloop
  endfacet
  facet normal 0.963923 -0.26618 0
    outer loop
      vertex 0.75 80.5 5.25
      vertex 1.40901 82.8865 8
      vertex 0.75 80.5 8
    endloop
  endfacet
  facet normal 0.963923 -0.26618 0
    outer loop
      vertex 1.40901 82.8865 8
      vertex 0.75 80.5 5.25
      vertex 1.40901 82.8865 4.59099
    endloop
  endfacet
  facet normal 0.527751 0.849399 0
    outer loop
      vertex 3 77.125 8
      vertex 1.40901 78.1135 4.59099
      vertex 1.40901 78.1135 8
    endloop
  endfacet
  facet normal 0.527751 0.849399 0
    outer loop
      vertex 1.40901 78.1135 4.59099
      vertex 3 77.125 8
      vertex 3 77.125 3
    endloop
  endfacet
  facet normal 8.10804e-06 -0.849397 -0.527754
    outer loop
      vertex 62 83.5043 3.59662
      vertex 62.091 82.8865 4.59099
      vertex 62 82.943 4.5
    endloop
  endfacet
  facet normal 0 -0.849397 -0.527754
    outer loop
      vertex 62.091 82.8865 4.59099
      vertex 65 83.2572 3.99437
      vertex 64.909 82.8865 4.59099
    endloop
  endfacet
  facet normal -1.52187e-05 -0.849396 -0.527755
    outer loop
      vertex 64.909 82.8865 4.59099
      vertex 65 83.2572 3.99437
      vertex 65 82.943 4.5
    endloop
  endfacet
  facet normal 0 -0.849397 -0.527754
    outer loop
      vertex 62.091 82.8865 4.59099
      vertex 62 83.5043 3.59662
      vertex 65 83.2572 3.99437
    endloop
  endfacet
  facet normal -0 -0.849402 -0.527746
    outer loop
      vertex 65 83.875 3
      vertex 62 83.5043 3.59662
      vertex 62 83.875 3
    endloop
  endfacet
  facet normal -8.64055e-07 -0.8494 -0.527749
    outer loop
      vertex 62 83.5043 3.59662
      vertex 65 83.875 3
      vertex 65 83.2572 3.99437
    endloop
  endfacet
  facet normal 1 0 0
    outer loop
      vertex 57.5 82.8865 1.40901
      vertex 57.5 83.875 3
      vertex 57.5 82.8865 3
    endloop
  endfacet
  facet normal 0 0.849399 -0.527751
    outer loop
      vertex 62 77.125 3
      vertex 62.091 78.1135 4.59099
      vertex 64.909 78.1135 4.59099
    endloop
  endfacet
  facet normal -9.35966e-06 0.849399 -0.527751
    outer loop
      vertex 65 77.125 3
      vertex 64.909 78.1135 4.59099
      vertex 65 78.057 4.5
    endloop
  endfacet
  facet normal 0 0.849399 -0.527751
    outer loop
      vertex 62 77.125 3
      vertex 64.909 78.1135 4.59099
      vertex 65 77.125 3
    endloop
  endfacet
  facet normal 3.4926e-06 0.849399 -0.527751
    outer loop
      vertex 62.091 78.1135 4.59099
      vertex 62 77.125 3
      vertex 62 78.057 4.5
    endloop
  endfacet
  facet normal 0 -0.26618 -0.963923
    outer loop
      vertex 62.75 80.5 5.25
      vertex 64.909 82.8865 4.59099
      vertex 64.25 80.5 5.25
    endloop
  endfacet
  facet normal -0 -0.26618 -0.963923
    outer loop
      vertex 64.909 82.8865 4.59099
      vertex 62.75 80.5 5.25
      vertex 62.091 82.8865 4.59099
    endloop
  endfacet
  facet normal 1 -0 0
    outer loop
      vertex 57.5 80.5 3
      vertex 57.5 82.8865 1.40901
      vertex 57.5 82.8865 3
    endloop
  endfacet
  facet normal 1 0 0
    outer loop
      vertex 57.5 82.8865 1.40901
      vertex 57.5 80.5 3
      vertex 57.5 78.1135 1.40901
    endloop
  endfacet
  facet normal 1 0 -0
    outer loop
      vertex 57.5 80.5 0.75
      vertex 57.5 82.8865 1.40901
      vertex 57.5 78.1135 1.40901
    endloop
  endfacet
  facet normal -1 0 0
    outer loop
      vertex 69.5 80.5 0.750001
      vertex 69.5 83.875 3
      vertex 69.5 82.8865 1.40901
    endloop
  endfacet
  facet normal -1 0 0
    outer loop
      vertex 69.5 77.125 3
      vertex 69.5 80.5 0.750001
      vertex 69.5 78.1135 1.40901
    endloop
  endfacet
  facet normal -1 0 0
    outer loop
      vertex 69.5 80.5 0.750001
      vertex 69.5 77.125 3
      vertex 69.5 83.875 3
    endloop
  endfacet
  facet normal 0 0.26618 -0.963923
    outer loop
      vertex 64.909 78.1135 4.59099
      vertex 62.75 80.5 5.25
      vertex 64.25 80.5 5.25
    endloop
  endfacet
  facet normal 0 0.26618 -0.963923
    outer loop
      vertex 62.75 80.5 5.25
      vertex 64.909 78.1135 4.59099
      vertex 62.091 78.1135 4.59099
    endloop
  endfacet
  facet normal 0 0.26618 0.963923
    outer loop
      vertex 69.5 78.1135 1.40901
      vertex 57.5 80.5 0.75
      vertex 57.5 78.1135 1.40901
    endloop
  endfacet
  facet normal 0 -0.26618 0.963923
    outer loop
      vertex 69.5 82.8865 1.40901
      vertex 57.5 82.8865 1.40901
      vertex 57.5 80.5 0.75
    endloop
  endfacet
  facet normal -7.66057e-08 -0.26618 0.963923
    outer loop
      vertex 69.5 80.5 0.750001
      vertex 69.5 82.8865 1.40901
      vertex 57.5 80.5 0.75
    endloop
  endfacet
  facet normal 0 0.849399 0.527751
    outer loop
      vertex 69.5 78.1135 1.40901
      vertex 65 77.125 3
      vertex 69.5 77.125 3
    endloop
  endfacet
  facet normal 0 0.849399 0.527751
    outer loop
      vertex 65 77.125 3
      vertex 69.5 78.1135 1.40901
      vertex 62 77.125 3
    endloop
  endfacet
  facet normal -0 0.849399 0.527751
    outer loop
      vertex 57.5 78.1135 1.40901
      vertex 62 77.125 3
      vertex 69.5 78.1135 1.40901
    endloop
  endfacet
  facet normal 0 0.849399 0.527751
    outer loop
      vertex 62 77.125 3
      vertex 57.5 78.1135 1.40901
      vertex 57.5 77.125 3
    endloop
  endfacet
  facet normal 1 0 -0
    outer loop
      vertex 57.5 78.1135 1.40901
      vertex 57.5 80.5 3
      vertex 57.5 77.125 3
    endloop
  endfacet
  facet normal 0 -0.849399 0.527751
    outer loop
      vertex 69.5 82.8865 1.40901
      vertex 57.5 83.875 3
      vertex 57.5 82.8865 1.40901
    endloop
  endfacet
  facet normal 0 -0.849399 0.527751
    outer loop
      vertex 69.5 82.8865 1.40901
      vertex 62 83.875 3
      vertex 57.5 83.875 3
    endloop
  endfacet
  facet normal 0 -0.849399 0.527751
    outer loop
      vertex 62 83.875 3
      vertex 69.5 82.8865 1.40901
      vertex 65 83.875 3
    endloop
  endfacet
  facet normal 0 -0.849399 0.527751
    outer loop
      vertex 65 83.875 3
      vertex 69.5 82.8865 1.40901
      vertex 69.5 83.875 3
    endloop
  endfacet
  facet normal -7.66057e-08 0.26618 0.963923
    outer loop
      vertex 69.5 78.1135 1.40901
      vertex 69.5 80.5 0.750001
      vertex 57.5 80.5 0.75
    endloop
  endfacet
  facet normal -0.963923 -0.266181 0
    outer loop
      vertex 62.75 80.5 5.25
      vertex 62.091 82.8865 8
      vertex 62.091 82.8865 4.59099
    endloop
  endfacet
  facet normal -0.963923 -0.266181 0
    outer loop
      vertex 62.091 82.8865 8
      vertex 62.75 80.5 5.25
      vertex 62.75 80.5 8
    endloop
  endfacet
  facet normal -0.527756 -0.849396 0
    outer loop
      vertex 62 82.943 8
      vertex 62.091 82.8865 4.59099
      vertex 62.091 82.8865 8
    endloop
  endfacet
  facet normal -0.527756 -0.849396 0
    outer loop
      vertex 62.091 82.8865 4.59099
      vertex 62 82.943 8
      vertex 62 82.943 4.5
    endloop
  endfacet
  facet normal -0.527756 0.849396 0
    outer loop
      vertex 62.091 78.1135 4.59099
      vertex 62 78.057 8
      vertex 62.091 78.1135 8
    endloop
  endfacet
  facet normal -0.527756 0.849396 0
    outer loop
      vertex 62 78.057 8
      vertex 62.091 78.1135 4.59099
      vertex 62 78.057 4.5
    endloop
  endfacet
  facet normal -0.963923 0.266181 0
    outer loop
      vertex 62.091 78.1135 8
      vertex 62.75 80.5 5.25
      vertex 62.091 78.1135 4.59099
    endloop
  endfacet
  facet normal -0.963923 0.266181 0
    outer loop
      vertex 62.75 80.5 5.25
      vertex 62.091 78.1135 8
      vertex 62.75 80.5 8
    endloop
  endfacet
  facet normal 0.963923 0.266181 0
    outer loop
      vertex 64.909 78.1135 8
      vertex 64.25 80.5 5.25
      vertex 64.25 80.5 8
    endloop
  endfacet
  facet normal 0.963923 0.266181 0
    outer loop
      vertex 64.25 80.5 5.25
      vertex 64.909 78.1135 8
      vertex 64.909 78.1135 4.59099
    endloop
  endfacet
  facet normal 0.527756 -0.849396 0
    outer loop
      vertex 64.909 82.8865 4.59099
      vertex 65 82.943 8
      vertex 64.909 82.8865 8
    endloop
  endfacet
  facet normal 0.527756 -0.849396 0
    outer loop
      vertex 65 82.943 8
      vertex 64.909 82.8865 4.59099
      vertex 65 82.943 4.5
    endloop
  endfacet
  facet normal 0.963923 -0.266181 0
    outer loop
      vertex 64.25 80.5 5.25
      vertex 64.909 82.8865 8
      vertex 64.25 80.5 8
    endloop
  endfacet
  facet normal 0.963923 -0.266181 0
    outer loop
      vertex 64.909 82.8865 8
      vertex 64.25 80.5 5.25
      vertex 64.909 82.8865 4.59099
    endloop
  endfacet
  facet normal -0 0 1
    outer loop
      vertex 65 77.125 3
      vertex 69.5 13.875 3
      vertex 69.5 77.125 3
    endloop
  endfacet
  facet normal 0 0 1
    outer loop
      vertex 69.5 13.875 3
      vertex 65 77.125 3
      vertex 65 13.875 3
    endloop
  endfacet
  facet normal 0 0 1
    outer loop
      vertex 123 88 3
      vertex 103.75 6 3
      vertex 123 3 3
    endloop
  endfacet
  facet normal -0 0 1
    outer loop
      vertex 69.5 77.125 3
      vertex 103.75 6 3
      vertex 123 88 3
    endloop
  endfacet
  facet normal 0 0 1
    outer loop
      vertex 103.75 6 3
      vertex 69.5 77.125 3
      vertex 87.25 6 3
    endloop
  endfacet
  facet normal 0 0 1
    outer loop
      vertex 69.5 77.125 3
      vertex 123 88 3
      vertex 69.5 83.875 3
    endloop
  endfacet
  facet normal -0 0 1
    outer loop
      vertex 65 88 3
      vertex 69.5 83.875 3
      vertex 123 88 3
    endloop
  endfacet
  facet normal 0 0 1
    outer loop
      vertex 69.5 83.875 3
      vertex 65 88 3
      vertex 65 83.875 3
    endloop
  endfacet
  facet normal 0 0 1
    outer loop
      vertex 123 3 3
      vertex 103.75 6 3
      vertex 103.75 3 3
    endloop
  endfacet
  facet normal -0 0 1
    outer loop
      vertex 69.5 13.875 3
      vertex 87.25 6 3
      vertex 69.5 77.125 3
    endloop
  endfacet
  facet normal -0 0 1
    outer loop
      vertex 69.5 7.125 3
      vertex 87.25 6 3
      vertex 69.5 13.875 3
    endloop
  endfacet
  facet normal 0 0 1
    outer loop
      vertex 87.25 6 3
      vertex 69.5 7.125 3
      vertex 87.25 3 3
    endloop
  endfacet
  facet normal 0 0 1
    outer loop
      vertex 65 3 3
      vertex 69.5 7.125 3
      vertex 65 7.125 3
    endloop
  endfacet
  facet normal 0 0 1
    outer loop
      vertex 69.5 7.125 3
      vertex 65 3 3
      vertex 87.25 3 3
    endloop
  endfacet
  facet normal 0.527756 0.849396 0
    outer loop
      vertex 65 78.057 8
      vertex 64.909 78.1135 4.59099
      vertex 64.909 78.1135 8
    endloop
  endfacet
  facet normal 0.527756 0.849396 0
    outer loop
      vertex 64.909 78.1135 4.59099
      vertex 65 78.057 8
      vertex 65 78.057 4.5
    endloop
  endfacet
  facet normal 1.83111e-06 -0.8494 -0.52775
    outer loop
      vertex 62 13.5043 3.59662
      vertex 62.091 12.8865 4.59099
      vertex 62 12.943 4.5
    endloop
  endfacet
  facet normal 0 -0.8494 -0.52775
    outer loop
      vertex 62.091 12.8865 4.59099
      vertex 65 13.2572 3.99437
      vertex 64.909 12.8865 4.59099
    endloop
  endfacet
  facet normal 1.69466e-06 -0.8494 -0.52775
    outer loop
      vertex 64.909 12.8865 4.59099
      vertex 65 13.2572 3.99437
      vertex 65 12.943 4.5
    endloop
  endfacet
  facet normal 5.46666e-08 -0.8494 -0.52775
    outer loop
      vertex 62.091 12.8865 4.59099
      vertex 62 13.5043 3.59662
      vertex 65 13.2572 3.99437
    endloop
  endfacet
  facet normal 1 0 -0
    outer loop
      vertex 57.5 8.11351 1.40901
      vertex 57.5 10.5 3
      vertex 57.5 7.125 3
    endloop
  endfacet
  facet normal -2.70017e-07 -0.8494 -0.52775
    outer loop
      vertex 65 13.875 3
      vertex 62 13.5043 3.59662
      vertex 62 13.875 3
    endloop
  endfacet
  facet normal -5.40034e-08 -0.8494 -0.527749
    outer loop
      vertex 62 13.5043 3.59662
      vertex 65 13.875 3
      vertex 65 13.2572 3.99437
    endloop
  endfacet
  facet normal 1 0 0
    outer loop
      vertex 57.5 12.8865 1.40901
      vertex 57.5 13.875 3
      vertex 57.5 12.8865 3
    endloop
  endfacet
  facet normal 0 0.8494 -0.52775
    outer loop
      vertex 62 7.125 3
      vertex 62.091 8.11351 4.59099
      vertex 64.909 8.11351 4.59099
    endloop
  endfacet
  facet normal 1.70335e-06 0.8494 -0.52775
    outer loop
      vertex 65 7.125 3
      vertex 64.909 8.11351 4.59099
      vertex 65 8.05698 4.5
    endloop
  endfacet
  facet normal 0 0.8494 -0.52775
    outer loop
      vertex 62 7.125 3
      vertex 64.909 8.11351 4.59099
      vertex 65 7.125 3
    endloop
  endfacet
  facet normal 1.87247e-06 0.8494 -0.52775
    outer loop
      vertex 62.091 8.11351 4.59099
      vertex 62 7.125 3
      vertex 62 8.05698 4.5
    endloop
  endfacet
  facet normal 0 -0.26618 -0.963923
    outer loop
      vertex 62.75 10.5 5.25
      vertex 64.909 12.8865 4.59099
      vertex 64.25 10.5 5.25
    endloop
  endfacet
  facet normal -0 -0.26618 -0.963923
    outer loop
      vertex 64.909 12.8865 4.59099
      vertex 62.75 10.5 5.25
      vertex 62.091 12.8865 4.59099
    endloop
  endfacet
  facet normal 1 -0 0
    outer loop
      vertex 57.5 10.5 3
      vertex 57.5 12.8865 1.40901
      vertex 57.5 12.8865 3
    endloop
  endfacet
  facet normal 1 0 0
    outer loop
      vertex 57.5 12.8865 1.40901
      vertex 57.5 10.5 3
      vertex 57.5 8.11351 1.40901
    endloop
  endfacet
  facet normal 1 0 -0
    outer loop
      vertex 57.5 10.5 0.75
      vertex 57.5 12.8865 1.40901
      vertex 57.5 8.11351 1.40901
    endloop
  endfacet
  facet normal -1 0 0
    outer loop
      vertex 69.5 10.5 0.750001
      vertex 69.5 13.875 3
      vertex 69.5 12.8865 1.40901
    endloop
  endfacet
  facet normal -1 0 0
    outer loop
      vertex 69.5 7.125 3
      vertex 69.5 10.5 0.750001
      vertex 69.5 8.11351 1.40901
    endloop
  endfacet
  facet normal -1 0 0
    outer loop
      vertex 69.5 10.5 0.750001
      vertex 69.5 7.125 3
      vertex 69.5 13.875 3
    endloop
  endfacet
  facet normal 0 0.26618 -0.963923
    outer loop
      vertex 64.909 8.11351 4.59099
      vertex 62.75 10.5 5.25
      vertex 64.25 10.5 5.25
    endloop
  endfacet
  facet normal 0 0.26618 -0.963923
    outer loop
      vertex 62.75 10.5 5.25
      vertex 64.909 8.11351 4.59099
      vertex 62.091 8.11351 4.59099
    endloop
  endfacet
  facet normal 0 0.26618 0.963923
    outer loop
      vertex 69.5 8.11351 1.40901
      vertex 57.5 10.5 0.75
      vertex 57.5 8.11351 1.40901
    endloop
  endfacet
  facet normal 0 -0.26618 0.963923
    outer loop
      vertex 69.5 12.8865 1.40901
      vertex 57.5 12.8865 1.40901
      vertex 57.5 10.5 0.75
    endloop
  endfacet
  facet normal -7.66057e-08 -0.26618 0.963923
    outer loop
      vertex 69.5 10.5 0.750001
      vertex 69.5 12.8865 1.40901
      vertex 57.5 10.5 0.75
    endloop
  endfacet
  facet normal 0 0.8494 0.52775
    outer loop
      vertex 69.5 8.11351 1.40901
      vertex 65 7.125 3
      vertex 69.5 7.125 3
    endloop
  endfacet
  facet normal 0 0.8494 0.52775
    outer loop
      vertex 65 7.125 3
      vertex 69.5 8.11351 1.40901
      vertex 62 7.125 3
    endloop
  endfacet
  facet normal -0 0.8494 0.52775
    outer loop
      vertex 57.5 8.11351 1.40901
      vertex 62 7.125 3
      vertex 69.5 8.11351 1.40901
    endloop
  endfacet
  facet normal 0 0.8494 0.52775
    outer loop
      vertex 62 7.125 3
      vertex 57.5 8.11351 1.40901
      vertex 57.5 7.125 3
    endloop
  endfacet
  facet normal 0 -0.8494 0.52775
    outer loop
      vertex 69.5 12.8865 1.40901
      vertex 57.5 13.875 3
      vertex 57.5 12.8865 1.40901
    endloop
  endfacet
  facet normal 0 -0.8494 0.52775
    outer loop
      vertex 69.5 12.8865 1.40901
      vertex 62 13.875 3
      vertex 57.5 13.875 3
    endloop
  endfacet
  facet normal -2.70017e-07 -0.849401 0.527749
    outer loop
      vertex 62 13.875 3
      vertex 69.5 12.8865 1.40901
      vertex 65 13.875 3
    endloop
  endfacet
  facet normal 0 -0.8494 0.527749
    outer loop
      vertex 65 13.875 3
      vertex 69.5 12.8865 1.40901
      vertex 69.5 13.875 3
    endloop
  endfacet
  facet normal -7.66057e-08 0.26618 0.963923
    outer loop
      vertex 69.5 8.11351 1.40901
      vertex 69.5 10.5 0.750001
      vertex 57.5 10.5 0.75
    endloop
  endfacet
  facet normal -0.963923 -0.266181 0
    outer loop
      vertex 62.75 10.5 5.25
      vertex 62.091 12.8865 8
      vertex 62.091 12.8865 4.59099
    endloop
  endfacet
  facet normal -0.963923 -0.266181 0
    outer loop
      vertex 62.091 12.8865 8
      vertex 62.75 10.5 5.25
      vertex 62.75 10.5 8
    endloop
  endfacet
  facet normal -0.527756 -0.849396 0
    outer loop
      vertex 62 12.943 8
      vertex 62.091 12.8865 4.59099
      vertex 62.091 12.8865 8
    endloop
  endfacet
  facet normal -0.527756 -0.849396 0
    outer loop
      vertex 62.091 12.8865 4.59099
      vertex 62 12.943 8
      vertex 62 12.943 4.5
    endloop
  endfacet
  facet normal -0.527756 0.849396 0
    outer loop
      vertex 62.091 8.11351 4.59099
      vertex 62 8.05698 8
      vertex 62.091 8.11351 8
    endloop
  endfacet
  facet normal -0.527756 0.849396 0
    outer loop
      vertex 62 8.05698 8
      vertex 62.091 8.11351 4.59099
      vertex 62 8.05698 4.5
    endloop
  endfacet
  facet normal -0.963923 0.266181 0
    outer loop
      vertex 62.091 8.11351 8
      vertex 62.75 10.5 5.25
      vertex 62.091 8.11351 4.59099
    endloop
  endfacet
  facet normal -0.963923 0.266181 0
    outer loop
      vertex 62.75 10.5 5.25
      vertex 62.091 8.11351 8
      vertex 62.75 10.5 8
    endloop
  endfacet
  facet normal 0.527763 0.849392 0
    outer loop
      vertex 65 8.05698 8
      vertex 64.909 8.11351 4.59099
      vertex 64.909 8.11351 8
    endloop
  endfacet
  facet normal 0.527763 0.849392 0
    outer loop
      vertex 64.909 8.11351 4.59099
      vertex 65 8.05698 8
      vertex 65 8.05698 4.5
    endloop
  endfacet
  facet normal 0.527763 -0.849392 0
    outer loop
      vertex 64.909 12.8865 4.59099
      vertex 65 12.943 8
      vertex 64.909 12.8865 8
    endloop
  endfacet
  facet normal 0.527763 -0.849392 0
    outer loop
      vertex 65 12.943 8
      vertex 64.909 12.8865 4.59099
      vertex 65 12.943 4.5
    endloop
  endfacet
  facet normal 0.963923 -0.266181 0
    outer loop
      vertex 64.25 10.5 5.25
      vertex 64.909 12.8865 8
      vertex 64.25 10.5 8
    endloop
  endfacet
  facet normal 0.963923 -0.266181 0
    outer loop
      vertex 64.909 12.8865 8
      vertex 64.25 10.5 5.25
      vertex 64.909 12.8865 4.59099
    endloop
  endfacet
  facet normal 0.963923 0.266181 0
    outer loop
      vertex 64.909 8.11351 8
      vertex 64.25 10.5 5.25
      vertex 64.25 10.5 8
    endloop
  endfacet
  facet normal 0.963923 0.266181 0
    outer loop
      vertex 64.25 10.5 5.25
      vertex 64.909 8.11351 8
      vertex 64.909 8.11351 4.59099
    endloop
  endfacet
  facet normal 0 0 1
    outer loop
      vertex 62 12.943 8
      vertex 65 12.943 8
      vertex 62 78.057 8
    endloop
  endfacet
  facet normal 0 0 1
    outer loop
      vertex 64.909 12.8865 8
      vertex 62.091 12.8865 8
      vertex 62.75 10.5 8
    endloop
  endfacet
  facet normal 0 0 1
    outer loop
      vertex 65 12.943 8
      vertex 62 12.943 8
      vertex 64.909 12.8865 8
    endloop
  endfacet
  facet normal 0 0 1
    outer loop
      vertex 64.909 12.8865 8
      vertex 62 12.943 8
      vertex 62.091 12.8865 8
    endloop
  endfacet
  facet normal -0 0 1
    outer loop
      vertex 62.091 78.1135 8
      vertex 65 78.057 8
      vertex 64.909 78.1135 8
    endloop
  endfacet
  facet normal 0 0 1
    outer loop
      vertex 62 78.057 8
      vertex 65 78.057 8
      vertex 62.091 78.1135 8
    endloop
  endfacet
  facet normal -0 0 1
    outer loop
      vertex 62.75 80.5 8
      vertex 64.909 78.1135 8
      vertex 64.25 80.5 8
    endloop
  endfacet
  facet normal 0 0 1
    outer loop
      vertex 62.091 78.1135 8
      vertex 64.909 78.1135 8
      vertex 62.75 80.5 8
    endloop
  endfacet
  facet normal -0 0 1
    outer loop
      vertex 62 8.05698 8
      vertex 65 8.05698 8
      vertex 64.909 8.11351 8
    endloop
  endfacet
  facet normal 0 0 1
    outer loop
      vertex 126 91 8
      vertex 123 88 8
      vertex 126 0 8
    endloop
  endfacet
  facet normal 0 0 1
    outer loop
      vertex 126 91 8
      vertex 65 88 8
      vertex 123 88 8
    endloop
  endfacet
  facet normal 0 0 1
    outer loop
      vertex 62 82.943 8
      vertex 65 82.943 8
      vertex 65 88 8
    endloop
  endfacet
  facet normal 0 0 1
    outer loop
      vertex 65 82.943 8
      vertex 62 82.943 8
      vertex 64.909 82.8865 8
    endloop
  endfacet
  facet normal 0 0 1
    outer loop
      vertex 65 78.057 8
      vertex 62 78.057 8
      vertex 65 12.943 8
    endloop
  endfacet
  facet normal 0 0 1
    outer loop
      vertex 64.909 82.8865 8
      vertex 62.091 82.8865 8
      vertex 64.25 80.5 8
    endloop
  endfacet
  facet normal 0 0 1
    outer loop
      vertex 64.25 80.5 8
      vertex 62.091 82.8865 8
      vertex 62.75 80.5 8
    endloop
  endfacet
  facet normal 0 0 1
    outer loop
      vertex 62 82.943 8
      vertex 65 88 8
      vertex 62 88 8
    endloop
  endfacet
  facet normal 0 0 1
    outer loop
      vertex 126 91 8
      vertex 62 88 8
      vertex 65 88 8
    endloop
  endfacet
  facet normal -0 0 1
    outer loop
      vertex 10.5 90.25 8
      vertex 62 88 8
      vertex 126 91 8
    endloop
  endfacet
  facet normal 0 0 1
    outer loop
      vertex 62 88 8
      vertex 12.8865 89.591 8
      vertex 13.875 88 8
    endloop
  endfacet
  facet normal 0 0 1
    outer loop
      vertex 62 88 8
      vertex 10.5 90.25 8
      vertex 12.8865 89.591 8
    endloop
  endfacet
  facet normal 0 0 1
    outer loop
      vertex 8.11351 89.591 8
      vertex 3 88 8
      vertex 7.125 88 8
    endloop
  endfacet
  facet normal 0 0 1
    outer loop
      vertex 3 88 8
      vertex 1.40901 82.8865 8
      vertex 3 83.875 8
    endloop
  endfacet
  facet normal 0 0 1
    outer loop
      vertex 1.40901 82.8865 8
      vertex 0 91 8
      vertex 0.75 80.5 8
    endloop
  endfacet
  facet normal 0 0 1
    outer loop
      vertex 3 88 8
      vertex 0 91 8
      vertex 1.40901 82.8865 8
    endloop
  endfacet
  facet normal 0 0 1
    outer loop
      vertex 8.11351 89.591 8
      vertex 0 91 8
      vertex 3 88 8
    endloop
  endfacet
  facet normal 0 0 1
    outer loop
      vertex 10.5 90.25 8
      vertex 0 91 8
      vertex 8.11351 89.591 8
    endloop
  endfacet
  facet normal -0 0 1
    outer loop
      vertex 0 91 8
      vertex 10.5 90.25 8
      vertex 126 91 8
    endloop
  endfacet
  facet normal -0 0 1
    outer loop
      vertex 123 3 8
      vertex 126 0 8
      vertex 123 88 8
    endloop
  endfacet
  facet normal -0 0 1
    outer loop
      vertex 65 3 8
      vertex 126 0 8
      vertex 123 3 8
    endloop
  endfacet
  facet normal 0 0 1
    outer loop
      vertex 62.091 8.11351 8
      vertex 64.909 8.11351 8
      vertex 64.25 10.5 8
    endloop
  endfacet
  facet normal 0 0 1
    outer loop
      vertex 64.909 12.8865 8
      vertex 62.75 10.5 8
      vertex 64.25 10.5 8
    endloop
  endfacet
  facet normal 0 0 1
    outer loop
      vertex 62.091 8.11351 8
      vertex 64.25 10.5 8
      vertex 62.75 10.5 8
    endloop
  endfacet
  facet normal 0 0 1
    outer loop
      vertex 62 8.05698 8
      vertex 64.909 8.11351 8
      vertex 62.091 8.11351 8
    endloop
  endfacet
  facet normal 0 0 1
    outer loop
      vertex 65 8.05698 8
      vertex 62 8.05698 8
      vertex 65 3 8
    endloop
  endfacet
  facet normal 0 0 1
    outer loop
      vertex 62 3 8
      vertex 65 3 8
      vertex 62 8.05698 8
    endloop
  endfacet
  facet normal -0 0 1
    outer loop
      vertex 62 3 8
      vertex 126 0 8
      vertex 65 3 8
    endloop
  endfacet
  facet normal 0 0 1
    outer loop
      vertex 12.8865 1.40901 8
      vertex 62 3 8
      vertex 13.875 3 8
    endloop
  endfacet
  facet normal 0 0 1
    outer loop
      vertex 10.5 0.75 8
      vertex 62 3 8
      vertex 12.8865 1.40901 8
    endloop
  endfacet
  facet normal 0 0 1
    outer loop
      vertex 62 3 8
      vertex 10.5 0.75 8
      vertex 126 0 8
    endloop
  endfacet
  facet normal -0 0 1
    outer loop
      vertex 3 3 8
      vertex 8.11351 1.40901 8
      vertex 7.125 3 8
    endloop
  endfacet
  facet normal 0 0 1
    outer loop
      vertex 1.40901 78.1135 8
      vertex 3 3 8
      vertex 3 77.125 8
    endloop
  endfacet
  facet normal 0 0 1
    outer loop
      vertex 0 0 8
      vertex 1.40901 78.1135 8
      vertex 0.75 80.5 8
    endloop
  endfacet
  facet normal 0 0 1
    outer loop
      vertex 0 0 8
      vertex 0.75 80.5 8
      vertex 0 91 8
    endloop
  endfacet
  facet normal 0 0 1
    outer loop
      vertex 10.5 0.75 8
      vertex 0 0 8
      vertex 126 0 8
    endloop
  endfacet
  facet normal 0 0 1
    outer loop
      vertex 8.11351 1.40901 8
      vertex 0 0 8
      vertex 10.5 0.75 8
    endloop
  endfacet
  facet normal 0 0 1
    outer loop
      vertex 3 3 8
      vertex 0 0 8
      vertex 8.11351 1.40901 8
    endloop
  endfacet
  facet normal 0 0 1
    outer loop
      vertex 1.40901 78.1135 8
      vertex 0 0 8
      vertex 3 3 8
    endloop
  endfacet
  facet normal 0 0 1
    outer loop
      vertex 64.909 82.8865 8
      vertex 62 82.943 8
      vertex 62.091 82.8865 8
    endloop
  endfacet
  facet normal 1 -0 0
    outer loop
      vertex 126 0 8
      vertex 126 91 0
      vertex 126 91 8
    endloop
  endfacet
  facet normal 1 0 0
    outer loop
      vertex 126 91 0
      vertex 126 0 8
      vertex 126 0 0
    endloop
  endfacet
  facet normal 0 0 -1
    outer loop
      vertex 0 0 0
      vertex 126 91 0
      vertex 126 0 0
    endloop
  endfacet
  facet normal -0 0 -1
    outer loop
      vertex 126 91 0
      vertex 0 0 0
      vertex 0 91 0
    endloop
  endfacet
  facet normal 1 -0 0
    outer loop
      vertex 3 3 8
      vertex 3 77.125 3
      vertex 3 77.125 8
    endloop
  endfacet
  facet normal 1 0 0
    outer loop
      vertex 3 3 3
      vertex 3 77.125 3
      vertex 3 3 8
    endloop
  endfacet
  facet normal 1 -0 0
    outer loop
      vertex 3 83.875 8
      vertex 3 88 3
      vertex 3 88 8
    endloop
  endfacet
  facet normal 1 0 0
    outer loop
      vertex 3 88 3
      vertex 3 83.875 8
      vertex 3 83.875 3
    endloop
  endfacet
  facet normal -1 0 0
    outer loop
      vertex 62 3 3
      vertex 62 8.05698 4.5
      vertex 62 7.125 3
    endloop
  endfacet
  facet normal -1 -0 0
    outer loop
      vertex 62 8.05698 4.5
      vertex 62 3 3
      vertex 62 3 8
    endloop
  endfacet
  facet normal -1 0 0
    outer loop
      vertex 62 8.05698 4.5
      vertex 62 3 8
      vertex 62 8.05698 8
    endloop
  endfacet
  facet normal -1 0 0
    outer loop
      vertex 62 83.5043 3.59662
      vertex 62 88 3
      vertex 62 83.875 3
    endloop
  endfacet
  facet normal -1 0 0
    outer loop
      vertex 62 88 3
      vertex 62 83.5043 3.59662
      vertex 62 88 8
    endloop
  endfacet
  facet normal -1 0 0
    outer loop
      vertex 62 82.943 4.5
      vertex 62 88 8
      vertex 62 83.5043 3.59662
    endloop
  endfacet
  facet normal -1 -0 0
    outer loop
      vertex 62 88 8
      vertex 62 82.943 4.5
      vertex 62 82.943 8
    endloop
  endfacet
  facet normal -1 0 0
    outer loop
      vertex 62 77.125 3
      vertex 62 78.057 8
      vertex 62 78.057 4.5
    endloop
  endfacet
  facet normal -1 0 0
    outer loop
      vertex 62 13.875 3
      vertex 62 78.057 8
      vertex 62 77.125 3
    endloop
  endfacet
  facet normal -1 0 0
    outer loop
      vertex 62 12.943 8
      vertex 62 13.875 3
      vertex 62 13.5043 3.59662
    endloop
  endfacet
  facet normal -1 0 0
    outer loop
      vertex 62 12.943 8
      vertex 62 13.5043 3.59662
      vertex 62 12.943 4.5
    endloop
  endfacet
  facet normal -1 0 0
    outer loop
      vertex 62 13.875 3
      vertex 62 12.943 8
      vertex 62 78.057 8
    endloop
  endfacet
  facet normal 0 1 -0
    outer loop
      vertex 7.125 3 3
      vertex 3 3 8
      vertex 7.125 3 8
    endloop
  endfacet
  facet normal 0 1 0
    outer loop
      vertex 3 3 8
      vertex 7.125 3 3
      vertex 3 3 3
    endloop
  endfacet
  facet normal 0 1 -0
    outer loop
      vertex 62 3 3
      vertex 13.875 3 8
      vertex 62 3 8
    endloop
  endfacet
  facet normal 0 1 0
    outer loop
      vertex 13.875 3 8
      vertex 62 3 3
      vertex 13.875 3 3
    endloop
  endfacet
  facet normal 0 -1 0
    outer loop
      vertex 13.875 88 3
      vertex 62 88 8
      vertex 13.875 88 8
    endloop
  endfacet
  facet normal 0 -1 -0
    outer loop
      vertex 62 88 8
      vertex 13.875 88 3
      vertex 62 88 3
    endloop
  endfacet
  facet normal 0 -1 0
    outer loop
      vertex 3 88 3
      vertex 7.125 88 8
      vertex 3 88 8
    endloop
  endfacet
  facet normal 0 -1 -0
    outer loop
      vertex 7.125 88 8
      vertex 3 88 3
      vertex 7.125 88 3
    endloop
  endfacet
  facet normal 1 -0 0
    outer loop
      vertex 65 3 8
      vertex 65 8.05698 4.5
      vertex 65 8.05698 8
    endloop
  endfacet
  facet normal 1 0 0
    outer loop
      vertex 65 3 3
      vertex 65 8.05698 4.5
      vertex 65 3 8
    endloop
  endfacet
  facet normal 1 0 0
    outer loop
      vertex 65 8.05698 4.5
      vertex 65 3 3
      vertex 65 7.125 3
    endloop
  endfacet
  facet normal 1 -0 0
    outer loop
      vertex 65 83.2572 3.99437
      vertex 65 88 3
      vertex 65 88 8
    endloop
  endfacet
  facet normal 1 0 0
    outer loop
      vertex 65 88 3
      vertex 65 83.2572 3.99437
      vertex 65 83.875 3
    endloop
  endfacet
  facet normal 1 0 0
    outer loop
      vertex 65 82.943 4.5
      vertex 65 88 8
      vertex 65 82.943 8
    endloop
  endfacet
  facet normal 1 0 0
    outer loop
      vertex 65 88 8
      vertex 65 82.943 4.5
      vertex 65 83.2572 3.99437
    endloop
  endfacet
  facet normal 1 0 0
    outer loop
      vertex 65 78.057 8
      vertex 65 77.125 3
      vertex 65 78.057 4.5
    endloop
  endfacet
  facet normal 1 0 0
    outer loop
      vertex 65 78.057 8
      vertex 65 13.875 3
      vertex 65 77.125 3
    endloop
  endfacet
  facet normal 1 -0 0
    outer loop
      vertex 65 12.943 8
      vertex 65 13.875 3
      vertex 65 78.057 8
    endloop
  endfacet
  facet normal 1 0 0
    outer loop
      vertex 65 13.875 3
      vertex 65 12.943 8
      vertex 65 13.2572 3.99437
    endloop
  endfacet
  facet normal 1 0 0
    outer loop
      vertex 65 13.2572 3.99437
      vertex 65 12.943 8
      vertex 65 12.943 4.5
    endloop
  endfacet
  facet normal -1 0 0
    outer loop
      vertex 123 3 3
      vertex 123 88 8
      vertex 123 88 3
    endloop
  endfacet
  facet normal -1 -0 0
    outer loop
      vertex 123 88 8
      vertex 123 3 3
      vertex 123 3 8
    endloop
  endfacet
  facet normal 0 -1 0
    outer loop
      vertex 65 88 3
      vertex 123 88 8
      vertex 65 88 8
    endloop
  endfacet
  facet normal 0 -1 -0
    outer loop
      vertex 123 88 8
      vertex 65 88 3
      vertex 123 88 3
    endloop
  endfacet
  facet normal 0 1 0
    outer loop
      vertex 87.25 3 4.5
      vertex 123 3 8
      vertex 103.75 3 4.5
    endloop
  endfacet
  facet normal 0 1 -0
    outer loop
      vertex 123 3 3
      vertex 103.75 3 4.5
      vertex 123 3 8
    endloop
  endfacet
  facet normal 0 1 0
    outer loop
      vertex 103.75 3 4.5
      vertex 123 3 3
      vertex 103.75 3 3
    endloop
  endfacet
  facet normal 0 1 0
    outer loop
      vertex 123 3 8
      vertex 87.25 3 4.5
      vertex 65 3 8
    endloop
  endfacet
  facet normal 0 1 0
    outer loop
      vertex 65 3 3
      vertex 87.25 3 4.5
      vertex 87.25 3 3
    endloop
  endfacet
  facet normal 0 1 0
    outer loop
      vertex 87.25 3 4.5
      vertex 65 3 3
      vertex 65 3 8
    endloop
  endfacet
  facet normal 1 0 0
    outer loop
      vertex 87.25 3 4.5
      vertex 87.25 0 4.5
      vertex 87.25 3 3
    endloop
  endfacet
  facet normal 1 -0 0
    outer loop
      vertex 87.25 3 3
      vertex 87.25 6 1.5
      vertex 87.25 6 3
    endloop
  endfacet
  facet normal 1 0 0
    outer loop
      vertex 87.25 0 1.5
      vertex 87.25 3 3
      vertex 87.25 0 4.5
    endloop
  endfacet
  facet normal 1 0 0
    outer loop
      vertex 87.25 3 3
      vertex 87.25 0 1.5
      vertex 87.25 6 1.5
    endloop
  endfacet
  facet normal 0 0 -1
    outer loop
      vertex 87.25 0 4.5
      vertex 103.75 3 4.5
      vertex 103.75 0 4.5
    endloop
  endfacet
  facet normal -0 0 -1
    outer loop
      vertex 103.75 3 4.5
      vertex 87.25 0 4.5
      vertex 87.25 3 4.5
    endloop
  endfacet
  facet normal -1 0 0
    outer loop
      vertex 103.75 6 1.5
      vertex 103.75 3 3
      vertex 103.75 6 3
    endloop
  endfacet
  facet normal -1 0 0
    outer loop
      vertex 103.75 0 1.5
      vertex 103.75 3 3
      vertex 103.75 6 1.5
    endloop
  endfacet
  facet normal -1 0 0
    outer loop
      vertex 103.75 0 4.5
      vertex 103.75 3 3
      vertex 103.75 0 1.5
    endloop
  endfacet
  facet normal -1 0 0
    outer loop
      vertex 103.75 3 3
      vertex 103.75 0 4.5
      vertex 103.75 3 4.5
    endloop
  endfacet
  facet normal -0 0 1
    outer loop
      vertex 87.25 6 1.5
      vertex 103.75 0 1.5
      vertex 103.75 6 1.5
    endloop
  endfacet
  facet normal 0 0 1
    outer loop
      vertex 103.75 0 1.5
      vertex 87.25 6 1.5
      vertex 87.25 0 1.5
    endloop
  endfacet
  facet normal 0 -1 0
    outer loop
      vertex 87.25 6 1.5
      vertex 103.75 6 3
      vertex 87.25 6 3
    endloop
  endfacet
  facet normal 0 -1 -0
    outer loop
      vertex 103.75 6 3
      vertex 87.25 6 1.5
      vertex 103.75 6 1.5
    endloop
  endfacet
endsolid OpenSCAD_Model
