solid OpenSCAD_Model
  facet normal 1 -0 0
    outer loop
      vertex 168 0 8
      vertex 168 204 0
      vertex 168 204 8
    endloop
  endfacet
  facet normal 1 0 0
    outer loop
      vertex 168 204 0
      vertex 168 0 8
      vertex 168 0 0
    endloop
  endfacet
  facet normal 1 -0 0
    outer loop
      vertex 168 294 8
      vertex 168 324 0
      vertex 168 324 8
    endloop
  endfacet
  facet normal 1 0 0
    outer loop
      vertex 168 324 0
      vertex 168 294 8
      vertex 168 294 0
    endloop
  endfacet
  facet normal 1 0 0
    outer loop
      vertex 168 291 8
      vertex 168 290.341 4.59099
      vertex 168 291 3
    endloop
  endfacet
  facet normal 1 0 0
    outer loop
      vertex 168 291 8
      vertex 168 288.75 5.25
      vertex 168 290.341 4.59099
    endloop
  endfacet
  facet normal 1 0 0
    outer loop
      vertex 168 291 8
      vertex 168 287.159 4.59099
      vertex 168 288.75 5.25
    endloop
  endfacet
  facet normal 1 -0 0
    outer loop
      vertex 168 207 8
      vertex 168 287.159 4.59099
      vertex 168 291 8
    endloop
  endfacet
  facet normal 1 0 0
    outer loop
      vertex 168 207 8
      vertex 168 286.5 3
      vertex 168 287.159 4.59099
    endloop
  endfacet
  facet normal 1 0 0
    outer loop
      vertex 168 286.5 3
      vertex 168 207 8
      vertex 168 207 3
    endloop
  endfacet
  facet normal -0 0 1
    outer loop
      vertex -30 48.5 8
      vertex 0 45.5 8
      vertex 0 48.5 8
    endloop
  endfacet
  facet normal 0 0 1
    outer loop
      vertex -30 48.5 8
      vertex -33 45.5 8
      vertex 0 45.5 8
    endloop
  endfacet
  facet normal 0 0 1
    outer loop
      vertex -33 45.5 8
      vertex -30 48.5 8
      vertex -33 116.5 8
    endloop
  endfacet
  facet normal 0 0 1
    outer loop
      vertex 0 116.5 8
      vertex -30 113.5 8
      vertex 0 113.5 8
    endloop
  endfacet
  facet normal 0 0 1
    outer loop
      vertex -30 113.5 8
      vertex -33 116.5 8
      vertex -30 48.5 8
    endloop
  endfacet
  facet normal -0 0 1
    outer loop
      vertex -33 116.5 8
      vertex -30 113.5 8
      vertex 0 116.5 8
    endloop
  endfacet
  facet normal -0 0 1
    outer loop
      vertex 163 322 8
      vertex 168 294 8
      vertex 168 324 8
    endloop
  endfacet
  facet normal 0 0 1
    outer loop
      vertex 168 294 8
      vertex 163 322 8
      vertex 168 291 8
    endloop
  endfacet
  facet normal 0 0 1
    outer loop
      vertex 168 291 8
      vertex 163 322 8
      vertex 168 207 8
    endloop
  endfacet
  facet normal 0 0 1
    outer loop
      vertex 168 207 8
      vertex 163 322 8
      vertex 168 204 8
    endloop
  endfacet
  facet normal 0 0 1
    outer loop
      vertex 163 2 8
      vertex 168 204 8
      vertex 163 322 8
    endloop
  endfacet
  facet normal 0 0 1
    outer loop
      vertex 168 324 8
      vertex 87 322 8
      vertex 163 322 8
    endloop
  endfacet
  facet normal 0 0 1
    outer loop
      vertex 87 322 8
      vertex 81 322 8
      vertex 87 2 8
    endloop
  endfacet
  facet normal 0 0 1
    outer loop
      vertex 168 324 8
      vertex 81 322 8
      vertex 87 322 8
    endloop
  endfacet
  facet normal -0 0 1
    outer loop
      vertex 0 324 8
      vertex 81 322 8
      vertex 168 324 8
    endloop
  endfacet
  facet normal 0 0 1
    outer loop
      vertex 0 116.5 8
      vertex 5 322 8
      vertex 0 324 8
    endloop
  endfacet
  facet normal 0 0 1
    outer loop
      vertex 81 322 8
      vertex 0 324 8
      vertex 5 322 8
    endloop
  endfacet
  facet normal 0 0 1
    outer loop
      vertex 228 294 8
      vertex 225 291 8
      vertex 228 204 8
    endloop
  endfacet
  facet normal -0 0 1
    outer loop
      vertex 168 294 8
      vertex 225 291 8
      vertex 228 294 8
    endloop
  endfacet
  facet normal 0 0 1
    outer loop
      vertex 225 291 8
      vertex 168 294 8
      vertex 168 291 8
    endloop
  endfacet
  facet normal -0 0 1
    outer loop
      vertex 225 207 8
      vertex 228 204 8
      vertex 225 291 8
    endloop
  endfacet
  facet normal 0 0 1
    outer loop
      vertex 168 204 8
      vertex 225 207 8
      vertex 168 207 8
    endloop
  endfacet
  facet normal 0 0 1
    outer loop
      vertex 225 207 8
      vertex 168 204 8
      vertex 228 204 8
    endloop
  endfacet
  facet normal 0 0 1
    outer loop
      vertex 168 204 8
      vertex 163 2 8
      vertex 168 0 8
    endloop
  endfacet
  facet normal -0 0 1
    outer loop
      vertex 87 2 8
      vertex 168 0 8
      vertex 163 2 8
    endloop
  endfacet
  facet normal 0 0 1
    outer loop
      vertex 81 2 8
      vertex 87 2 8
      vertex 81 322 8
    endloop
  endfacet
  facet normal -0 0 1
    outer loop
      vertex 81 2 8
      vertex 168 0 8
      vertex 87 2 8
    endloop
  endfacet
  facet normal 0 0 1
    outer loop
      vertex 0 0 8
      vertex 81 2 8
      vertex 5 2 8
    endloop
  endfacet
  facet normal 0 0 1
    outer loop
      vertex 5 322 8
      vertex 0 116.5 8
      vertex 5 2 8
    endloop
  endfacet
  facet normal -0 0 1
    outer loop
      vertex 0 113.5 8
      vertex 5 2 8
      vertex 0 116.5 8
    endloop
  endfacet
  facet normal -0 0 1
    outer loop
      vertex 0 48.5 8
      vertex 5 2 8
      vertex 0 113.5 8
    endloop
  endfacet
  facet normal -0 0 1
    outer loop
      vertex 0 45.5 8
      vertex 5 2 8
      vertex 0 48.5 8
    endloop
  endfacet
  facet normal 0 0 1
    outer loop
      vertex 81 2 8
      vertex 0 0 8
      vertex 168 0 8
    endloop
  endfacet
  facet normal 0 0 1
    outer loop
      vertex 0 0 8
      vertex 5 2 8
      vertex 0 45.5 8
    endloop
  endfacet
  facet normal 1 -0 0
    outer loop
      vertex 228 204 8
      vertex 228 294 0
      vertex 228 294 8
    endloop
  endfacet
  facet normal 1 0 0
    outer loop
      vertex 228 294 0
      vertex 228 204 8
      vertex 228 204 0
    endloop
  endfacet
  facet normal 0 1 -0
    outer loop
      vertex 228 294 0
      vertex 168 294 8
      vertex 228 294 8
    endloop
  endfacet
  facet normal 0 1 0
    outer loop
      vertex 168 294 8
      vertex 228 294 0
      vertex 168 294 0
    endloop
  endfacet
  facet normal 0 0 -1
    outer loop
      vertex 0 314 0
      vertex -2.57295 317.237 0
      vertex -2 319 0
    endloop
  endfacet
  facet normal 0 0 -1
    outer loop
      vertex -4 314.199 0
      vertex 0 314 0
      vertex -4 314 0
    endloop
  endfacet
  facet normal 0 0 -1
    outer loop
      vertex 0 314 0
      vertex -4 314.199 0
      vertex -2.57295 317.237 0
    endloop
  endfacet
  facet normal 0 0 -1
    outer loop
      vertex -4 314.199 0
      vertex -4.07295 316.147 0
      vertex -2.57295 317.237 0
    endloop
  endfacet
  facet normal 0 0 -1
    outer loop
      vertex -5 314 0
      vertex -4.07295 316.147 0
      vertex -4 314.199 0
    endloop
  endfacet
  facet normal 0 0 -1
    outer loop
      vertex -5 314 0
      vertex -5.92705 316.147 0
      vertex -4.07295 316.147 0
    endloop
  endfacet
  facet normal 0 0 -1
    outer loop
      vertex -6.91342 314.381 0
      vertex -5.92705 316.147 0
      vertex -5 314 0
    endloop
  endfacet
  facet normal 0 0 -1
    outer loop
      vertex -8.53553 315.464 0
      vertex -5.92705 316.147 0
      vertex -6.91342 314.381 0
    endloop
  endfacet
  facet normal -0 0 -1
    outer loop
      vertex -5.92705 316.147 0
      vertex -8.53553 315.464 0
      vertex -7.42705 317.237 0
    endloop
  endfacet
  facet normal 0 0 -1
    outer loop
      vertex -9.6194 317.087 0
      vertex -7.42705 317.237 0
      vertex -8.53553 315.464 0
    endloop
  endfacet
  facet normal 0 0 -1
    outer loop
      vertex -5.92705 7.85317 0
      vertex -5 10 0
      vertex -5 7.85317 0
    endloop
  endfacet
  facet normal 0 0 -1
    outer loop
      vertex -5.92705 7.85317 0
      vertex -6.91342 9.6194 0
      vertex -5 10 0
    endloop
  endfacet
  facet normal 0 0 -1
    outer loop
      vertex -8.53553 8.53553 0
      vertex -5.92705 7.85317 0
      vertex -7.42705 6.76336 0
    endloop
  endfacet
  facet normal 0 0 -1
    outer loop
      vertex -9.6194 6.91342 0
      vertex -7.42705 6.76336 0
      vertex -8 5 0
    endloop
  endfacet
  facet normal 0 0 -1
    outer loop
      vertex -5.92705 7.85317 0
      vertex -8.53553 8.53553 0
      vertex -6.91342 9.6194 0
    endloop
  endfacet
  facet normal -0 0 -1
    outer loop
      vertex -7.42705 3.23664 0
      vertex -9.6194 3.08658 0
      vertex -8 5 0
    endloop
  endfacet
  facet normal 0 0 -1
    outer loop
      vertex -10 5 0
      vertex -8 5 0
      vertex -9.6194 3.08658 0
    endloop
  endfacet
  facet normal 0 0 -1
    outer loop
      vertex -7.42705 6.76336 0
      vertex -9.6194 6.91342 0
      vertex -8.53553 8.53553 0
    endloop
  endfacet
  facet normal 0 0 -1
    outer loop
      vertex -8 5 0
      vertex -10 5 0
      vertex -9.6194 6.91342 0
    endloop
  endfacet
  facet normal 0 0 -1
    outer loop
      vertex -5.92705 321.853 0
      vertex -5 324 0
      vertex -5 321.853 0
    endloop
  endfacet
  facet normal 0 0 -1
    outer loop
      vertex -5.92705 321.853 0
      vertex -6.91342 323.619 0
      vertex -5 324 0
    endloop
  endfacet
  facet normal 0 0 -1
    outer loop
      vertex -8.53553 322.536 0
      vertex -5.92705 321.853 0
      vertex -7.42705 320.763 0
    endloop
  endfacet
  facet normal 0 0 -1
    outer loop
      vertex -9.6194 320.913 0
      vertex -7.42705 320.763 0
      vertex -8 319 0
    endloop
  endfacet
  facet normal 0 0 -1
    outer loop
      vertex -5.92705 321.853 0
      vertex -8.53553 322.536 0
      vertex -6.91342 323.619 0
    endloop
  endfacet
  facet normal -0 0 -1
    outer loop
      vertex -7.42705 317.237 0
      vertex -9.6194 317.087 0
      vertex -8 319 0
    endloop
  endfacet
  facet normal 0 0 -1
    outer loop
      vertex -10 319 0
      vertex -8 319 0
      vertex -9.6194 317.087 0
    endloop
  endfacet
  facet normal 0 0 -1
    outer loop
      vertex -7.42705 320.763 0
      vertex -9.6194 320.913 0
      vertex -8.53553 322.536 0
    endloop
  endfacet
  facet normal 0 0 -1
    outer loop
      vertex -8 319 0
      vertex -10 319 0
      vertex -9.6194 320.913 0
    endloop
  endfacet
  facet normal 0 0 -1
    outer loop
      vertex -2 172.5 0
      vertex 0 177 0
      vertex 0 172.5 0
    endloop
  endfacet
  facet normal 0 0 -1
    outer loop
      vertex -17 177 0
      vertex -2 172.5 0
      vertex -17 162 0
    endloop
  endfacet
  facet normal 0 0 -1
    outer loop
      vertex -2 172.5 0
      vertex -17 177 0
      vertex 0 177 0
    endloop
  endfacet
  facet normal 0 0 -1
    outer loop
      vertex 0 162 0
      vertex -2 166.5 0
      vertex 0 166.5 0
    endloop
  endfacet
  facet normal -0 0 -1
    outer loop
      vertex -2 166.5 0
      vertex -17 162 0
      vertex -2 172.5 0
    endloop
  endfacet
  facet normal 0 0 -1
    outer loop
      vertex -17 162 0
      vertex -2 166.5 0
      vertex 0 162 0
    endloop
  endfacet
  facet normal 0 0 -1
    outer loop
      vertex -33 45.5 0
      vertex 0 116.5 0
      vertex 0 45.5 0
    endloop
  endfacet
  facet normal -0 0 -1
    outer loop
      vertex 0 116.5 0
      vertex -33 45.5 0
      vertex -33 116.5 0
    endloop
  endfacet
  facet normal 0 0 -1
    outer loop
      vertex 122.5 3 0
      vertex 168 204 0
      vertex 168 0 0
    endloop
  endfacet
  facet normal 0 0 -1
    outer loop
      vertex 122.5 317 0
      vertex 168 204 0
      vertex 122.5 3 0
    endloop
  endfacet
  facet normal 0 0 -1
    outer loop
      vertex 168 204 0
      vertex 122.5 317 0
      vertex 168 294 0
    endloop
  endfacet
  facet normal 0 0 -1
    outer loop
      vertex 168 0 0
      vertex 117.5 3 0
      vertex 122.5 3 0
    endloop
  endfacet
  facet normal 0 0 -1
    outer loop
      vertex 117.5 3 0
      vertex 42.5 3 0
      vertex 117.5 317 0
    endloop
  endfacet
  facet normal 0 0 -1
    outer loop
      vertex 168 0 0
      vertex 42.5 3 0
      vertex 117.5 3 0
    endloop
  endfacet
  facet normal 0 0 -1
    outer loop
      vertex -4 0 0
      vertex 42.5 3 0
      vertex 168 0 0
    endloop
  endfacet
  facet normal 0 0 -1
    outer loop
      vertex 0 45.5 0
      vertex 37.5 3 0
      vertex 0 10 0
    endloop
  endfacet
  facet normal 0 0 -1
    outer loop
      vertex 37.5 3 0
      vertex -2 5 0
      vertex 0 10 0
    endloop
  endfacet
  facet normal 0 0 -1
    outer loop
      vertex 37.5 3 0
      vertex -2.57295 3.23664 0
      vertex -2 5 0
    endloop
  endfacet
  facet normal -0 0 -1
    outer loop
      vertex 42.5 3 0
      vertex -4 0 0
      vertex 37.5 3 0
    endloop
  endfacet
  facet normal -0 0 -1
    outer loop
      vertex 37.5 3 0
      vertex -4 0 0
      vertex -2.57295 3.23664 0
    endloop
  endfacet
  facet normal 0 0 -1
    outer loop
      vertex -4 0.198912 0
      vertex -2.57295 3.23664 0
      vertex -4 0 0
    endloop
  endfacet
  facet normal 0 0 -1
    outer loop
      vertex -4 0.198912 0
      vertex -4.07295 2.14683 0
      vertex -2.57295 3.23664 0
    endloop
  endfacet
  facet normal 0 0 -1
    outer loop
      vertex -5 0 0
      vertex -4.07295 2.14683 0
      vertex -4 0.198912 0
    endloop
  endfacet
  facet normal 0 0 -1
    outer loop
      vertex -5 0 0
      vertex -5.92705 2.14683 0
      vertex -4.07295 2.14683 0
    endloop
  endfacet
  facet normal 0 0 -1
    outer loop
      vertex -6.91342 0.380602 0
      vertex -5.92705 2.14683 0
      vertex -5 0 0
    endloop
  endfacet
  facet normal 0 0 -1
    outer loop
      vertex -8.53553 1.46447 0
      vertex -5.92705 2.14683 0
      vertex -6.91342 0.380602 0
    endloop
  endfacet
  facet normal -0 0 -1
    outer loop
      vertex -5.92705 2.14683 0
      vertex -8.53553 1.46447 0
      vertex -7.42705 3.23664 0
    endloop
  endfacet
  facet normal 0 0 -1
    outer loop
      vertex -9.6194 3.08658 0
      vertex -7.42705 3.23664 0
      vertex -8.53553 1.46447 0
    endloop
  endfacet
  facet normal 0 0 -1
    outer loop
      vertex 168 204 0
      vertex 228 294 0
      vertex 228 204 0
    endloop
  endfacet
  facet normal -0 0 -1
    outer loop
      vertex 228 294 0
      vertex 168 204 0
      vertex 168 294 0
    endloop
  endfacet
  facet normal 0 0 -1
    outer loop
      vertex 168 294 0
      vertex 122.5 317 0
      vertex 168 324 0
    endloop
  endfacet
  facet normal 0 0 -1
    outer loop
      vertex 117.5 317 0
      vertex 168 324 0
      vertex 122.5 317 0
    endloop
  endfacet
  facet normal 0 0 -1
    outer loop
      vertex 42.5 317 0
      vertex 117.5 317 0
      vertex 42.5 3 0
    endloop
  endfacet
  facet normal 0 0 -1
    outer loop
      vertex -2 324 0
      vertex 117.5 317 0
      vertex 42.5 317 0
    endloop
  endfacet
  facet normal 0 0 -1
    outer loop
      vertex -2 324 0
      vertex 42.5 317 0
      vertex 37.5 317 0
    endloop
  endfacet
  facet normal 0 0 -1
    outer loop
      vertex 0 116.5 0
      vertex 37.5 3 0
      vertex 0 45.5 0
    endloop
  endfacet
  facet normal 0 0 -1
    outer loop
      vertex 0 162 0
      vertex 37.5 3 0
      vertex 0 116.5 0
    endloop
  endfacet
  facet normal 0 0 -1
    outer loop
      vertex 37.5 3 0
      vertex 0 162 0
      vertex 37.5 317 0
    endloop
  endfacet
  facet normal 0 0 -1
    outer loop
      vertex 0 166.5 0
      vertex 37.5 317 0
      vertex 0 162 0
    endloop
  endfacet
  facet normal 0 0 -1
    outer loop
      vertex 0 172.5 0
      vertex 37.5 317 0
      vertex 0 166.5 0
    endloop
  endfacet
  facet normal 0 0 -1
    outer loop
      vertex 0 177 0
      vertex 37.5 317 0
      vertex 0 172.5 0
    endloop
  endfacet
  facet normal 0 0 -1
    outer loop
      vertex 0 314 0
      vertex 37.5 317 0
      vertex 0 177 0
    endloop
  endfacet
  facet normal 0 0 -1
    outer loop
      vertex -2 324 0
      vertex 0 314 0
      vertex -2 319 0
    endloop
  endfacet
  facet normal 0 0 -1
    outer loop
      vertex 0 314 0
      vertex -2 324 0
      vertex 37.5 317 0
    endloop
  endfacet
  facet normal 0 0 -1
    outer loop
      vertex 117.5 317 0
      vertex -2 324 0
      vertex 168 324 0
    endloop
  endfacet
  facet normal -0 0 -1
    outer loop
      vertex 0 10 0
      vertex -2 5 0
      vertex -2 10 0
    endloop
  endfacet
  facet normal 0 -1 0
    outer loop
      vertex 168 204 8
      vertex 220.5 204 5.25
      vertex 228 204 8
    endloop
  endfacet
  facet normal 0 -1 0
    outer loop
      vertex 168 204 8
      vertex 218.909 204 4.59099
      vertex 220.5 204 5.25
    endloop
  endfacet
  facet normal 0 -1 0
    outer loop
      vertex 168 204 8
      vertex 218.25 204 3
      vertex 218.909 204 4.59099
    endloop
  endfacet
  facet normal 0 -1 0
    outer loop
      vertex 168 204 0
      vertex 218.25 204 3
      vertex 168 204 8
    endloop
  endfacet
  facet normal 0 -1 -0
    outer loop
      vertex 218.25 204 3
      vertex 168 204 0
      vertex 218.909 204 1.40901
    endloop
  endfacet
  facet normal 0 -1 -0
    outer loop
      vertex 218.909 204 1.40901
      vertex 168 204 0
      vertex 220.5 204 0.75
    endloop
  endfacet
  facet normal 0 -1 0
    outer loop
      vertex 222.091 204 4.59099
      vertex 228 204 8
      vertex 220.5 204 5.25
    endloop
  endfacet
  facet normal 0 -1 0
    outer loop
      vertex 222.75 204 3
      vertex 228 204 8
      vertex 222.091 204 4.59099
    endloop
  endfacet
  facet normal 0 -1 0
    outer loop
      vertex 228 204 0
      vertex 222.75 204 3
      vertex 222.091 204 1.40901
    endloop
  endfacet
  facet normal 0 -1 0
    outer loop
      vertex 222.75 204 3
      vertex 228 204 0
      vertex 228 204 8
    endloop
  endfacet
  facet normal 0 -1 0
    outer loop
      vertex 220.5 204 0.75
      vertex 228 204 0
      vertex 222.091 204 1.40901
    endloop
  endfacet
  facet normal 0 -1 0
    outer loop
      vertex 228 204 0
      vertex 220.5 204 0.75
      vertex 168 204 0
    endloop
  endfacet
  facet normal -1 0 0
    outer loop
      vertex 225 207 3
      vertex 225 291 8
      vertex 225 291 3
    endloop
  endfacet
  facet normal -1 -0 0
    outer loop
      vertex 225 291 8
      vertex 225 207 3
      vertex 225 207 8
    endloop
  endfacet
  facet normal 0 -1 0
    outer loop
      vertex 171 291 3
      vertex 168 291 8
      vertex 168 291 3
    endloop
  endfacet
  facet normal 0 -1 0
    outer loop
      vertex 168 291 8
      vertex 171 291 3
      vertex 225 291 8
    endloop
  endfacet
  facet normal 0 -1 -0
    outer loop
      vertex 225 291 8
      vertex 171 291 3
      vertex 225 291 3
    endloop
  endfacet
  facet normal 0 0 1
    outer loop
      vertex 225 291 3
      vertex 222.75 210 3
      vertex 225 207 3
    endloop
  endfacet
  facet normal 0 0 1
    outer loop
      vertex 225 291 3
      vertex 222.091 210 3
      vertex 222.75 210 3
    endloop
  endfacet
  facet normal 0 0 1
    outer loop
      vertex 225 291 3
      vertex 220.5 210 3
      vertex 222.091 210 3
    endloop
  endfacet
  facet normal 0 0 1
    outer loop
      vertex 225 291 3
      vertex 218.25 210 3
      vertex 220.5 210 3
    endloop
  endfacet
  facet normal 0 0 1
    outer loop
      vertex 171 288.75 3
      vertex 225 291 3
      vertex 171 291 3
    endloop
  endfacet
  facet normal 0 0 1
    outer loop
      vertex 171 287.159 3
      vertex 225 291 3
      vertex 171 288.75 3
    endloop
  endfacet
  facet normal 0 0 1
    outer loop
      vertex 171 286.5 3
      vertex 225 291 3
      vertex 171 287.159 3
    endloop
  endfacet
  facet normal 0 0 1
    outer loop
      vertex 225 291 3
      vertex 171 286.5 3
      vertex 218.25 210 3
    endloop
  endfacet
  facet normal 0 0 1
    outer loop
      vertex 168 207 3
      vertex 218.25 210 3
      vertex 171 286.5 3
    endloop
  endfacet
  facet normal 0 0 1
    outer loop
      vertex 168 207 3
      vertex 171 286.5 3
      vertex 168 286.5 3
    endloop
  endfacet
  facet normal 0 0 1
    outer loop
      vertex 218.25 210 3
      vertex 168 207 3
      vertex 218.25 207 3
    endloop
  endfacet
  facet normal 0 0 1
    outer loop
      vertex 225 207 3
      vertex 222.75 210 3
      vertex 222.75 207 3
    endloop
  endfacet
  facet normal 0 1 0
    outer loop
      vertex 218.909 207 4.59099
      vertex 225 207 8
      vertex 220.5 207 5.25
    endloop
  endfacet
  facet normal 0 1 0
    outer loop
      vertex 225 207 8
      vertex 222.091 207 4.59099
      vertex 220.5 207 5.25
    endloop
  endfacet
  facet normal 0 1 -0
    outer loop
      vertex 225 207 3
      vertex 222.091 207 4.59099
      vertex 225 207 8
    endloop
  endfacet
  facet normal 0 1 0
    outer loop
      vertex 222.091 207 4.59099
      vertex 225 207 3
      vertex 222.75 207 3
    endloop
  endfacet
  facet normal 0 1 0
    outer loop
      vertex 225 207 8
      vertex 218.909 207 4.59099
      vertex 168 207 8
    endloop
  endfacet
  facet normal 0 1 -0
    outer loop
      vertex 218.25 207 3
      vertex 168 207 8
      vertex 218.909 207 4.59099
    endloop
  endfacet
  facet normal 0 1 0
    outer loop
      vertex 168 207 8
      vertex 218.25 207 3
      vertex 168 207 3
    endloop
  endfacet
  facet normal -1 -0 -0
    outer loop
      vertex 171 287.159 3
      vertex 171 287.159 1.40901
      vertex 171 286.5 3
    endloop
  endfacet
  facet normal -1 -0 0
    outer loop
      vertex 171 288.75 3
      vertex 171 287.159 1.40901
      vertex 171 287.159 3
    endloop
  endfacet
  facet normal 0 -0.923882 0.382677
    outer loop
      vertex 162 290.341 1.40901
      vertex 165 291 3
      vertex 162 291 3
    endloop
  endfacet
  facet normal 0 -0.923882 0.382677
    outer loop
      vertex 165 291 3
      vertex 162 290.341 1.40901
      vertex 168 291 3
    endloop
  endfacet
  facet normal 0 -0.923882 0.382677
    outer loop
      vertex 171 290.341 1.40901
      vertex 168 291 3
      vertex 162 290.341 1.40901
    endloop
  endfacet
  facet normal 0 -0.923882 0.382677
    outer loop
      vertex 168 291 3
      vertex 171 290.341 1.40901
      vertex 171 291 3
    endloop
  endfacet
  facet normal -0 0.38268 0.923881
    outer loop
      vertex 162 288.75 0.75
      vertex 171 287.159 1.40901
      vertex 171 288.75 0.75
    endloop
  endfacet
  facet normal 0 0.38268 0.923881
    outer loop
      vertex 171 287.159 1.40901
      vertex 162 288.75 0.75
      vertex 162 287.159 1.40901
    endloop
  endfacet
  facet normal 0 0.923882 0.382677
    outer loop
      vertex 171 287.159 1.40901
      vertex 168 286.5 3
      vertex 171 286.5 3
    endloop
  endfacet
  facet normal 0 0.923882 0.382677
    outer loop
      vertex 168 286.5 3
      vertex 171 287.159 1.40901
      vertex 165 286.5 3
    endloop
  endfacet
  facet normal -0 0.923882 0.382677
    outer loop
      vertex 162 287.159 1.40901
      vertex 165 286.5 3
      vertex 171 287.159 1.40901
    endloop
  endfacet
  facet normal 0 0.923882 0.382677
    outer loop
      vertex 165 286.5 3
      vertex 162 287.159 1.40901
      vertex 162 286.5 3
    endloop
  endfacet
  facet normal 0 -0.38268 0.923881
    outer loop
      vertex 162 290.341 1.40901
      vertex 171 288.75 0.75
      vertex 171 290.341 1.40901
    endloop
  endfacet
  facet normal 0 -0.38268 0.923881
    outer loop
      vertex 171 288.75 0.75
      vertex 162 290.341 1.40901
      vertex 162 288.75 0.75
    endloop
  endfacet
  facet normal -1 0 0
    outer loop
      vertex 171 288.75 3
      vertex 171 290.341 1.40901
      vertex 171 288.75 0.75
    endloop
  endfacet
  facet normal -1 0 0
    outer loop
      vertex 171 290.341 1.40901
      vertex 171 288.75 3
      vertex 171 291 3
    endloop
  endfacet
  facet normal -1 0 -0
    outer loop
      vertex 171 288.75 3
      vertex 171 288.75 0.75
      vertex 171 287.159 1.40901
    endloop
  endfacet
  facet normal 0.382683 0 0.92388
    outer loop
      vertex 218.909 210 1.40901
      vertex 220.5 204 0.75
      vertex 220.5 210 0.75
    endloop
  endfacet
  facet normal 0.382683 0 0.92388
    outer loop
      vertex 220.5 204 0.75
      vertex 218.909 210 1.40901
      vertex 218.909 204 1.40901
    endloop
  endfacet
  facet normal -0.923879 0 -0.382685
    outer loop
      vertex 222.75 204 3
      vertex 222.091 207 4.59099
      vertex 222.75 207 3
    endloop
  endfacet
  facet normal -0.923879 -0 -0.382685
    outer loop
      vertex 222.091 207 4.59099
      vertex 222.75 204 3
      vertex 222.091 204 4.59099
    endloop
  endfacet
  facet normal 0.382684 0 -0.923879
    outer loop
      vertex 218.909 204 4.59099
      vertex 220.5 207 5.25
      vertex 220.5 204 5.25
    endloop
  endfacet
  facet normal 0.382684 0 -0.923879
    outer loop
      vertex 220.5 207 5.25
      vertex 218.909 204 4.59099
      vertex 218.909 207 4.59099
    endloop
  endfacet
  facet normal 0.923879 -0 0.382684
    outer loop
      vertex 218.25 207 3
      vertex 218.909 210 1.40901
      vertex 218.25 210 3
    endloop
  endfacet
  facet normal 0.923879 0 0.382684
    outer loop
      vertex 218.909 204 1.40901
      vertex 218.25 207 3
      vertex 218.25 204 3
    endloop
  endfacet
  facet normal 0.923879 0 0.382684
    outer loop
      vertex 218.25 207 3
      vertex 218.909 204 1.40901
      vertex 218.909 210 1.40901
    endloop
  endfacet
  facet normal -0.382683 0 0.92388
    outer loop
      vertex 220.5 210 0.75
      vertex 222.091 204 1.40901
      vertex 222.091 210 1.40901
    endloop
  endfacet
  facet normal -0.382683 0 0.92388
    outer loop
      vertex 222.091 204 1.40901
      vertex 220.5 210 0.75
      vertex 220.5 204 0.75
    endloop
  endfacet
  facet normal -0.923879 0 0.382684
    outer loop
      vertex 222.091 210 1.40901
      vertex 222.75 207 3
      vertex 222.75 210 3
    endloop
  endfacet
  facet normal -0.923879 0 0.382684
    outer loop
      vertex 222.091 204 1.40901
      vertex 222.75 207 3
      vertex 222.091 210 1.40901
    endloop
  endfacet
  facet normal -0.923879 0 0.382684
    outer loop
      vertex 222.75 207 3
      vertex 222.091 204 1.40901
      vertex 222.75 204 3
    endloop
  endfacet
  facet normal 0.923879 0 -0.382685
    outer loop
      vertex 218.909 204 4.59099
      vertex 218.25 207 3
      vertex 218.909 207 4.59099
    endloop
  endfacet
  facet normal 0.923879 0 -0.382685
    outer loop
      vertex 218.25 207 3
      vertex 218.909 204 4.59099
      vertex 218.25 204 3
    endloop
  endfacet
  facet normal 0 -1 0
    outer loop
      vertex 218.909 210 1.40901
      vertex 220.5 210 3
      vertex 218.25 210 3
    endloop
  endfacet
  facet normal 0 -1 0
    outer loop
      vertex 220.5 210 0.75
      vertex 220.5 210 3
      vertex 218.909 210 1.40901
    endloop
  endfacet
  facet normal 0 -1 0
    outer loop
      vertex 220.5 210 3
      vertex 220.5 210 0.75
      vertex 222.091 210 1.40901
    endloop
  endfacet
  facet normal 0 -1 0
    outer loop
      vertex 222.091 210 1.40901
      vertex 222.75 210 3
      vertex 222.091 210 3
    endloop
  endfacet
  facet normal -0.382684 0 -0.923879
    outer loop
      vertex 220.5 204 5.25
      vertex 222.091 207 4.59099
      vertex 222.091 204 4.59099
    endloop
  endfacet
  facet normal -0.382684 0 -0.923879
    outer loop
      vertex 222.091 207 4.59099
      vertex 220.5 204 5.25
      vertex 220.5 207 5.25
    endloop
  endfacet
  facet normal 0 -1 0
    outer loop
      vertex 222.091 210 1.40901
      vertex 222.091 210 3
      vertex 220.5 210 3
    endloop
  endfacet
  facet normal -1 0 0
    outer loop
      vertex -33 45.5 0
      vertex -33 116.5 8
      vertex -33 116.5 0
    endloop
  endfacet
  facet normal -1 -0 0
    outer loop
      vertex -33 116.5 8
      vertex -33 45.5 0
      vertex -33 45.5 8
    endloop
  endfacet
  facet normal -1 0 0
    outer loop
      vertex 0 10 3
      vertex 0 45.5 0
      vertex 0 10 0
    endloop
  endfacet
  facet normal -1 0 0
    outer loop
      vertex 0 45.5 0
      vertex 0 10 3
      vertex 0 45.5 8
    endloop
  endfacet
  facet normal -1 0 0
    outer loop
      vertex 0 0 8
      vertex 0 10 3
      vertex 0 0 3
    endloop
  endfacet
  facet normal -1 0 0
    outer loop
      vertex 0 10 3
      vertex 0 0 8
      vertex 0 45.5 8
    endloop
  endfacet
  facet normal -1 0 0
    outer loop
      vertex 0 162 0
      vertex 0 116.5 0
      vertex 0 162 6
    endloop
  endfacet
  facet normal -1 0 0
    outer loop
      vertex 0 172.5 0
      vertex 0 166.5 0
      vertex 0 172.5 3
    endloop
  endfacet
  facet normal -1 0 0
    outer loop
      vertex 0 174 3
      vertex 0 172.5 3
      vertex 0 174 6
    endloop
  endfacet
  facet normal -1 0 0
    outer loop
      vertex 0 314 0
      vertex 0 177 0
      vertex 0 314 3
    endloop
  endfacet
  facet normal -1 0 0
    outer loop
      vertex 0 314 3
      vertex 0 324 8
      vertex 0 324 3
    endloop
  endfacet
  facet normal -1 0 0
    outer loop
      vertex 0 177 6
      vertex 0 314 3
      vertex 0 177 0
    endloop
  endfacet
  facet normal -1 0 0
    outer loop
      vertex 0 314 3
      vertex 0 177 6
      vertex 0 324 8
    endloop
  endfacet
  facet normal -1 0 0
    outer loop
      vertex 0 116.5 8
      vertex 0 177 6
      vertex 0 174 6
    endloop
  endfacet
  facet normal -1 0 0
    outer loop
      vertex 0 166.5 3
      vertex 0 172.5 3
      vertex 0 166.5 0
    endloop
  endfacet
  facet normal -1 0 0
    outer loop
      vertex 0 172.5 3
      vertex 0 166.5 3
      vertex 0 174 6
    endloop
  endfacet
  facet normal -1 0 0
    outer loop
      vertex 0 165 6
      vertex 0 166.5 3
      vertex 0 165 3
    endloop
  endfacet
  facet normal -1 0 0
    outer loop
      vertex 0 166.5 3
      vertex 0 165 6
      vertex 0 174 6
    endloop
  endfacet
  facet normal -1 0 0
    outer loop
      vertex 0 116.5 8
      vertex 0 174 6
      vertex 0 165 6
    endloop
  endfacet
  facet normal -1 0 0
    outer loop
      vertex 0 116.5 8
      vertex 0 165 6
      vertex 0 162 6
    endloop
  endfacet
  facet normal -1 0 0
    outer loop
      vertex 0 177 6
      vertex 0 116.5 8
      vertex 0 324 8
    endloop
  endfacet
  facet normal -1 0 0
    outer loop
      vertex 0 116.5 8
      vertex 0 162 6
      vertex 0 116.5 0
    endloop
  endfacet
  facet normal -1 0 0
    outer loop
      vertex 0 48.5 3
      vertex 0 113.5 8
      vertex 0 113.5 3
    endloop
  endfacet
  facet normal -1 -0 0
    outer loop
      vertex 0 113.5 8
      vertex 0 48.5 3
      vertex 0 48.5 8
    endloop
  endfacet
  facet normal 0 1 0
    outer loop
      vertex -24 116.5 5
      vertex 0 116.5 8
      vertex -7 116.5 5
    endloop
  endfacet
  facet normal 0 1 0
    outer loop
      vertex 0 116.5 8
      vertex -7 116.5 3
      vertex -7 116.5 5
    endloop
  endfacet
  facet normal 0 1 0
    outer loop
      vertex -7 116.5 3
      vertex 0 116.5 0
      vertex -24 116.5 3
    endloop
  endfacet
  facet normal 0 1 -0
    outer loop
      vertex 0 116.5 0
      vertex -7 116.5 3
      vertex 0 116.5 8
    endloop
  endfacet
  facet normal 0 1 0
    outer loop
      vertex 0 116.5 8
      vertex -24 116.5 5
      vertex -33 116.5 8
    endloop
  endfacet
  facet normal 0 1 -0
    outer loop
      vertex -24 116.5 3
      vertex -33 116.5 8
      vertex -24 116.5 5
    endloop
  endfacet
  facet normal 0 1 0
    outer loop
      vertex -24 116.5 3
      vertex -33 116.5 0
      vertex -33 116.5 8
    endloop
  endfacet
  facet normal 0 1 0
    outer loop
      vertex -33 116.5 0
      vertex -24 116.5 3
      vertex 0 116.5 0
    endloop
  endfacet
  facet normal 0 -1 0
    outer loop
      vertex -33 45.5 8
      vertex -16.5 45.5 5.25
      vertex 0 45.5 8
    endloop
  endfacet
  facet normal 0 -1 0
    outer loop
      vertex -33 45.5 8
      vertex -18.091 45.5 4.59099
      vertex -16.5 45.5 5.25
    endloop
  endfacet
  facet normal 0 -1 0
    outer loop
      vertex -33 45.5 8
      vertex -18.75 45.5 3
      vertex -18.091 45.5 4.59099
    endloop
  endfacet
  facet normal 0 -1 0
    outer loop
      vertex -33 45.5 0
      vertex -18.75 45.5 3
      vertex -33 45.5 8
    endloop
  endfacet
  facet normal 0 -1 -0
    outer loop
      vertex -18.091 45.5 1.40901
      vertex -33 45.5 0
      vertex -16.5 45.5 0.75
    endloop
  endfacet
  facet normal 0 -1 -0
    outer loop
      vertex -18.75 45.5 3
      vertex -33 45.5 0
      vertex -18.091 45.5 1.40901
    endloop
  endfacet
  facet normal 0 -1 0
    outer loop
      vertex -14.909 45.5 4.59099
      vertex 0 45.5 8
      vertex -16.5 45.5 5.25
    endloop
  endfacet
  facet normal 0 -1 0
    outer loop
      vertex -14.25 45.5 3
      vertex 0 45.5 8
      vertex -14.909 45.5 4.59099
    endloop
  endfacet
  facet normal 0 -1 0
    outer loop
      vertex 0 45.5 0
      vertex -14.25 45.5 3
      vertex -14.909 45.5 1.40901
    endloop
  endfacet
  facet normal 0 -1 0
    outer loop
      vertex -14.25 45.5 3
      vertex 0 45.5 0
      vertex 0 45.5 8
    endloop
  endfacet
  facet normal 0 -1 0
    outer loop
      vertex -16.5 45.5 0.75
      vertex 0 45.5 0
      vertex -14.909 45.5 1.40901
    endloop
  endfacet
  facet normal 0 -1 0
    outer loop
      vertex 0 45.5 0
      vertex -16.5 45.5 0.75
      vertex -33 45.5 0
    endloop
  endfacet
  facet normal 1 -0 0
    outer loop
      vertex -30 48.5 8
      vertex -30 113.5 3
      vertex -30 113.5 8
    endloop
  endfacet
  facet normal 1 0 0
    outer loop
      vertex -30 113.5 3
      vertex -30 48.5 8
      vertex -30 48.5 3
    endloop
  endfacet
  facet normal 0 -1 0
    outer loop
      vertex -7 113.5 5
      vertex -30 113.5 8
      vertex -24 113.5 5
    endloop
  endfacet
  facet normal 0 -1 0
    outer loop
      vertex -30 113.5 3
      vertex -24 113.5 5
      vertex -30 113.5 8
    endloop
  endfacet
  facet normal 0 -1 -0
    outer loop
      vertex -24 113.5 5
      vertex -30 113.5 3
      vertex -24 113.5 3
    endloop
  endfacet
  facet normal 0 -1 0
    outer loop
      vertex -30 113.5 8
      vertex -7 113.5 5
      vertex 0 113.5 8
    endloop
  endfacet
  facet normal 0 -1 0
    outer loop
      vertex 0 113.5 3
      vertex -7 113.5 5
      vertex -7 113.5 3
    endloop
  endfacet
  facet normal 0 -1 0
    outer loop
      vertex -7 113.5 5
      vertex 0 113.5 3
      vertex 0 113.5 8
    endloop
  endfacet
  facet normal 0 0 1
    outer loop
      vertex -24 113.5 3
      vertex -7 113.5 3
      vertex -7 116.5 3
    endloop
  endfacet
  facet normal 0 -0 1
    outer loop
      vertex -14.909 51.5 3
      vertex -7 113.5 3
      vertex -24 113.5 3
    endloop
  endfacet
  facet normal 0 0 1
    outer loop
      vertex -7 113.5 3
      vertex -14.909 51.5 3
      vertex -14.25 51.5 3
    endloop
  endfacet
  facet normal 0 0 1
    outer loop
      vertex -14.909 51.5 3
      vertex -24 113.5 3
      vertex -16.5 51.5 3
    endloop
  endfacet
  facet normal 0 0 1
    outer loop
      vertex -24 113.5 3
      vertex -7 116.5 3
      vertex -24 116.5 3
    endloop
  endfacet
  facet normal 0 0 1
    outer loop
      vertex -16.5 51.5 3
      vertex -24 113.5 3
      vertex -18.75 51.5 3
    endloop
  endfacet
  facet normal -0 0 1
    outer loop
      vertex -30 113.5 3
      vertex -18.75 51.5 3
      vertex -24 113.5 3
    endloop
  endfacet
  facet normal 0 0 1
    outer loop
      vertex -18.75 51.5 3
      vertex -30 113.5 3
      vertex -30 48.5 3
    endloop
  endfacet
  facet normal 0 0 1
    outer loop
      vertex -18.75 51.5 3
      vertex -30 48.5 3
      vertex -18.75 48.5 3
    endloop
  endfacet
  facet normal 0 0 1
    outer loop
      vertex -14.25 51.5 3
      vertex 0 113.5 3
      vertex -7 113.5 3
    endloop
  endfacet
  facet normal 0 0 1
    outer loop
      vertex 0 113.5 3
      vertex -14.25 51.5 3
      vertex 0 48.5 3
    endloop
  endfacet
  facet normal 0 0 1
    outer loop
      vertex 0 48.5 3
      vertex -14.25 51.5 3
      vertex -14.25 48.5 3
    endloop
  endfacet
  facet normal 0 1 0
    outer loop
      vertex 0 48.5 8
      vertex -16.5 48.5 5.25
      vertex -30 48.5 8
    endloop
  endfacet
  facet normal 0 1 0
    outer loop
      vertex 0 48.5 8
      vertex -14.909 48.5 4.59099
      vertex -16.5 48.5 5.25
    endloop
  endfacet
  facet normal 0 1 0
    outer loop
      vertex -14.25 48.5 3
      vertex 0 48.5 8
      vertex 0 48.5 3
    endloop
  endfacet
  facet normal 0 1 0
    outer loop
      vertex 0 48.5 8
      vertex -14.25 48.5 3
      vertex -14.909 48.5 4.59099
    endloop
  endfacet
  facet normal 0 1 -0
    outer loop
      vertex -18.091 48.5 4.59099
      vertex -30 48.5 8
      vertex -16.5 48.5 5.25
    endloop
  endfacet
  facet normal 0 1 -0
    outer loop
      vertex -18.75 48.5 3
      vertex -30 48.5 8
      vertex -18.091 48.5 4.59099
    endloop
  endfacet
  facet normal 0 1 0
    outer loop
      vertex -30 48.5 8
      vertex -18.75 48.5 3
      vertex -30 48.5 3
    endloop
  endfacet
  facet normal 1 -0 0
    outer loop
      vertex -24 113.5 5
      vertex -24 116.5 3
      vertex -24 116.5 5
    endloop
  endfacet
  facet normal 1 0 0
    outer loop
      vertex -24 116.5 3
      vertex -24 113.5 5
      vertex -24 113.5 3
    endloop
  endfacet
  facet normal 0 0 -1
    outer loop
      vertex -24 113.5 5
      vertex -7 116.5 5
      vertex -7 113.5 5
    endloop
  endfacet
  facet normal -0 0 -1
    outer loop
      vertex -7 116.5 5
      vertex -24 113.5 5
      vertex -24 116.5 5
    endloop
  endfacet
  facet normal -1 0 0
    outer loop
      vertex -7 113.5 3
      vertex -7 116.5 5
      vertex -7 116.5 3
    endloop
  endfacet
  facet normal -1 -0 0
    outer loop
      vertex -7 116.5 5
      vertex -7 113.5 3
      vertex -7 113.5 5
    endloop
  endfacet
  facet normal 0.382683 0 0.92388
    outer loop
      vertex -18.091 51.5 1.40901
      vertex -16.5 45.5 0.75
      vertex -16.5 51.5 0.75
    endloop
  endfacet
  facet normal 0.382683 0 0.92388
    outer loop
      vertex -16.5 45.5 0.75
      vertex -18.091 51.5 1.40901
      vertex -18.091 45.5 1.40901
    endloop
  endfacet
  facet normal -0.923879 0 -0.382684
    outer loop
      vertex -14.25 45.5 3
      vertex -14.909 48.5 4.59099
      vertex -14.25 48.5 3
    endloop
  endfacet
  facet normal -0.923879 -0 -0.382684
    outer loop
      vertex -14.909 48.5 4.59099
      vertex -14.25 45.5 3
      vertex -14.909 45.5 4.59099
    endloop
  endfacet
  facet normal 0.382683 0 -0.92388
    outer loop
      vertex -18.091 45.5 4.59099
      vertex -16.5 48.5 5.25
      vertex -16.5 45.5 5.25
    endloop
  endfacet
  facet normal 0.382683 0 -0.92388
    outer loop
      vertex -16.5 48.5 5.25
      vertex -18.091 45.5 4.59099
      vertex -18.091 48.5 4.59099
    endloop
  endfacet
  facet normal 0.92388 -0 0.382682
    outer loop
      vertex -18.75 48.5 3
      vertex -18.091 51.5 1.40901
      vertex -18.75 51.5 3
    endloop
  endfacet
  facet normal 0.92388 0 0.382682
    outer loop
      vertex -18.091 45.5 1.40901
      vertex -18.75 48.5 3
      vertex -18.75 45.5 3
    endloop
  endfacet
  facet normal 0.92388 0 0.382682
    outer loop
      vertex -18.75 48.5 3
      vertex -18.091 45.5 1.40901
      vertex -18.091 51.5 1.40901
    endloop
  endfacet
  facet normal -0.382683 0 0.92388
    outer loop
      vertex -16.5 51.5 0.75
      vertex -14.909 45.5 1.40901
      vertex -14.909 51.5 1.40901
    endloop
  endfacet
  facet normal -0.382683 0 0.92388
    outer loop
      vertex -14.909 45.5 1.40901
      vertex -16.5 51.5 0.75
      vertex -16.5 45.5 0.75
    endloop
  endfacet
  facet normal -0.92388 0 0.382683
    outer loop
      vertex -14.909 51.5 1.40901
      vertex -14.25 48.5 3
      vertex -14.25 51.5 3
    endloop
  endfacet
  facet normal -0.92388 0 0.382683
    outer loop
      vertex -14.909 45.5 1.40901
      vertex -14.25 48.5 3
      vertex -14.909 51.5 1.40901
    endloop
  endfacet
  facet normal -0.92388 0 0.382683
    outer loop
      vertex -14.25 48.5 3
      vertex -14.909 45.5 1.40901
      vertex -14.25 45.5 3
    endloop
  endfacet
  facet normal 0.92388 0 -0.382683
    outer loop
      vertex -18.091 45.5 4.59099
      vertex -18.75 48.5 3
      vertex -18.091 48.5 4.59099
    endloop
  endfacet
  facet normal 0.92388 0 -0.382683
    outer loop
      vertex -18.75 48.5 3
      vertex -18.091 45.5 4.59099
      vertex -18.75 45.5 3
    endloop
  endfacet
  facet normal 0 -1 0
    outer loop
      vertex -18.091 51.5 1.40901
      vertex -16.5 51.5 3
      vertex -18.75 51.5 3
    endloop
  endfacet
  facet normal 0 -1 0
    outer loop
      vertex -16.5 51.5 0.75
      vertex -16.5 51.5 3
      vertex -18.091 51.5 1.40901
    endloop
  endfacet
  facet normal 0 -1 0
    outer loop
      vertex -16.5 51.5 3
      vertex -16.5 51.5 0.75
      vertex -14.909 51.5 1.40901
    endloop
  endfacet
  facet normal 0 -1 0
    outer loop
      vertex -14.909 51.5 1.40901
      vertex -14.25 51.5 3
      vertex -14.909 51.5 3
    endloop
  endfacet
  facet normal -0.382684 0 -0.923879
    outer loop
      vertex -16.5 45.5 5.25
      vertex -14.909 48.5 4.59099
      vertex -14.909 45.5 4.59099
    endloop
  endfacet
  facet normal -0.382684 0 -0.923879
    outer loop
      vertex -14.909 48.5 4.59099
      vertex -16.5 45.5 5.25
      vertex -16.5 48.5 5.25
    endloop
  endfacet
  facet normal 0 -1 0
    outer loop
      vertex -14.909 51.5 1.40901
      vertex -14.909 51.5 3
      vertex -16.5 51.5 3
    endloop
  endfacet
  facet normal -1 0 0
    outer loop
      vertex -4 0 0
      vertex -4 0.198912 3
      vertex -4 0.198912 0
    endloop
  endfacet
  facet normal -1 -0 0
    outer loop
      vertex -4 0.198912 3
      vertex -4 0 0
      vertex -4 0 3
    endloop
  endfacet
  facet normal 0 0 1
    outer loop
      vertex -5 10 3
      vertex -5.92705 7.85317 3
      vertex -5 7.85317 3
    endloop
  endfacet
  facet normal -0 0 1
    outer loop
      vertex -6.91342 9.6194 3
      vertex -5.92705 7.85317 3
      vertex -5 10 3
    endloop
  endfacet
  facet normal -0 0 1
    outer loop
      vertex -8.53553 8.53553 3
      vertex -5.92705 7.85317 3
      vertex -6.91342 9.6194 3
    endloop
  endfacet
  facet normal 0 0 1
    outer loop
      vertex -5.92705 7.85317 3
      vertex -8.53553 8.53553 3
      vertex -7.42705 6.76336 3
    endloop
  endfacet
  facet normal -0 0 1
    outer loop
      vertex -9.6194 6.91342 3
      vertex -7.42705 6.76336 3
      vertex -8.53553 8.53553 3
    endloop
  endfacet
  facet normal -0 0 1
    outer loop
      vertex -4.07295 2.14683 3
      vertex -4 0.198912 3
      vertex -2.57295 3.23664 3
    endloop
  endfacet
  facet normal 0 0 1
    outer loop
      vertex -4.07295 2.14683 3
      vertex -5 0 3
      vertex -4 0.198912 3
    endloop
  endfacet
  facet normal -0 0 1
    outer loop
      vertex -5.92705 2.14683 3
      vertex -5 0 3
      vertex -4.07295 2.14683 3
    endloop
  endfacet
  facet normal 0 0 1
    outer loop
      vertex -5.92705 2.14683 3
      vertex -6.91342 0.380602 3
      vertex -5 0 3
    endloop
  endfacet
  facet normal 0 0 1
    outer loop
      vertex -8.53553 1.46447 3
      vertex -5.92705 2.14683 3
      vertex -7.42705 3.23664 3
    endloop
  endfacet
  facet normal 0 0 1
    outer loop
      vertex -9.6194 3.08658 3
      vertex -7.42705 3.23664 3
      vertex -8 5 3
    endloop
  endfacet
  facet normal 0 0 1
    outer loop
      vertex -5.92705 2.14683 3
      vertex -8.53553 1.46447 3
      vertex -6.91342 0.380602 3
    endloop
  endfacet
  facet normal 0 0 1
    outer loop
      vertex -7.42705 6.76336 3
      vertex -9.6194 6.91342 3
      vertex -8 5 3
    endloop
  endfacet
  facet normal 0 0 1
    outer loop
      vertex -10 5 3
      vertex -8 5 3
      vertex -9.6194 6.91342 3
    endloop
  endfacet
  facet normal 0 0 1
    outer loop
      vertex -7.42705 3.23664 3
      vertex -9.6194 3.08658 3
      vertex -8.53553 1.46447 3
    endloop
  endfacet
  facet normal 0 0 1
    outer loop
      vertex -8 5 3
      vertex -10 5 3
      vertex -9.6194 3.08658 3
    endloop
  endfacet
  facet normal 0 0 1
    outer loop
      vertex -2 5 3
      vertex 0 10 3
      vertex -2 10 3
    endloop
  endfacet
  facet normal 0 0 1
    outer loop
      vertex 0 10 3
      vertex -2 5 3
      vertex 0 0 3
    endloop
  endfacet
  facet normal -0 0 1
    outer loop
      vertex -2.57295 3.23664 3
      vertex 0 0 3
      vertex -2 5 3
    endloop
  endfacet
  facet normal -0 0 1
    outer loop
      vertex -4 0.198912 3
      vertex 0 0 3
      vertex -2.57295 3.23664 3
    endloop
  endfacet
  facet normal 0 0 1
    outer loop
      vertex 0 0 3
      vertex -4 0.198912 3
      vertex -4 0 3
    endloop
  endfacet
  facet normal 0 1 -0
    outer loop
      vertex 0 10 0
      vertex -2 10 3
      vertex 0 10 3
    endloop
  endfacet
  facet normal 0 1 0
    outer loop
      vertex -2 10 3
      vertex 0 10 0
      vertex -2 10 0
    endloop
  endfacet
  facet normal 0 -1 0
    outer loop
      vertex -4 0 3
      vertex -4 0 0
      vertex 0 0 3
    endloop
  endfacet
  facet normal 0 -1 0
    outer loop
      vertex 0 0 3
      vertex 168 0 8
      vertex 0 0 8
    endloop
  endfacet
  facet normal 0 -1 0
    outer loop
      vertex 168 0 0
      vertex 0 0 3
      vertex -4 0 0
    endloop
  endfacet
  facet normal 0 -1 0
    outer loop
      vertex 0 0 3
      vertex 168 0 0
      vertex 168 0 8
    endloop
  endfacet
  facet normal -0.980785 0.195091 0
    outer loop
      vertex -10 5 0
      vertex -9.6194 6.91342 3
      vertex -9.6194 6.91342 0
    endloop
  endfacet
  facet normal -0.980785 0.195091 0
    outer loop
      vertex -9.6194 6.91342 3
      vertex -10 5 0
      vertex -10 5 3
    endloop
  endfacet
  facet normal 0.19509 -0.980785 0
    outer loop
      vertex -5 0 0
      vertex -4 0.198912 3
      vertex -5 0 3
    endloop
  endfacet
  facet normal 0.19509 -0.980785 0
    outer loop
      vertex -4 0.198912 3
      vertex -5 0 0
      vertex -4 0.198912 0
    endloop
  endfacet
  facet normal -0.55557 0.83147 0
    outer loop
      vertex -6.91342 9.6194 0
      vertex -8.53553 8.53553 3
      vertex -6.91342 9.6194 3
    endloop
  endfacet
  facet normal -0.55557 0.83147 0
    outer loop
      vertex -8.53553 8.53553 3
      vertex -6.91342 9.6194 0
      vertex -8.53553 8.53553 0
    endloop
  endfacet
  facet normal -0.83147 0.55557 0
    outer loop
      vertex -9.6194 6.91342 0
      vertex -8.53553 8.53553 3
      vertex -8.53553 8.53553 0
    endloop
  endfacet
  facet normal -0.83147 0.55557 0
    outer loop
      vertex -8.53553 8.53553 3
      vertex -9.6194 6.91342 0
      vertex -9.6194 6.91342 3
    endloop
  endfacet
  facet normal -0.195091 0.980785 0
    outer loop
      vertex -5 10 0
      vertex -6.91342 9.6194 3
      vertex -5 10 3
    endloop
  endfacet
  facet normal -0.195091 0.980785 0
    outer loop
      vertex -6.91342 9.6194 3
      vertex -5 10 0
      vertex -6.91342 9.6194 0
    endloop
  endfacet
  facet normal -0.980785 -0.195091 0
    outer loop
      vertex -9.6194 3.08658 0
      vertex -10 5 3
      vertex -10 5 0
    endloop
  endfacet
  facet normal -0.980785 -0.195091 0
    outer loop
      vertex -10 5 3
      vertex -9.6194 3.08658 0
      vertex -9.6194 3.08658 3
    endloop
  endfacet
  facet normal -0.55557 -0.83147 0
    outer loop
      vertex -8.53553 1.46447 0
      vertex -6.91342 0.380602 3
      vertex -8.53553 1.46447 3
    endloop
  endfacet
  facet normal -0.55557 -0.83147 -0
    outer loop
      vertex -6.91342 0.380602 3
      vertex -8.53553 1.46447 0
      vertex -6.91342 0.380602 0
    endloop
  endfacet
  facet normal -0.83147 -0.55557 0
    outer loop
      vertex -8.53553 1.46447 0
      vertex -9.6194 3.08658 3
      vertex -9.6194 3.08658 0
    endloop
  endfacet
  facet normal -0.83147 -0.55557 0
    outer loop
      vertex -9.6194 3.08658 3
      vertex -8.53553 1.46447 0
      vertex -8.53553 1.46447 3
    endloop
  endfacet
  facet normal -0.19509 -0.980785 0
    outer loop
      vertex -6.91342 0.380602 0
      vertex -5 0 3
      vertex -6.91342 0.380602 3
    endloop
  endfacet
  facet normal -0.19509 -0.980785 -0
    outer loop
      vertex -5 0 3
      vertex -6.91342 0.380602 0
      vertex -5 0 0
    endloop
  endfacet
  facet normal 0.951056 -0.309017 0
    outer loop
      vertex -8 5 3
      vertex -7.42705 6.76336 0
      vertex -7.42705 6.76336 3
    endloop
  endfacet
  facet normal 0.951056 -0.309017 0
    outer loop
      vertex -7.42705 6.76336 0
      vertex -8 5 3
      vertex -8 5 0
    endloop
  endfacet
  facet normal 0 1 -0
    outer loop
      vertex -4.07295 2.14683 0
      vertex -5.92705 2.14683 3
      vertex -4.07295 2.14683 3
    endloop
  endfacet
  facet normal 0 1 0
    outer loop
      vertex -5.92705 2.14683 3
      vertex -4.07295 2.14683 0
      vertex -5.92705 2.14683 0
    endloop
  endfacet
  facet normal 0 -1 0
    outer loop
      vertex -5.92705 7.85317 0
      vertex -5 7.85317 3
      vertex -5.92705 7.85317 3
    endloop
  endfacet
  facet normal 0 -1 -0
    outer loop
      vertex -5 7.85317 3
      vertex -5.92705 7.85317 0
      vertex -5 7.85317 0
    endloop
  endfacet
  facet normal 0.587785 -0.809017 0
    outer loop
      vertex -7.42705 6.76336 0
      vertex -5.92705 7.85317 3
      vertex -7.42705 6.76336 3
    endloop
  endfacet
  facet normal 0.587785 -0.809017 0
    outer loop
      vertex -5.92705 7.85317 3
      vertex -7.42705 6.76336 0
      vertex -5.92705 7.85317 0
    endloop
  endfacet
  facet normal 0.951056 0.309017 0
    outer loop
      vertex -7.42705 3.23664 3
      vertex -8 5 0
      vertex -8 5 3
    endloop
  endfacet
  facet normal 0.951056 0.309017 0
    outer loop
      vertex -8 5 0
      vertex -7.42705 3.23664 3
      vertex -7.42705 3.23664 0
    endloop
  endfacet
  facet normal -0.587785 0.809017 0
    outer loop
      vertex -2.57295 3.23664 0
      vertex -4.07295 2.14683 3
      vertex -2.57295 3.23664 3
    endloop
  endfacet
  facet normal -0.587785 0.809017 0
    outer loop
      vertex -4.07295 2.14683 3
      vertex -2.57295 3.23664 0
      vertex -4.07295 2.14683 0
    endloop
  endfacet
  facet normal 0.587785 0.809017 -0
    outer loop
      vertex -5.92705 2.14683 0
      vertex -7.42705 3.23664 3
      vertex -5.92705 2.14683 3
    endloop
  endfacet
  facet normal 0.587785 0.809017 0
    outer loop
      vertex -7.42705 3.23664 3
      vertex -5.92705 2.14683 0
      vertex -7.42705 3.23664 0
    endloop
  endfacet
  facet normal -0.951057 0.309017 0
    outer loop
      vertex -2.57295 3.23664 0
      vertex -2 5 3
      vertex -2 5 0
    endloop
  endfacet
  facet normal -0.951057 0.309017 0
    outer loop
      vertex -2 5 3
      vertex -2.57295 3.23664 0
      vertex -2.57295 3.23664 3
    endloop
  endfacet
  facet normal 1 -0 0
    outer loop
      vertex -5 7.85317 3
      vertex -5 10 0
      vertex -5 10 3
    endloop
  endfacet
  facet normal 1 0 0
    outer loop
      vertex -5 10 0
      vertex -5 7.85317 3
      vertex -5 7.85317 0
    endloop
  endfacet
  facet normal -1 0 0
    outer loop
      vertex -2 5 0
      vertex -2 10 3
      vertex -2 10 0
    endloop
  endfacet
  facet normal -1 -0 0
    outer loop
      vertex -2 10 3
      vertex -2 5 0
      vertex -2 5 3
    endloop
  endfacet
  facet normal -1 0 0
    outer loop
      vertex -4 314 0
      vertex -4 314.199 3
      vertex -4 314.199 0
    endloop
  endfacet
  facet normal -1 -0 0
    outer loop
      vertex -4 314.199 3
      vertex -4 314 0
      vertex -4 314 3
    endloop
  endfacet
  facet normal 0 0 1
    outer loop
      vertex -5 324 3
      vertex -5.92705 321.853 3
      vertex -5 321.853 3
    endloop
  endfacet
  facet normal -0 0 1
    outer loop
      vertex -6.91342 323.619 3
      vertex -5.92705 321.853 3
      vertex -5 324 3
    endloop
  endfacet
  facet normal -0 0 1
    outer loop
      vertex -8.53553 322.536 3
      vertex -5.92705 321.853 3
      vertex -6.91342 323.619 3
    endloop
  endfacet
  facet normal 0 0 1
    outer loop
      vertex -5.92705 321.853 3
      vertex -8.53553 322.536 3
      vertex -7.42705 320.763 3
    endloop
  endfacet
  facet normal -0 0 1
    outer loop
      vertex -9.6194 320.913 3
      vertex -7.42705 320.763 3
      vertex -8.53553 322.536 3
    endloop
  endfacet
  facet normal -0 0 1
    outer loop
      vertex -4.07295 316.147 3
      vertex -4 314.199 3
      vertex -2.57295 317.237 3
    endloop
  endfacet
  facet normal 0 0 1
    outer loop
      vertex -4.07295 316.147 3
      vertex -5 314 3
      vertex -4 314.199 3
    endloop
  endfacet
  facet normal -0 0 1
    outer loop
      vertex -5.92705 316.147 3
      vertex -5 314 3
      vertex -4.07295 316.147 3
    endloop
  endfacet
  facet normal 0 0 1
    outer loop
      vertex -5.92705 316.147 3
      vertex -6.91342 314.381 3
      vertex -5 314 3
    endloop
  endfacet
  facet normal 0 0 1
    outer loop
      vertex -8.53553 315.464 3
      vertex -5.92705 316.147 3
      vertex -7.42705 317.237 3
    endloop
  endfacet
  facet normal 0 0 1
    outer loop
      vertex -9.6194 317.087 3
      vertex -7.42705 317.237 3
      vertex -8 319 3
    endloop
  endfacet
  facet normal 0 0 1
    outer loop
      vertex -5.92705 316.147 3
      vertex -8.53553 315.464 3
      vertex -6.91342 314.381 3
    endloop
  endfacet
  facet normal 0 0 1
    outer loop
      vertex -7.42705 320.763 3
      vertex -9.6194 320.913 3
      vertex -8 319 3
    endloop
  endfacet
  facet normal 0 0 1
    outer loop
      vertex -10 319 3
      vertex -8 319 3
      vertex -9.6194 320.913 3
    endloop
  endfacet
  facet normal 0 0 1
    outer loop
      vertex -7.42705 317.237 3
      vertex -9.6194 317.087 3
      vertex -8.53553 315.464 3
    endloop
  endfacet
  facet normal 0 0 1
    outer loop
      vertex -8 319 3
      vertex -10 319 3
      vertex -9.6194 317.087 3
    endloop
  endfacet
  facet normal 0 0 1
    outer loop
      vertex -2 319 3
      vertex 0 324 3
      vertex -2 324 3
    endloop
  endfacet
  facet normal 0 0 1
    outer loop
      vertex 0 324 3
      vertex -2 319 3
      vertex 0 314 3
    endloop
  endfacet
  facet normal -0 0 1
    outer loop
      vertex -2.57295 317.237 3
      vertex 0 314 3
      vertex -2 319 3
    endloop
  endfacet
  facet normal -0 0 1
    outer loop
      vertex -4 314.199 3
      vertex 0 314 3
      vertex -2.57295 317.237 3
    endloop
  endfacet
  facet normal 0 0 1
    outer loop
      vertex 0 314 3
      vertex -4 314.199 3
      vertex -4 314 3
    endloop
  endfacet
  facet normal 0 -1 0
    outer loop
      vertex -4 314 0
      vertex 0 314 3
      vertex -4 314 3
    endloop
  endfacet
  facet normal 0 -1 -0
    outer loop
      vertex 0 314 3
      vertex -4 314 0
      vertex 0 314 0
    endloop
  endfacet
  facet normal 0 1 0
    outer loop
      vertex 168 324 8
      vertex 0 324 3
      vertex 0 324 8
    endloop
  endfacet
  facet normal 0 1 -0
    outer loop
      vertex 168 324 0
      vertex 0 324 3
      vertex 168 324 8
    endloop
  endfacet
  facet normal 0 1 0
    outer loop
      vertex -2 324 0
      vertex 0 324 3
      vertex 168 324 0
    endloop
  endfacet
  facet normal 0 1 0
    outer loop
      vertex 0 324 3
      vertex -2 324 0
      vertex -2 324 3
    endloop
  endfacet
  facet normal -0.980785 0.19509 0
    outer loop
      vertex -10 319 0
      vertex -9.6194 320.913 3
      vertex -9.6194 320.913 0
    endloop
  endfacet
  facet normal -0.980785 0.19509 0
    outer loop
      vertex -9.6194 320.913 3
      vertex -10 319 0
      vertex -10 319 3
    endloop
  endfacet
  facet normal 0.195091 -0.980785 0
    outer loop
      vertex -5 314 0
      vertex -4 314.199 3
      vertex -5 314 3
    endloop
  endfacet
  facet normal 0.195091 -0.980785 0
    outer loop
      vertex -4 314.199 3
      vertex -5 314 0
      vertex -4 314.199 0
    endloop
  endfacet
  facet normal -0.55557 0.83147 0
    outer loop
      vertex -6.91342 323.619 0
      vertex -8.53553 322.536 3
      vertex -6.91342 323.619 3
    endloop
  endfacet
  facet normal -0.55557 0.83147 0
    outer loop
      vertex -8.53553 322.536 3
      vertex -6.91342 323.619 0
      vertex -8.53553 322.536 0
    endloop
  endfacet
  facet normal -0.831467 0.555574 0
    outer loop
      vertex -9.6194 320.913 0
      vertex -8.53553 322.536 3
      vertex -8.53553 322.536 0
    endloop
  endfacet
  facet normal -0.831467 0.555574 0
    outer loop
      vertex -8.53553 322.536 3
      vertex -9.6194 320.913 0
      vertex -9.6194 320.913 3
    endloop
  endfacet
  facet normal -0.195097 0.980784 0
    outer loop
      vertex -5 324 0
      vertex -6.91342 323.619 3
      vertex -5 324 3
    endloop
  endfacet
  facet normal -0.195097 0.980784 0
    outer loop
      vertex -6.91342 323.619 3
      vertex -5 324 0
      vertex -6.91342 323.619 0
    endloop
  endfacet
  facet normal -0.55557 -0.83147 0
    outer loop
      vertex -8.53553 315.464 0
      vertex -6.91342 314.381 3
      vertex -8.53553 315.464 3
    endloop
  endfacet
  facet normal -0.55557 -0.83147 -0
    outer loop
      vertex -6.91342 314.381 3
      vertex -8.53553 315.464 0
      vertex -6.91342 314.381 0
    endloop
  endfacet
  facet normal -0.831467 -0.555574 0
    outer loop
      vertex -8.53553 315.464 0
      vertex -9.6194 317.087 3
      vertex -9.6194 317.087 0
    endloop
  endfacet
  facet normal -0.831467 -0.555574 0
    outer loop
      vertex -9.6194 317.087 3
      vertex -8.53553 315.464 0
      vertex -8.53553 315.464 3
    endloop
  endfacet
  facet normal -0.980785 -0.19509 0
    outer loop
      vertex -9.6194 317.087 0
      vertex -10 319 3
      vertex -10 319 0
    endloop
  endfacet
  facet normal -0.980785 -0.19509 0
    outer loop
      vertex -10 319 3
      vertex -9.6194 317.087 0
      vertex -9.6194 317.087 3
    endloop
  endfacet
  facet normal -0.195097 -0.980784 0
    outer loop
      vertex -6.91342 314.381 0
      vertex -5 314 3
      vertex -6.91342 314.381 3
    endloop
  endfacet
  facet normal -0.195097 -0.980784 -0
    outer loop
      vertex -5 314 3
      vertex -6.91342 314.381 0
      vertex -5 314 0
    endloop
  endfacet
  facet normal 0.951057 -0.309015 0
    outer loop
      vertex -8 319 3
      vertex -7.42705 320.763 0
      vertex -7.42705 320.763 3
    endloop
  endfacet
  facet normal 0.951057 -0.309015 0
    outer loop
      vertex -7.42705 320.763 0
      vertex -8 319 3
      vertex -8 319 0
    endloop
  endfacet
  facet normal 0 1 -0
    outer loop
      vertex -4.07295 316.147 0
      vertex -5.92705 316.147 3
      vertex -4.07295 316.147 3
    endloop
  endfacet
  facet normal 0 1 0
    outer loop
      vertex -5.92705 316.147 3
      vertex -4.07295 316.147 0
      vertex -5.92705 316.147 0
    endloop
  endfacet
  facet normal 0 -1 0
    outer loop
      vertex -5.92705 321.853 0
      vertex -5 321.853 3
      vertex -5.92705 321.853 3
    endloop
  endfacet
  facet normal 0 -1 -0
    outer loop
      vertex -5 321.853 3
      vertex -5.92705 321.853 0
      vertex -5 321.853 0
    endloop
  endfacet
  facet normal 0.587785 -0.809017 0
    outer loop
      vertex -7.42705 320.763 0
      vertex -5.92705 321.853 3
      vertex -7.42705 320.763 3
    endloop
  endfacet
  facet normal 0.587785 -0.809017 0
    outer loop
      vertex -5.92705 321.853 3
      vertex -7.42705 320.763 0
      vertex -5.92705 321.853 0
    endloop
  endfacet
  facet normal -0.951057 0.309015 0
    outer loop
      vertex -2.57295 317.237 0
      vertex -2 319 3
      vertex -2 319 0
    endloop
  endfacet
  facet normal -0.951057 0.309015 0
    outer loop
      vertex -2 319 3
      vertex -2.57295 317.237 0
      vertex -2.57295 317.237 3
    endloop
  endfacet
  facet normal -0.587785 0.809017 0
    outer loop
      vertex -2.57295 317.237 0
      vertex -4.07295 316.147 3
      vertex -2.57295 317.237 3
    endloop
  endfacet
  facet normal -0.587785 0.809017 0
    outer loop
      vertex -4.07295 316.147 3
      vertex -2.57295 317.237 0
      vertex -4.07295 316.147 0
    endloop
  endfacet
  facet normal 0.587785 0.809017 -0
    outer loop
      vertex -5.92705 316.147 0
      vertex -7.42705 317.237 3
      vertex -5.92705 316.147 3
    endloop
  endfacet
  facet normal 0.587785 0.809017 0
    outer loop
      vertex -7.42705 317.237 3
      vertex -5.92705 316.147 0
      vertex -7.42705 317.237 0
    endloop
  endfacet
  facet normal 0.951057 0.309015 0
    outer loop
      vertex -7.42705 317.237 3
      vertex -8 319 0
      vertex -8 319 3
    endloop
  endfacet
  facet normal 0.951057 0.309015 0
    outer loop
      vertex -8 319 0
      vertex -7.42705 317.237 3
      vertex -7.42705 317.237 0
    endloop
  endfacet
  facet normal 1 -0 0
    outer loop
      vertex -5 321.853 3
      vertex -5 324 0
      vertex -5 324 3
    endloop
  endfacet
  facet normal 1 0 0
    outer loop
      vertex -5 324 0
      vertex -5 321.853 3
      vertex -5 321.853 0
    endloop
  endfacet
  facet normal -1 0 0
    outer loop
      vertex -2 319 0
      vertex -2 324 3
      vertex -2 324 0
    endloop
  endfacet
  facet normal -1 -0 0
    outer loop
      vertex -2 324 3
      vertex -2 319 0
      vertex -2 319 3
    endloop
  endfacet
  facet normal -1 0 0
    outer loop
      vertex -17 162 0
      vertex -17 177 6
      vertex -17 177 0
    endloop
  endfacet
  facet normal -1 -0 0
    outer loop
      vertex -17 177 6
      vertex -17 162 0
      vertex -17 162 6
    endloop
  endfacet
  facet normal 0 0 1
    outer loop
      vertex 0 177 6
      vertex -14 174 6
      vertex 0 174 6
    endloop
  endfacet
  facet normal 0 0 1
    outer loop
      vertex -14 174 6
      vertex -17 177 6
      vertex -14 165 6
    endloop
  endfacet
  facet normal -0 0 1
    outer loop
      vertex -17 177 6
      vertex -14 174 6
      vertex 0 177 6
    endloop
  endfacet
  facet normal -0 0 1
    outer loop
      vertex -14 165 6
      vertex 0 162 6
      vertex 0 165 6
    endloop
  endfacet
  facet normal 0 0 1
    outer loop
      vertex -14 165 6
      vertex -17 162 6
      vertex 0 162 6
    endloop
  endfacet
  facet normal 0 0 1
    outer loop
      vertex -17 162 6
      vertex -14 165 6
      vertex -17 177 6
    endloop
  endfacet
  facet normal 0 -1 0
    outer loop
      vertex -17 162 0
      vertex 0 162 6
      vertex -17 162 6
    endloop
  endfacet
  facet normal 0 -1 -0
    outer loop
      vertex 0 162 6
      vertex -17 162 0
      vertex 0 162 0
    endloop
  endfacet
  facet normal 0 1 -0
    outer loop
      vertex 0 177 0
      vertex -17 177 6
      vertex 0 177 6
    endloop
  endfacet
  facet normal 0 1 0
    outer loop
      vertex -17 177 6
      vertex 0 177 0
      vertex -17 177 0
    endloop
  endfacet
  facet normal 1 -0 0
    outer loop
      vertex -2 166.5 3
      vertex -2 172.5 0
      vertex -2 172.5 3
    endloop
  endfacet
  facet normal 1 0 0
    outer loop
      vertex -2 172.5 0
      vertex -2 166.5 3
      vertex -2 166.5 0
    endloop
  endfacet
  facet normal 0 0 1
    outer loop
      vertex 0 174 3
      vertex -2 172.5 3
      vertex 0 172.5 3
    endloop
  endfacet
  facet normal 0 0 1
    outer loop
      vertex -2 172.5 3
      vertex -14 174 3
      vertex -2 166.5 3
    endloop
  endfacet
  facet normal -0 0 1
    outer loop
      vertex -14 174 3
      vertex -2 172.5 3
      vertex 0 174 3
    endloop
  endfacet
  facet normal -0 0 1
    outer loop
      vertex -2 166.5 3
      vertex 0 165 3
      vertex 0 166.5 3
    endloop
  endfacet
  facet normal 0 0 1
    outer loop
      vertex -14 165 3
      vertex -2 166.5 3
      vertex -14 174 3
    endloop
  endfacet
  facet normal 0 0 1
    outer loop
      vertex -2 166.5 3
      vertex -14 165 3
      vertex 0 165 3
    endloop
  endfacet
  facet normal 0 1 -0
    outer loop
      vertex 0 166.5 0
      vertex -2 166.5 3
      vertex 0 166.5 3
    endloop
  endfacet
  facet normal 0 1 0
    outer loop
      vertex -2 166.5 3
      vertex 0 166.5 0
      vertex -2 166.5 0
    endloop
  endfacet
  facet normal 0 -1 0
    outer loop
      vertex -2 172.5 0
      vertex 0 172.5 3
      vertex -2 172.5 3
    endloop
  endfacet
  facet normal 0 -1 -0
    outer loop
      vertex 0 172.5 3
      vertex -2 172.5 0
      vertex 0 172.5 0
    endloop
  endfacet
  facet normal 1 -0 0
    outer loop
      vertex -14 165 6
      vertex -14 174 3
      vertex -14 174 6
    endloop
  endfacet
  facet normal 1 0 0
    outer loop
      vertex -14 174 3
      vertex -14 165 6
      vertex -14 165 3
    endloop
  endfacet
  facet normal 0 1 -0
    outer loop
      vertex 0 165 3
      vertex -14 165 6
      vertex 0 165 6
    endloop
  endfacet
  facet normal 0 1 0
    outer loop
      vertex -14 165 6
      vertex 0 165 3
      vertex -14 165 3
    endloop
  endfacet
  facet normal 0 -1 0
    outer loop
      vertex -14 174 3
      vertex 0 174 6
      vertex -14 174 6
    endloop
  endfacet
  facet normal 0 -1 -0
    outer loop
      vertex 0 174 6
      vertex -14 174 3
      vertex 0 174 3
    endloop
  endfacet
  facet normal 1 -0 0
    outer loop
      vertex 3 2 6
      vertex 3 322 3
      vertex 3 322 6
    endloop
  endfacet
  facet normal 1 0 0
    outer loop
      vertex 3 322 3
      vertex 3 2 6
      vertex 3 2 3
    endloop
  endfacet
  facet normal 0 0 -1
    outer loop
      vertex 3 2 6
      vertex 5 322 6
      vertex 5 2 6
    endloop
  endfacet
  facet normal -0 0 -1
    outer loop
      vertex 5 322 6
      vertex 3 2 6
      vertex 3 322 6
    endloop
  endfacet
  facet normal 0 0 -1
    outer loop
      vertex 81 2 6
      vertex 83 322 6
      vertex 83 2 6
    endloop
  endfacet
  facet normal -0 0 -1
    outer loop
      vertex 83 322 6
      vertex 81 2 6
      vertex 81 322 6
    endloop
  endfacet
  facet normal -1 0 0
    outer loop
      vertex 83 2 3
      vertex 83 322 6
      vertex 83 322 3
    endloop
  endfacet
  facet normal -1 -0 0
    outer loop
      vertex 83 322 6
      vertex 83 2 3
      vertex 83 2 6
    endloop
  endfacet
  facet normal 0 -1 0
    outer loop
      vertex 3 322 3
      vertex 5 322 6
      vertex 3 322 6
    endloop
  endfacet
  facet normal 0 -1 -0
    outer loop
      vertex 5 322 6
      vertex 3 322 3
      vertex 81 322 6
    endloop
  endfacet
  facet normal 0 -1 0
    outer loop
      vertex 83 322 3
      vertex 81 322 6
      vertex 3 322 3
    endloop
  endfacet
  facet normal 0 -1 0
    outer loop
      vertex 81 322 6
      vertex 83 322 3
      vertex 83 322 6
    endloop
  endfacet
  facet normal 0 -1 0
    outer loop
      vertex 5 322 6
      vertex 81 322 8
      vertex 5 322 8
    endloop
  endfacet
  facet normal 0 -1 -0
    outer loop
      vertex 81 322 8
      vertex 5 322 6
      vertex 81 322 6
    endloop
  endfacet
  facet normal 0 0 1
    outer loop
      vertex 83 322 3
      vertex 42.5 317 3
      vertex 83 2 3
    endloop
  endfacet
  facet normal -0 0 1
    outer loop
      vertex 3 322 3
      vertex 42.5 317 3
      vertex 83 322 3
    endloop
  endfacet
  facet normal 0 0 1
    outer loop
      vertex 3 2 3
      vertex 37.5 317 3
      vertex 3 322 3
    endloop
  endfacet
  facet normal 0 0 1
    outer loop
      vertex 42.5 317 3
      vertex 3 322 3
      vertex 37.5 317 3
    endloop
  endfacet
  facet normal -0 0 1
    outer loop
      vertex 42.5 3 3
      vertex 83 2 3
      vertex 42.5 317 3
    endloop
  endfacet
  facet normal -0 0 1
    outer loop
      vertex 37.5 3 3
      vertex 83 2 3
      vertex 42.5 3 3
    endloop
  endfacet
  facet normal 0 0 1
    outer loop
      vertex 37.5 3 3
      vertex 3 2 3
      vertex 83 2 3
    endloop
  endfacet
  facet normal 0 0 1
    outer loop
      vertex 37.5 317 3
      vertex 3 2 3
      vertex 37.5 3 3
    endloop
  endfacet
  facet normal 0 1 -0
    outer loop
      vertex 83 2 3
      vertex 81 2 6
      vertex 83 2 6
    endloop
  endfacet
  facet normal 0 1 0
    outer loop
      vertex 81 2 6
      vertex 83 2 3
      vertex 5 2 6
    endloop
  endfacet
  facet normal 0 1 0
    outer loop
      vertex 3 2 3
      vertex 5 2 6
      vertex 83 2 3
    endloop
  endfacet
  facet normal 0 1 0
    outer loop
      vertex 5 2 6
      vertex 3 2 3
      vertex 3 2 6
    endloop
  endfacet
  facet normal 0 1 -0
    outer loop
      vertex 81 2 6
      vertex 5 2 8
      vertex 81 2 8
    endloop
  endfacet
  facet normal 0 1 0
    outer loop
      vertex 5 2 8
      vertex 81 2 6
      vertex 5 2 6
    endloop
  endfacet
  facet normal 1 -0 0
    outer loop
      vertex 5 2 8
      vertex 5 322 6
      vertex 5 322 8
    endloop
  endfacet
  facet normal 1 0 0
    outer loop
      vertex 5 322 6
      vertex 5 2 8
      vertex 5 2 6
    endloop
  endfacet
  facet normal -1 0 0
    outer loop
      vertex 81 2 6
      vertex 81 322 8
      vertex 81 322 6
    endloop
  endfacet
  facet normal -1 -0 0
    outer loop
      vertex 81 322 8
      vertex 81 2 6
      vertex 81 2 8
    endloop
  endfacet
  facet normal 1 -0 0
    outer loop
      vertex 37.5 3 3
      vertex 37.5 317 0
      vertex 37.5 317 3
    endloop
  endfacet
  facet normal 1 0 0
    outer loop
      vertex 37.5 317 0
      vertex 37.5 3 3
      vertex 37.5 3 0
    endloop
  endfacet
  facet normal -1 0 0
    outer loop
      vertex 42.5 3 0
      vertex 42.5 317 3
      vertex 42.5 317 0
    endloop
  endfacet
  facet normal -1 -0 0
    outer loop
      vertex 42.5 317 3
      vertex 42.5 3 0
      vertex 42.5 3 3
    endloop
  endfacet
  facet normal 0 -1 0
    outer loop
      vertex 37.5 317 0
      vertex 42.5 317 3
      vertex 37.5 317 3
    endloop
  endfacet
  facet normal 0 -1 -0
    outer loop
      vertex 42.5 317 3
      vertex 37.5 317 0
      vertex 42.5 317 0
    endloop
  endfacet
  facet normal 0 1 -0
    outer loop
      vertex 42.5 3 0
      vertex 37.5 3 3
      vertex 42.5 3 3
    endloop
  endfacet
  facet normal 0 1 0
    outer loop
      vertex 37.5 3 3
      vertex 42.5 3 0
      vertex 37.5 3 0
    endloop
  endfacet
  facet normal 1 -0 0
    outer loop
      vertex 85 2 6
      vertex 85 322 3
      vertex 85 322 6
    endloop
  endfacet
  facet normal 1 0 0
    outer loop
      vertex 85 322 3
      vertex 85 2 6
      vertex 85 2 3
    endloop
  endfacet
  facet normal 0 0 -1
    outer loop
      vertex 85 2 6
      vertex 87 322 6
      vertex 87 2 6
    endloop
  endfacet
  facet normal -0 0 -1
    outer loop
      vertex 87 322 6
      vertex 85 2 6
      vertex 85 322 6
    endloop
  endfacet
  facet normal 0 0 -1
    outer loop
      vertex 163 2 6
      vertex 165 322 6
      vertex 165 2 6
    endloop
  endfacet
  facet normal -0 0 -1
    outer loop
      vertex 165 322 6
      vertex 163 2 6
      vertex 163 322 6
    endloop
  endfacet
  facet normal -1 0 0
    outer loop
      vertex 165 291 3
      vertex 165 322 6
      vertex 165 322 3
    endloop
  endfacet
  facet normal -1 0 0
    outer loop
      vertex 165 290.341 4.59099
      vertex 165 322 6
      vertex 165 291 3
    endloop
  endfacet
  facet normal -1 0 0
    outer loop
      vertex 165 288.75 5.25
      vertex 165 322 6
      vertex 165 290.341 4.59099
    endloop
  endfacet
  facet normal -1 0 0
    outer loop
      vertex 165 2 6
      vertex 165 286.5 3
      vertex 165 2 3
    endloop
  endfacet
  facet normal -1 0 0
    outer loop
      vertex 165 286.5 3
      vertex 165 2 6
      vertex 165 287.159 4.59099
    endloop
  endfacet
  facet normal -1 0 0
    outer loop
      vertex 165 287.159 4.59099
      vertex 165 2 6
      vertex 165 288.75 5.25
    endloop
  endfacet
  facet normal -1 0 0
    outer loop
      vertex 165 288.75 5.25
      vertex 165 2 6
      vertex 165 322 6
    endloop
  endfacet
  facet normal 0 -1 0
    outer loop
      vertex 85 322 3
      vertex 87 322 6
      vertex 85 322 6
    endloop
  endfacet
  facet normal 0 -1 -0
    outer loop
      vertex 87 322 6
      vertex 85 322 3
      vertex 163 322 6
    endloop
  endfacet
  facet normal 0 -1 0
    outer loop
      vertex 165 322 3
      vertex 163 322 6
      vertex 85 322 3
    endloop
  endfacet
  facet normal 0 -1 0
    outer loop
      vertex 163 322 6
      vertex 165 322 3
      vertex 165 322 6
    endloop
  endfacet
  facet normal 0 -1 0
    outer loop
      vertex 87 322 6
      vertex 163 322 8
      vertex 87 322 8
    endloop
  endfacet
  facet normal 0 -1 -0
    outer loop
      vertex 163 322 8
      vertex 87 322 6
      vertex 163 322 6
    endloop
  endfacet
  facet normal 0 0 1
    outer loop
      vertex 165 322 3
      vertex 162 291 3
      vertex 165 291 3
    endloop
  endfacet
  facet normal 0 0 1
    outer loop
      vertex 162 291 3
      vertex 122.5 317 3
      vertex 162 286.5 3
    endloop
  endfacet
  facet normal 0 0 1
    outer loop
      vertex 165 322 3
      vertex 122.5 317 3
      vertex 162 291 3
    endloop
  endfacet
  facet normal -0 0 1
    outer loop
      vertex 85 322 3
      vertex 122.5 317 3
      vertex 165 322 3
    endloop
  endfacet
  facet normal 0 0 1
    outer loop
      vertex 85 2 3
      vertex 117.5 317 3
      vertex 85 322 3
    endloop
  endfacet
  facet normal 0 0 1
    outer loop
      vertex 122.5 317 3
      vertex 85 322 3
      vertex 117.5 317 3
    endloop
  endfacet
  facet normal -0 0 1
    outer loop
      vertex 162 286.5 3
      vertex 165 2 3
      vertex 165 286.5 3
    endloop
  endfacet
  facet normal 0 0 1
    outer loop
      vertex 122.5 3 3
      vertex 162 286.5 3
      vertex 122.5 317 3
    endloop
  endfacet
  facet normal 0 0 1
    outer loop
      vertex 162 286.5 3
      vertex 122.5 3 3
      vertex 165 2 3
    endloop
  endfacet
  facet normal -0 0 1
    outer loop
      vertex 117.5 3 3
      vertex 165 2 3
      vertex 122.5 3 3
    endloop
  endfacet
  facet normal 0 0 1
    outer loop
      vertex 117.5 3 3
      vertex 85 2 3
      vertex 165 2 3
    endloop
  endfacet
  facet normal 0 0 1
    outer loop
      vertex 117.5 317 3
      vertex 85 2 3
      vertex 117.5 3 3
    endloop
  endfacet
  facet normal 0 1 -0
    outer loop
      vertex 165 2 3
      vertex 163 2 6
      vertex 165 2 6
    endloop
  endfacet
  facet normal 0 1 0
    outer loop
      vertex 163 2 6
      vertex 165 2 3
      vertex 87 2 6
    endloop
  endfacet
  facet normal 0 1 0
    outer loop
      vertex 85 2 3
      vertex 87 2 6
      vertex 165 2 3
    endloop
  endfacet
  facet normal 0 1 0
    outer loop
      vertex 87 2 6
      vertex 85 2 3
      vertex 85 2 6
    endloop
  endfacet
  facet normal 0 1 -0
    outer loop
      vertex 163 2 6
      vertex 87 2 8
      vertex 163 2 8
    endloop
  endfacet
  facet normal 0 1 0
    outer loop
      vertex 87 2 8
      vertex 163 2 6
      vertex 87 2 6
    endloop
  endfacet
  facet normal 1 -0 0
    outer loop
      vertex 87 2 8
      vertex 87 322 6
      vertex 87 322 8
    endloop
  endfacet
  facet normal 1 0 0
    outer loop
      vertex 87 322 6
      vertex 87 2 8
      vertex 87 2 6
    endloop
  endfacet
  facet normal -1 0 0
    outer loop
      vertex 163 2 6
      vertex 163 322 8
      vertex 163 322 6
    endloop
  endfacet
  facet normal -1 -0 0
    outer loop
      vertex 163 322 8
      vertex 163 2 6
      vertex 163 2 8
    endloop
  endfacet
  facet normal 1 -0 0
    outer loop
      vertex 117.5 3 3
      vertex 117.5 317 0
      vertex 117.5 317 3
    endloop
  endfacet
  facet normal 1 0 0
    outer loop
      vertex 117.5 317 0
      vertex 117.5 3 3
      vertex 117.5 3 0
    endloop
  endfacet
  facet normal -1 0 0
    outer loop
      vertex 122.5 3 0
      vertex 122.5 317 3
      vertex 122.5 317 0
    endloop
  endfacet
  facet normal -1 -0 0
    outer loop
      vertex 122.5 317 3
      vertex 122.5 3 0
      vertex 122.5 3 3
    endloop
  endfacet
  facet normal 0 1 -0
    outer loop
      vertex 122.5 3 0
      vertex 117.5 3 3
      vertex 122.5 3 3
    endloop
  endfacet
  facet normal 0 1 0
    outer loop
      vertex 117.5 3 3
      vertex 122.5 3 0
      vertex 117.5 3 0
    endloop
  endfacet
  facet normal 0 -1 0
    outer loop
      vertex 117.5 317 0
      vertex 122.5 317 3
      vertex 117.5 317 3
    endloop
  endfacet
  facet normal 0 -1 -0
    outer loop
      vertex 122.5 317 3
      vertex 117.5 317 0
      vertex 122.5 317 0
    endloop
  endfacet
  facet normal 0 -0.923882 -0.382677
    outer loop
      vertex 165 291 3
      vertex 168 290.341 4.59099
      vertex 165 290.341 4.59099
    endloop
  endfacet
  facet normal 0 -0.923882 -0.382677
    outer loop
      vertex 168 290.341 4.59099
      vertex 165 291 3
      vertex 168 291 3
    endloop
  endfacet
  facet normal 0 0.382681 -0.923881
    outer loop
      vertex 165 287.159 4.59099
      vertex 168 288.75 5.25
      vertex 168 287.159 4.59099
    endloop
  endfacet
  facet normal 0 0.382681 -0.923881
    outer loop
      vertex 168 288.75 5.25
      vertex 165 287.159 4.59099
      vertex 165 288.75 5.25
    endloop
  endfacet
  facet normal 0 -0.382681 -0.923881
    outer loop
      vertex 165 288.75 5.25
      vertex 168 290.341 4.59099
      vertex 168 288.75 5.25
    endloop
  endfacet
  facet normal -0 -0.382681 -0.923881
    outer loop
      vertex 168 290.341 4.59099
      vertex 165 288.75 5.25
      vertex 165 290.341 4.59099
    endloop
  endfacet
  facet normal 0 0.923882 -0.382677
    outer loop
      vertex 168 286.5 3
      vertex 165 287.159 4.59099
      vertex 168 287.159 4.59099
    endloop
  endfacet
  facet normal 0 0.923882 -0.382677
    outer loop
      vertex 165 287.159 4.59099
      vertex 168 286.5 3
      vertex 165 286.5 3
    endloop
  endfacet
  facet normal 1 0 0
    outer loop
      vertex 162 291 3
      vertex 162 288.75 0.75
      vertex 162 290.341 1.40901
    endloop
  endfacet
  facet normal 1 0 0
    outer loop
      vertex 162 291 3
      vertex 162 287.159 1.40901
      vertex 162 288.75 0.75
    endloop
  endfacet
  facet normal 1 0 -0
    outer loop
      vertex 162 287.159 1.40901
      vertex 162 291 3
      vertex 162 286.5 3
    endloop
  endfacet
endsolid OpenSCAD_Model
