solid OpenSCAD_Model
  facet normal -1 0 0
    outer loop
      vertex -4 0 0
      vertex -4 0.198912 5
      vertex -4 0.198912 0
    endloop
  endfacet
  facet normal -1 -0 0
    outer loop
      vertex -4 0.198912 5
      vertex -4 0 0
      vertex -4 0 5
    endloop
  endfacet
  facet normal 0 0 1
    outer loop
      vertex -5 10 5
      vertex -5.92705 7.85317 5
      vertex -5 7.85317 5
    endloop
  endfacet
  facet normal -0 0 1
    outer loop
      vertex -6.91342 9.6194 5
      vertex -5.92705 7.85317 5
      vertex -5 10 5
    endloop
  endfacet
  facet normal -0 0 1
    outer loop
      vertex -8.53553 8.53553 5
      vertex -5.92705 7.85317 5
      vertex -6.91342 9.6194 5
    endloop
  endfacet
  facet normal 0 0 1
    outer loop
      vertex -5.92705 7.85317 5
      vertex -8.53553 8.53553 5
      vertex -7.42705 6.76336 5
    endloop
  endfacet
  facet normal -0 0 1
    outer loop
      vertex -9.6194 6.91342 5
      vertex -7.42705 6.76336 5
      vertex -8.53553 8.53553 5
    endloop
  endfacet
  facet normal -0 0 1
    outer loop
      vertex -4.07295 2.14683 5
      vertex -4 0.198912 5
      vertex -2.57295 3.23664 5
    endloop
  endfacet
  facet normal 0 0 1
    outer loop
      vertex -4.07295 2.14683 5
      vertex -5 0 5
      vertex -4 0.198912 5
    endloop
  endfacet
  facet normal -0 0 1
    outer loop
      vertex -5.92705 2.14683 5
      vertex -5 0 5
      vertex -4.07295 2.14683 5
    endloop
  endfacet
  facet normal 0 0 1
    outer loop
      vertex -5.92705 2.14683 5
      vertex -6.91342 0.380602 5
      vertex -5 0 5
    endloop
  endfacet
  facet normal 0 0 1
    outer loop
      vertex -8.53553 1.46447 5
      vertex -5.92705 2.14683 5
      vertex -7.42705 3.23664 5
    endloop
  endfacet
  facet normal 0 0 1
    outer loop
      vertex -9.6194 3.08658 5
      vertex -7.42705 3.23664 5
      vertex -8 5 5
    endloop
  endfacet
  facet normal 0 0 1
    outer loop
      vertex -5.92705 2.14683 5
      vertex -8.53553 1.46447 5
      vertex -6.91342 0.380602 5
    endloop
  endfacet
  facet normal 0 0 1
    outer loop
      vertex -7.42705 6.76336 5
      vertex -9.6194 6.91342 5
      vertex -8 5 5
    endloop
  endfacet
  facet normal 0 0 1
    outer loop
      vertex -10 5 5
      vertex -8 5 5
      vertex -9.6194 6.91342 5
    endloop
  endfacet
  facet normal 0 0 1
    outer loop
      vertex -7.42705 3.23664 5
      vertex -9.6194 3.08658 5
      vertex -8.53553 1.46447 5
    endloop
  endfacet
  facet normal 0 0 1
    outer loop
      vertex -8 5 5
      vertex -10 5 5
      vertex -9.6194 3.08658 5
    endloop
  endfacet
  facet normal 0 0 1
    outer loop
      vertex -2 5 5
      vertex 0 10 5
      vertex -2 10 5
    endloop
  endfacet
  facet normal 0 0 1
    outer loop
      vertex 0 10 5
      vertex -2 5 5
      vertex 0 0 5
    endloop
  endfacet
  facet normal -0 0 1
    outer loop
      vertex -2.57295 3.23664 5
      vertex 0 0 5
      vertex -2 5 5
    endloop
  endfacet
  facet normal -0 0 1
    outer loop
      vertex -4 0.198912 5
      vertex 0 0 5
      vertex -2.57295 3.23664 5
    endloop
  endfacet
  facet normal 0 0 1
    outer loop
      vertex 0 0 5
      vertex -4 0.198912 5
      vertex -4 0 5
    endloop
  endfacet
  facet normal -1 0 0
    outer loop
      vertex 0 162 0
      vertex 0 134.25 4.25
      vertex 0 162 6
    endloop
  endfacet
  facet normal -1 0 0
    outer loop
      vertex 0 162 0
      vertex 0 133.591 2.65901
      vertex 0 134.25 4.25
    endloop
  endfacet
  facet normal -1 0 0
    outer loop
      vertex 0 162 0
      vertex 0 132 2
      vertex 0 133.591 2.65901
    endloop
  endfacet
  facet normal -1 -0 0
    outer loop
      vertex 0 130.409 2.65901
      vertex 0 10 0
      vertex 0 129.75 4.25
    endloop
  endfacet
  facet normal -1 -0 0
    outer loop
      vertex 0 132 2
      vertex 0 10 0
      vertex 0 130.409 2.65901
    endloop
  endfacet
  facet normal -1 0 0
    outer loop
      vertex 0 10 0
      vertex 0 132 2
      vertex 0 162 0
    endloop
  endfacet
  facet normal -1 0 0
    outer loop
      vertex 0 174 3
      vertex 0 165 3
      vertex 0 174 6
    endloop
  endfacet
  facet normal -1 0 0
    outer loop
      vertex 0 314 0
      vertex 0 177 0
      vertex 0 314 5
    endloop
  endfacet
  facet normal -1 0 0
    outer loop
      vertex 0 314 5
      vertex 0 324 10
      vertex 0 324 5
    endloop
  endfacet
  facet normal -1 0 0
    outer loop
      vertex 0 177 6
      vertex 0 314 5
      vertex 0 177 0
    endloop
  endfacet
  facet normal -1 0 0
    outer loop
      vertex 0 314 5
      vertex 0 177 6
      vertex 0 324 10
    endloop
  endfacet
  facet normal -1 0 0
    outer loop
      vertex 0 174 6
      vertex 0 324 10
      vertex 0 177 6
    endloop
  endfacet
  facet normal -1 0 0
    outer loop
      vertex 0 165 6
      vertex 0 174 6
      vertex 0 165 3
    endloop
  endfacet
  facet normal -1 0 0
    outer loop
      vertex 0 165 6
      vertex 0 324 10
      vertex 0 174 6
    endloop
  endfacet
  facet normal -1 0 0
    outer loop
      vertex 0 162 6
      vertex 0 324 10
      vertex 0 165 6
    endloop
  endfacet
  facet normal -1 0 0
    outer loop
      vertex 0 133.591 5.84099
      vertex 0 162 6
      vertex 0 134.25 4.25
    endloop
  endfacet
  facet normal -1 0 0
    outer loop
      vertex 0 132 6.5
      vertex 0 162 6
      vertex 0 133.591 5.84099
    endloop
  endfacet
  facet normal -1 0 0
    outer loop
      vertex 0 162 6
      vertex 0 132 6.5
      vertex 0 324 10
    endloop
  endfacet
  facet normal -1 0 0
    outer loop
      vertex 0 10 5
      vertex 0 129.75 4.25
      vertex 0 10 0
    endloop
  endfacet
  facet normal -1 0 0
    outer loop
      vertex 0 129.75 4.25
      vertex 0 10 5
      vertex 0 130.409 5.84099
    endloop
  endfacet
  facet normal -1 0 0
    outer loop
      vertex 0 0 10
      vertex 0 130.409 5.84099
      vertex 0 10 5
    endloop
  endfacet
  facet normal -1 0 0
    outer loop
      vertex 0 130.409 5.84099
      vertex 0 0 10
      vertex 0 132 6.5
    endloop
  endfacet
  facet normal -1 0 0
    outer loop
      vertex 0 0 10
      vertex 0 10 5
      vertex 0 0 5
    endloop
  endfacet
  facet normal -1 0 0
    outer loop
      vertex 0 132 6.5
      vertex 0 0 10
      vertex 0 324 10
    endloop
  endfacet
  facet normal 0 1 -0
    outer loop
      vertex 0 10 0
      vertex -2 10 5
      vertex 0 10 5
    endloop
  endfacet
  facet normal 0 1 0
    outer loop
      vertex -2 10 5
      vertex 0 10 0
      vertex -2 10 0
    endloop
  endfacet
  facet normal 0 0 -1
    outer loop
      vertex -8 174 0
      vertex 0 177 0
      vertex -8 165 0
    endloop
  endfacet
  facet normal 0 0 -1
    outer loop
      vertex -17 177 0
      vertex -8 174 0
      vertex -14 174 0
    endloop
  endfacet
  facet normal 0 0 -1
    outer loop
      vertex -8 174 0
      vertex -17 177 0
      vertex 0 177 0
    endloop
  endfacet
  facet normal 0 0 -1
    outer loop
      vertex -17 177 0
      vertex -14 174 0
      vertex -17 162 0
    endloop
  endfacet
  facet normal 0 0 -1
    outer loop
      vertex 0 314 0
      vertex -2.57295 317.237 0
      vertex -2 319 0
    endloop
  endfacet
  facet normal 0 0 -1
    outer loop
      vertex -4 314.199 0
      vertex 0 314 0
      vertex -4 314 0
    endloop
  endfacet
  facet normal 0 0 -1
    outer loop
      vertex 0 314 0
      vertex -4 314.199 0
      vertex -2.57295 317.237 0
    endloop
  endfacet
  facet normal 0 0 -1
    outer loop
      vertex -4 314.199 0
      vertex -4.07295 316.147 0
      vertex -2.57295 317.237 0
    endloop
  endfacet
  facet normal 0 0 -1
    outer loop
      vertex -5 314 0
      vertex -4.07295 316.147 0
      vertex -4 314.199 0
    endloop
  endfacet
  facet normal 0 0 -1
    outer loop
      vertex -5 314 0
      vertex -5.92705 316.147 0
      vertex -4.07295 316.147 0
    endloop
  endfacet
  facet normal 0 0 -1
    outer loop
      vertex -6.91342 314.381 0
      vertex -5.92705 316.147 0
      vertex -5 314 0
    endloop
  endfacet
  facet normal 0 0 -1
    outer loop
      vertex -8.53553 315.464 0
      vertex -5.92705 316.147 0
      vertex -6.91342 314.381 0
    endloop
  endfacet
  facet normal -0 0 -1
    outer loop
      vertex -5.92705 316.147 0
      vertex -8.53553 315.464 0
      vertex -7.42705 317.237 0
    endloop
  endfacet
  facet normal 0 0 -1
    outer loop
      vertex -9.6194 317.087 0
      vertex -7.42705 317.237 0
      vertex -8.53553 315.464 0
    endloop
  endfacet
  facet normal 0 0 -1
    outer loop
      vertex 0 162 0
      vertex -8 165 0
      vertex 0 177 0
    endloop
  endfacet
  facet normal 0 0 -1
    outer loop
      vertex -17 162 0
      vertex -8 165 0
      vertex 0 162 0
    endloop
  endfacet
  facet normal -0 0 -1
    outer loop
      vertex -14 165 0
      vertex -17 162 0
      vertex -14 174 0
    endloop
  endfacet
  facet normal -0 0 -1
    outer loop
      vertex -8 165 0
      vertex -17 162 0
      vertex -14 165 0
    endloop
  endfacet
  facet normal 0 0 -1
    outer loop
      vertex 168 0 0
      vertex 108 29 0
      vertex 168 324 0
    endloop
  endfacet
  facet normal 0 0 -1
    outer loop
      vertex 168 0 0
      vertex 101 29 0
      vertex 108 29 0
    endloop
  endfacet
  facet normal 0 0 -1
    outer loop
      vertex 101 29 0
      vertex 69 29 0
      vertex 101 295 0
    endloop
  endfacet
  facet normal 0 0 -1
    outer loop
      vertex 168 0 0
      vertex 69 29 0
      vertex 101 29 0
    endloop
  endfacet
  facet normal 0 0 -1
    outer loop
      vertex -4 0 0
      vertex 69 29 0
      vertex 168 0 0
    endloop
  endfacet
  facet normal 0 0 -1
    outer loop
      vertex 0 162 0
      vertex 62 29 0
      vertex 0 10 0
    endloop
  endfacet
  facet normal -0 0 -1
    outer loop
      vertex 69 29 0
      vertex -4 0 0
      vertex 62 29 0
    endloop
  endfacet
  facet normal 0 -0 -1
    outer loop
      vertex -2 5 0
      vertex 62 29 0
      vertex -2.57295 3.23664 0
    endloop
  endfacet
  facet normal 0 0 -1
    outer loop
      vertex 62 29 0
      vertex -2 5 0
      vertex 0 10 0
    endloop
  endfacet
  facet normal 0 0 -1
    outer loop
      vertex 62 29 0
      vertex -4 0 0
      vertex -2.57295 3.23664 0
    endloop
  endfacet
  facet normal 0 0 -1
    outer loop
      vertex -4 0.198912 0
      vertex -2.57295 3.23664 0
      vertex -4 0 0
    endloop
  endfacet
  facet normal 0 0 -1
    outer loop
      vertex -4 0.198912 0
      vertex -4.07295 2.14683 0
      vertex -2.57295 3.23664 0
    endloop
  endfacet
  facet normal 0 0 -1
    outer loop
      vertex -5 0 0
      vertex -4.07295 2.14683 0
      vertex -4 0.198912 0
    endloop
  endfacet
  facet normal 0 0 -1
    outer loop
      vertex -5 0 0
      vertex -5.92705 2.14683 0
      vertex -4.07295 2.14683 0
    endloop
  endfacet
  facet normal 0 0 -1
    outer loop
      vertex -6.91342 0.380602 0
      vertex -5.92705 2.14683 0
      vertex -5 0 0
    endloop
  endfacet
  facet normal 0 0 -1
    outer loop
      vertex -8.53553 1.46447 0
      vertex -5.92705 2.14683 0
      vertex -6.91342 0.380602 0
    endloop
  endfacet
  facet normal -0 0 -1
    outer loop
      vertex -5.92705 2.14683 0
      vertex -8.53553 1.46447 0
      vertex -7.42705 3.23664 0
    endloop
  endfacet
  facet normal 0 0 -1
    outer loop
      vertex -9.6194 3.08658 0
      vertex -7.42705 3.23664 0
      vertex -8.53553 1.46447 0
    endloop
  endfacet
  facet normal 0 0 -1
    outer loop
      vertex 108 295 0
      vertex 168 324 0
      vertex 108 29 0
    endloop
  endfacet
  facet normal 0 0 -1
    outer loop
      vertex 101 295 0
      vertex 168 324 0
      vertex 108 295 0
    endloop
  endfacet
  facet normal 0 0 -1
    outer loop
      vertex 69 295 0
      vertex 101 295 0
      vertex 69 29 0
    endloop
  endfacet
  facet normal 0 0 -1
    outer loop
      vertex 69 295 0
      vertex 168 324 0
      vertex 101 295 0
    endloop
  endfacet
  facet normal 0 0 -1
    outer loop
      vertex -2 324 0
      vertex 69 295 0
      vertex 62 295 0
    endloop
  endfacet
  facet normal 0 0 -1
    outer loop
      vertex 62 29 0
      vertex 0 162 0
      vertex 62 295 0
    endloop
  endfacet
  facet normal 0 0 -1
    outer loop
      vertex 0 177 0
      vertex 62 295 0
      vertex 0 162 0
    endloop
  endfacet
  facet normal 0 0 -1
    outer loop
      vertex 0 314 0
      vertex 62 295 0
      vertex 0 177 0
    endloop
  endfacet
  facet normal 0 0 -1
    outer loop
      vertex -2 324 0
      vertex 62 295 0
      vertex 0 314 0
    endloop
  endfacet
  facet normal 0 0 -1
    outer loop
      vertex -2 324 0
      vertex 0 314 0
      vertex -2 319 0
    endloop
  endfacet
  facet normal 0 0 -1
    outer loop
      vertex 69 295 0
      vertex -2 324 0
      vertex 168 324 0
    endloop
  endfacet
  facet normal -0 0 -1
    outer loop
      vertex 0 10 0
      vertex -2 5 0
      vertex -2 10 0
    endloop
  endfacet
  facet normal 0 0 -1
    outer loop
      vertex -5.92705 7.85317 0
      vertex -5 10 0
      vertex -5 7.85317 0
    endloop
  endfacet
  facet normal 0 0 -1
    outer loop
      vertex -5.92705 7.85317 0
      vertex -6.91342 9.6194 0
      vertex -5 10 0
    endloop
  endfacet
  facet normal 0 0 -1
    outer loop
      vertex -8.53553 8.53553 0
      vertex -5.92705 7.85317 0
      vertex -7.42705 6.76336 0
    endloop
  endfacet
  facet normal 0 0 -1
    outer loop
      vertex -9.6194 6.91342 0
      vertex -7.42705 6.76336 0
      vertex -8 5 0
    endloop
  endfacet
  facet normal 0 0 -1
    outer loop
      vertex -5.92705 7.85317 0
      vertex -8.53553 8.53553 0
      vertex -6.91342 9.6194 0
    endloop
  endfacet
  facet normal -0 0 -1
    outer loop
      vertex -7.42705 3.23664 0
      vertex -9.6194 3.08658 0
      vertex -8 5 0
    endloop
  endfacet
  facet normal 0 0 -1
    outer loop
      vertex -10 5 0
      vertex -8 5 0
      vertex -9.6194 3.08658 0
    endloop
  endfacet
  facet normal 0 0 -1
    outer loop
      vertex -7.42705 6.76336 0
      vertex -9.6194 6.91342 0
      vertex -8.53553 8.53553 0
    endloop
  endfacet
  facet normal 0 0 -1
    outer loop
      vertex -8 5 0
      vertex -10 5 0
      vertex -9.6194 6.91342 0
    endloop
  endfacet
  facet normal 0 0 -1
    outer loop
      vertex -5.92705 321.853 0
      vertex -5 324 0
      vertex -5 321.853 0
    endloop
  endfacet
  facet normal 0 0 -1
    outer loop
      vertex -5.92705 321.853 0
      vertex -6.91342 323.619 0
      vertex -5 324 0
    endloop
  endfacet
  facet normal 0 0 -1
    outer loop
      vertex -8.53553 322.536 0
      vertex -5.92705 321.853 0
      vertex -7.42705 320.763 0
    endloop
  endfacet
  facet normal 0 0 -1
    outer loop
      vertex -9.6194 320.913 0
      vertex -7.42705 320.763 0
      vertex -8 319 0
    endloop
  endfacet
  facet normal 0 0 -1
    outer loop
      vertex -5.92705 321.853 0
      vertex -8.53553 322.536 0
      vertex -6.91342 323.619 0
    endloop
  endfacet
  facet normal -0 0 -1
    outer loop
      vertex -7.42705 317.237 0
      vertex -9.6194 317.087 0
      vertex -8 319 0
    endloop
  endfacet
  facet normal 0 0 -1
    outer loop
      vertex -10 319 0
      vertex -8 319 0
      vertex -9.6194 317.087 0
    endloop
  endfacet
  facet normal 0 0 -1
    outer loop
      vertex -7.42705 320.763 0
      vertex -9.6194 320.913 0
      vertex -8.53553 322.536 0
    endloop
  endfacet
  facet normal 0 0 -1
    outer loop
      vertex -8 319 0
      vertex -10 319 0
      vertex -9.6194 320.913 0
    endloop
  endfacet
  facet normal 0 -1 0
    outer loop
      vertex -4 0 5
      vertex -4 0 0
      vertex 0 0 5
    endloop
  endfacet
  facet normal 0 -1 0
    outer loop
      vertex 0 0 5
      vertex 168 0 10
      vertex 0 0 10
    endloop
  endfacet
  facet normal 0 -1 0
    outer loop
      vertex 168 0 0
      vertex 0 0 5
      vertex -4 0 0
    endloop
  endfacet
  facet normal 0 -1 0
    outer loop
      vertex 0 0 5
      vertex 168 0 0
      vertex 168 0 10
    endloop
  endfacet
  facet normal -0.980785 0.195091 0
    outer loop
      vertex -10 5 0
      vertex -9.6194 6.91342 5
      vertex -9.6194 6.91342 0
    endloop
  endfacet
  facet normal -0.980785 0.195091 0
    outer loop
      vertex -9.6194 6.91342 5
      vertex -10 5 0
      vertex -10 5 5
    endloop
  endfacet
  facet normal -0.980785 -0.195091 0
    outer loop
      vertex -9.6194 3.08658 0
      vertex -10 5 5
      vertex -10 5 0
    endloop
  endfacet
  facet normal -0.980785 -0.195091 0
    outer loop
      vertex -10 5 5
      vertex -9.6194 3.08658 0
      vertex -9.6194 3.08658 5
    endloop
  endfacet
  facet normal -0.195091 0.980785 0
    outer loop
      vertex -5 10 0
      vertex -6.91342 9.6194 5
      vertex -5 10 5
    endloop
  endfacet
  facet normal -0.195091 0.980785 0
    outer loop
      vertex -6.91342 9.6194 5
      vertex -5 10 0
      vertex -6.91342 9.6194 0
    endloop
  endfacet
  facet normal -0.55557 0.83147 0
    outer loop
      vertex -6.91342 9.6194 0
      vertex -8.53553 8.53553 5
      vertex -6.91342 9.6194 5
    endloop
  endfacet
  facet normal -0.55557 0.83147 0
    outer loop
      vertex -8.53553 8.53553 5
      vertex -6.91342 9.6194 0
      vertex -8.53553 8.53553 0
    endloop
  endfacet
  facet normal -0.83147 0.55557 0
    outer loop
      vertex -9.6194 6.91342 0
      vertex -8.53553 8.53553 5
      vertex -8.53553 8.53553 0
    endloop
  endfacet
  facet normal -0.83147 0.55557 0
    outer loop
      vertex -8.53553 8.53553 5
      vertex -9.6194 6.91342 0
      vertex -9.6194 6.91342 5
    endloop
  endfacet
  facet normal -0.55557 -0.83147 0
    outer loop
      vertex -8.53553 1.46447 0
      vertex -6.91342 0.380602 5
      vertex -8.53553 1.46447 5
    endloop
  endfacet
  facet normal -0.55557 -0.83147 -0
    outer loop
      vertex -6.91342 0.380602 5
      vertex -8.53553 1.46447 0
      vertex -6.91342 0.380602 0
    endloop
  endfacet
  facet normal -0.83147 -0.55557 0
    outer loop
      vertex -8.53553 1.46447 0
      vertex -9.6194 3.08658 5
      vertex -9.6194 3.08658 0
    endloop
  endfacet
  facet normal -0.83147 -0.55557 0
    outer loop
      vertex -9.6194 3.08658 5
      vertex -8.53553 1.46447 0
      vertex -8.53553 1.46447 5
    endloop
  endfacet
  facet normal 0.19509 -0.980785 0
    outer loop
      vertex -5 0 0
      vertex -4 0.198912 5
      vertex -5 0 5
    endloop
  endfacet
  facet normal 0.19509 -0.980785 0
    outer loop
      vertex -4 0.198912 5
      vertex -5 0 0
      vertex -4 0.198912 0
    endloop
  endfacet
  facet normal -0.19509 -0.980785 0
    outer loop
      vertex -6.91342 0.380602 0
      vertex -5 0 5
      vertex -6.91342 0.380602 5
    endloop
  endfacet
  facet normal -0.19509 -0.980785 -0
    outer loop
      vertex -5 0 5
      vertex -6.91342 0.380602 0
      vertex -5 0 0
    endloop
  endfacet
  facet normal 0.951056 -0.309017 0
    outer loop
      vertex -8 5 5
      vertex -7.42705 6.76336 0
      vertex -7.42705 6.76336 5
    endloop
  endfacet
  facet normal 0.951056 -0.309017 0
    outer loop
      vertex -7.42705 6.76336 0
      vertex -8 5 5
      vertex -8 5 0
    endloop
  endfacet
  facet normal 0 1 -0
    outer loop
      vertex -4.07295 2.14683 0
      vertex -5.92705 2.14683 5
      vertex -4.07295 2.14683 5
    endloop
  endfacet
  facet normal 0 1 0
    outer loop
      vertex -5.92705 2.14683 5
      vertex -4.07295 2.14683 0
      vertex -5.92705 2.14683 0
    endloop
  endfacet
  facet normal 0 -1 0
    outer loop
      vertex -5.92705 7.85317 0
      vertex -5 7.85317 5
      vertex -5.92705 7.85317 5
    endloop
  endfacet
  facet normal 0 -1 -0
    outer loop
      vertex -5 7.85317 5
      vertex -5.92705 7.85317 0
      vertex -5 7.85317 0
    endloop
  endfacet
  facet normal 0.587785 -0.809017 0
    outer loop
      vertex -7.42705 6.76336 0
      vertex -5.92705 7.85317 5
      vertex -7.42705 6.76336 5
    endloop
  endfacet
  facet normal 0.587785 -0.809017 0
    outer loop
      vertex -5.92705 7.85317 5
      vertex -7.42705 6.76336 0
      vertex -5.92705 7.85317 0
    endloop
  endfacet
  facet normal -0.587785 0.809017 0
    outer loop
      vertex -2.57295 3.23664 0
      vertex -4.07295 2.14683 5
      vertex -2.57295 3.23664 5
    endloop
  endfacet
  facet normal -0.587785 0.809017 0
    outer loop
      vertex -4.07295 2.14683 5
      vertex -2.57295 3.23664 0
      vertex -4.07295 2.14683 0
    endloop
  endfacet
  facet normal 0.587785 0.809017 -0
    outer loop
      vertex -5.92705 2.14683 0
      vertex -7.42705 3.23664 5
      vertex -5.92705 2.14683 5
    endloop
  endfacet
  facet normal 0.587785 0.809017 0
    outer loop
      vertex -7.42705 3.23664 5
      vertex -5.92705 2.14683 0
      vertex -7.42705 3.23664 0
    endloop
  endfacet
  facet normal 0.951056 0.309017 0
    outer loop
      vertex -7.42705 3.23664 5
      vertex -8 5 0
      vertex -8 5 5
    endloop
  endfacet
  facet normal 0.951056 0.309017 0
    outer loop
      vertex -8 5 0
      vertex -7.42705 3.23664 5
      vertex -7.42705 3.23664 0
    endloop
  endfacet
  facet normal -0.951057 0.309017 0
    outer loop
      vertex -2.57295 3.23664 0
      vertex -2 5 5
      vertex -2 5 0
    endloop
  endfacet
  facet normal -0.951057 0.309017 0
    outer loop
      vertex -2 5 5
      vertex -2.57295 3.23664 0
      vertex -2.57295 3.23664 5
    endloop
  endfacet
  facet normal 1 -0 0
    outer loop
      vertex -5 7.85317 5
      vertex -5 10 0
      vertex -5 10 5
    endloop
  endfacet
  facet normal 1 0 0
    outer loop
      vertex -5 10 0
      vertex -5 7.85317 5
      vertex -5 7.85317 0
    endloop
  endfacet
  facet normal -1 0 0
    outer loop
      vertex -2 5 0
      vertex -2 10 5
      vertex -2 10 0
    endloop
  endfacet
  facet normal -1 -0 0
    outer loop
      vertex -2 10 5
      vertex -2 5 0
      vertex -2 5 5
    endloop
  endfacet
  facet normal -1 0 0
    outer loop
      vertex -4 314 0
      vertex -4 314.199 5
      vertex -4 314.199 0
    endloop
  endfacet
  facet normal -1 -0 0
    outer loop
      vertex -4 314.199 5
      vertex -4 314 0
      vertex -4 314 5
    endloop
  endfacet
  facet normal 0 0 1
    outer loop
      vertex -5 324 5
      vertex -5.92705 321.853 5
      vertex -5 321.853 5
    endloop
  endfacet
  facet normal -0 0 1
    outer loop
      vertex -6.91342 323.619 5
      vertex -5.92705 321.853 5
      vertex -5 324 5
    endloop
  endfacet
  facet normal -0 0 1
    outer loop
      vertex -8.53553 322.536 5
      vertex -5.92705 321.853 5
      vertex -6.91342 323.619 5
    endloop
  endfacet
  facet normal 0 0 1
    outer loop
      vertex -5.92705 321.853 5
      vertex -8.53553 322.536 5
      vertex -7.42705 320.763 5
    endloop
  endfacet
  facet normal -0 0 1
    outer loop
      vertex -9.6194 320.913 5
      vertex -7.42705 320.763 5
      vertex -8.53553 322.536 5
    endloop
  endfacet
  facet normal -0 0 1
    outer loop
      vertex -4.07295 316.147 5
      vertex -4 314.199 5
      vertex -2.57295 317.237 5
    endloop
  endfacet
  facet normal 0 0 1
    outer loop
      vertex -4.07295 316.147 5
      vertex -5 314 5
      vertex -4 314.199 5
    endloop
  endfacet
  facet normal -0 0 1
    outer loop
      vertex -5.92705 316.147 5
      vertex -5 314 5
      vertex -4.07295 316.147 5
    endloop
  endfacet
  facet normal 0 0 1
    outer loop
      vertex -5.92705 316.147 5
      vertex -6.91342 314.381 5
      vertex -5 314 5
    endloop
  endfacet
  facet normal 0 0 1
    outer loop
      vertex -8.53553 315.464 5
      vertex -5.92705 316.147 5
      vertex -7.42705 317.237 5
    endloop
  endfacet
  facet normal 0 0 1
    outer loop
      vertex -9.6194 317.087 5
      vertex -7.42705 317.237 5
      vertex -8 319 5
    endloop
  endfacet
  facet normal 0 0 1
    outer loop
      vertex -5.92705 316.147 5
      vertex -8.53553 315.464 5
      vertex -6.91342 314.381 5
    endloop
  endfacet
  facet normal 0 0 1
    outer loop
      vertex -7.42705 320.763 5
      vertex -9.6194 320.913 5
      vertex -8 319 5
    endloop
  endfacet
  facet normal 0 0 1
    outer loop
      vertex -10 319 5
      vertex -8 319 5
      vertex -9.6194 320.913 5
    endloop
  endfacet
  facet normal 0 0 1
    outer loop
      vertex -7.42705 317.237 5
      vertex -9.6194 317.087 5
      vertex -8.53553 315.464 5
    endloop
  endfacet
  facet normal 0 0 1
    outer loop
      vertex -8 319 5
      vertex -10 319 5
      vertex -9.6194 317.087 5
    endloop
  endfacet
  facet normal 0 0 1
    outer loop
      vertex -2 319 5
      vertex 0 324 5
      vertex -2 324 5
    endloop
  endfacet
  facet normal 0 0 1
    outer loop
      vertex 0 324 5
      vertex -2 319 5
      vertex 0 314 5
    endloop
  endfacet
  facet normal -0 0 1
    outer loop
      vertex -2.57295 317.237 5
      vertex 0 314 5
      vertex -2 319 5
    endloop
  endfacet
  facet normal -0 0 1
    outer loop
      vertex -4 314.199 5
      vertex 0 314 5
      vertex -2.57295 317.237 5
    endloop
  endfacet
  facet normal 0 0 1
    outer loop
      vertex 0 314 5
      vertex -4 314.199 5
      vertex -4 314 5
    endloop
  endfacet
  facet normal 0 -1 0
    outer loop
      vertex -4 314 0
      vertex 0 314 5
      vertex -4 314 5
    endloop
  endfacet
  facet normal 0 -1 -0
    outer loop
      vertex 0 314 5
      vertex -4 314 0
      vertex 0 314 0
    endloop
  endfacet
  facet normal 0 1 0
    outer loop
      vertex 168 324 10
      vertex 0 324 5
      vertex 0 324 10
    endloop
  endfacet
  facet normal 0 1 -0
    outer loop
      vertex 168 324 0
      vertex 0 324 5
      vertex 168 324 10
    endloop
  endfacet
  facet normal 0 1 0
    outer loop
      vertex -2 324 0
      vertex 0 324 5
      vertex 168 324 0
    endloop
  endfacet
  facet normal 0 1 0
    outer loop
      vertex 0 324 5
      vertex -2 324 0
      vertex -2 324 5
    endloop
  endfacet
  facet normal -0.980785 0.19509 0
    outer loop
      vertex -10 319 0
      vertex -9.6194 320.913 5
      vertex -9.6194 320.913 0
    endloop
  endfacet
  facet normal -0.980785 0.19509 0
    outer loop
      vertex -9.6194 320.913 5
      vertex -10 319 0
      vertex -10 319 5
    endloop
  endfacet
  facet normal 0.195091 -0.980785 0
    outer loop
      vertex -5 314 0
      vertex -4 314.199 5
      vertex -5 314 5
    endloop
  endfacet
  facet normal 0.195091 -0.980785 0
    outer loop
      vertex -4 314.199 5
      vertex -5 314 0
      vertex -4 314.199 0
    endloop
  endfacet
  facet normal -0.55557 0.83147 0
    outer loop
      vertex -6.91342 323.619 0
      vertex -8.53553 322.536 5
      vertex -6.91342 323.619 5
    endloop
  endfacet
  facet normal -0.55557 0.83147 0
    outer loop
      vertex -8.53553 322.536 5
      vertex -6.91342 323.619 0
      vertex -8.53553 322.536 0
    endloop
  endfacet
  facet normal -0.831467 0.555574 0
    outer loop
      vertex -9.6194 320.913 0
      vertex -8.53553 322.536 5
      vertex -8.53553 322.536 0
    endloop
  endfacet
  facet normal -0.831467 0.555574 0
    outer loop
      vertex -8.53553 322.536 5
      vertex -9.6194 320.913 0
      vertex -9.6194 320.913 5
    endloop
  endfacet
  facet normal -0.195097 0.980784 0
    outer loop
      vertex -5 324 0
      vertex -6.91342 323.619 5
      vertex -5 324 5
    endloop
  endfacet
  facet normal -0.195097 0.980784 0
    outer loop
      vertex -6.91342 323.619 5
      vertex -5 324 0
      vertex -6.91342 323.619 0
    endloop
  endfacet
  facet normal -0.55557 -0.83147 0
    outer loop
      vertex -8.53553 315.464 0
      vertex -6.91342 314.381 5
      vertex -8.53553 315.464 5
    endloop
  endfacet
  facet normal -0.55557 -0.83147 -0
    outer loop
      vertex -6.91342 314.381 5
      vertex -8.53553 315.464 0
      vertex -6.91342 314.381 0
    endloop
  endfacet
  facet normal -0.831467 -0.555574 0
    outer loop
      vertex -8.53553 315.464 0
      vertex -9.6194 317.087 5
      vertex -9.6194 317.087 0
    endloop
  endfacet
  facet normal -0.831467 -0.555574 0
    outer loop
      vertex -9.6194 317.087 5
      vertex -8.53553 315.464 0
      vertex -8.53553 315.464 5
    endloop
  endfacet
  facet normal -0.980785 -0.19509 0
    outer loop
      vertex -9.6194 317.087 0
      vertex -10 319 5
      vertex -10 319 0
    endloop
  endfacet
  facet normal -0.980785 -0.19509 0
    outer loop
      vertex -10 319 5
      vertex -9.6194 317.087 0
      vertex -9.6194 317.087 5
    endloop
  endfacet
  facet normal -0.195097 -0.980784 0
    outer loop
      vertex -6.91342 314.381 0
      vertex -5 314 5
      vertex -6.91342 314.381 5
    endloop
  endfacet
  facet normal -0.195097 -0.980784 -0
    outer loop
      vertex -5 314 5
      vertex -6.91342 314.381 0
      vertex -5 314 0
    endloop
  endfacet
  facet normal 0.951057 -0.309015 0
    outer loop
      vertex -8 319 5
      vertex -7.42705 320.763 0
      vertex -7.42705 320.763 5
    endloop
  endfacet
  facet normal 0.951057 -0.309015 0
    outer loop
      vertex -7.42705 320.763 0
      vertex -8 319 5
      vertex -8 319 0
    endloop
  endfacet
  facet normal 0 1 -0
    outer loop
      vertex -4.07295 316.147 0
      vertex -5.92705 316.147 5
      vertex -4.07295 316.147 5
    endloop
  endfacet
  facet normal 0 1 0
    outer loop
      vertex -5.92705 316.147 5
      vertex -4.07295 316.147 0
      vertex -5.92705 316.147 0
    endloop
  endfacet
  facet normal 0 -1 0
    outer loop
      vertex -5.92705 321.853 0
      vertex -5 321.853 5
      vertex -5.92705 321.853 5
    endloop
  endfacet
  facet normal 0 -1 -0
    outer loop
      vertex -5 321.853 5
      vertex -5.92705 321.853 0
      vertex -5 321.853 0
    endloop
  endfacet
  facet normal 0.587785 -0.809017 0
    outer loop
      vertex -7.42705 320.763 0
      vertex -5.92705 321.853 5
      vertex -7.42705 320.763 5
    endloop
  endfacet
  facet normal 0.587785 -0.809017 0
    outer loop
      vertex -5.92705 321.853 5
      vertex -7.42705 320.763 0
      vertex -5.92705 321.853 0
    endloop
  endfacet
  facet normal -0.951057 0.309015 0
    outer loop
      vertex -2.57295 317.237 0
      vertex -2 319 5
      vertex -2 319 0
    endloop
  endfacet
  facet normal -0.951057 0.309015 0
    outer loop
      vertex -2 319 5
      vertex -2.57295 317.237 0
      vertex -2.57295 317.237 5
    endloop
  endfacet
  facet normal -0.587785 0.809017 0
    outer loop
      vertex -2.57295 317.237 0
      vertex -4.07295 316.147 5
      vertex -2.57295 317.237 5
    endloop
  endfacet
  facet normal -0.587785 0.809017 0
    outer loop
      vertex -4.07295 316.147 5
      vertex -2.57295 317.237 0
      vertex -4.07295 316.147 0
    endloop
  endfacet
  facet normal 0.587785 0.809017 -0
    outer loop
      vertex -5.92705 316.147 0
      vertex -7.42705 317.237 5
      vertex -5.92705 316.147 5
    endloop
  endfacet
  facet normal 0.587785 0.809017 0
    outer loop
      vertex -7.42705 317.237 5
      vertex -5.92705 316.147 0
      vertex -7.42705 317.237 0
    endloop
  endfacet
  facet normal 0.951057 0.309015 0
    outer loop
      vertex -7.42705 317.237 5
      vertex -8 319 0
      vertex -8 319 5
    endloop
  endfacet
  facet normal 0.951057 0.309015 0
    outer loop
      vertex -8 319 0
      vertex -7.42705 317.237 5
      vertex -7.42705 317.237 0
    endloop
  endfacet
  facet normal 1 -0 0
    outer loop
      vertex -5 321.853 5
      vertex -5 324 0
      vertex -5 324 5
    endloop
  endfacet
  facet normal 1 0 0
    outer loop
      vertex -5 324 0
      vertex -5 321.853 5
      vertex -5 321.853 0
    endloop
  endfacet
  facet normal -1 0 0
    outer loop
      vertex -2 319 0
      vertex -2 324 5
      vertex -2 324 0
    endloop
  endfacet
  facet normal -1 -0 0
    outer loop
      vertex -2 324 5
      vertex -2 319 0
      vertex -2 319 5
    endloop
  endfacet
  facet normal 0 0 1
    outer loop
      vertex 168 324 10
      vertex 163 322 10
      vertex 168 0 10
    endloop
  endfacet
  facet normal 0 0 1
    outer loop
      vertex 168 324 10
      vertex 87 322 10
      vertex 163 322 10
    endloop
  endfacet
  facet normal 0 0 1
    outer loop
      vertex 87 322 10
      vertex 81 322 10
      vertex 87 2 10
    endloop
  endfacet
  facet normal 0 0 1
    outer loop
      vertex 168 324 10
      vertex 81 322 10
      vertex 87 322 10
    endloop
  endfacet
  facet normal -0 0 1
    outer loop
      vertex 0 324 10
      vertex 81 322 10
      vertex 168 324 10
    endloop
  endfacet
  facet normal 0 0 1
    outer loop
      vertex 5 322 10
      vertex 0 324 10
      vertex 5 2 10
    endloop
  endfacet
  facet normal 0 0 1
    outer loop
      vertex 81 322 10
      vertex 0 324 10
      vertex 5 322 10
    endloop
  endfacet
  facet normal -0 0 1
    outer loop
      vertex 163 2 10
      vertex 168 0 10
      vertex 163 322 10
    endloop
  endfacet
  facet normal -0 0 1
    outer loop
      vertex 87 2 10
      vertex 168 0 10
      vertex 163 2 10
    endloop
  endfacet
  facet normal 0 0 1
    outer loop
      vertex 81 2 10
      vertex 87 2 10
      vertex 81 322 10
    endloop
  endfacet
  facet normal -0 0 1
    outer loop
      vertex 81 2 10
      vertex 168 0 10
      vertex 87 2 10
    endloop
  endfacet
  facet normal 0 0 1
    outer loop
      vertex 0 0 10
      vertex 81 2 10
      vertex 5 2 10
    endloop
  endfacet
  facet normal 0 0 1
    outer loop
      vertex 81 2 10
      vertex 0 0 10
      vertex 168 0 10
    endloop
  endfacet
  facet normal 0 0 1
    outer loop
      vertex 0 0 10
      vertex 5 2 10
      vertex 0 324 10
    endloop
  endfacet
  facet normal 1 -0 0
    outer loop
      vertex 168 0 10
      vertex 168 324 0
      vertex 168 324 10
    endloop
  endfacet
  facet normal 1 0 0
    outer loop
      vertex 168 324 0
      vertex 168 0 10
      vertex 168 0 0
    endloop
  endfacet
  facet normal 0 -0.382683 0.92388
    outer loop
      vertex 0 133.591 2.65901
      vertex 5 132 2
      vertex 5 133.591 2.65901
    endloop
  endfacet
  facet normal 0 -0.382683 0.92388
    outer loop
      vertex 5 132 2
      vertex 0 133.591 2.65901
      vertex 0 132 2
    endloop
  endfacet
  facet normal 0 -0.382684 -0.923879
    outer loop
      vertex 0 132 6.5
      vertex 3 133.591 5.84099
      vertex 3 132 6.5
    endloop
  endfacet
  facet normal -0 -0.382684 -0.923879
    outer loop
      vertex 3 133.591 5.84099
      vertex 0 132 6.5
      vertex 0 133.591 5.84099
    endloop
  endfacet
  facet normal 0 -0.923879 0.382684
    outer loop
      vertex 0 133.591 2.65901
      vertex 5 134.25 4.25
      vertex 0 134.25 4.25
    endloop
  endfacet
  facet normal 0 -0.923879 0.382684
    outer loop
      vertex 5 134.25 4.25
      vertex 0 133.591 2.65901
      vertex 5 133.591 2.65901
    endloop
  endfacet
  facet normal -1 3.83727e-07 -1.58946e-07
    outer loop
      vertex 5 132 5
      vertex 5 132 2
      vertex 5 130.757 5
    endloop
  endfacet
  facet normal -1 0 0
    outer loop
      vertex 5 134.25 4.25
      vertex 5 133.243 5
      vertex 5 133.939 5
    endloop
  endfacet
  facet normal -1 -1.80892e-07 -2.42963e-07
    outer loop
      vertex 5 133.243 5
      vertex 5 134.25 4.25
      vertex 5 132 2
    endloop
  endfacet
  facet normal -1 -7.23568e-07 2.99712e-07
    outer loop
      vertex 5 132 2
      vertex 5 134.25 4.25
      vertex 5 133.591 2.65901
    endloop
  endfacet
  facet normal 0 -0.923876 -0.382692
    outer loop
      vertex 0 133.591 5.84099
      vertex 3 133.939 5
      vertex 3 133.591 5.84099
    endloop
  endfacet
  facet normal 2.31334e-06 -0.923879 -0.382685
    outer loop
      vertex 0 134.25 4.25
      vertex 3 133.939 5
      vertex 0 133.591 5.84099
    endloop
  endfacet
  facet normal -0 -0.923882 -0.382677
    outer loop
      vertex 5 134.25 4.25
      vertex 3 133.939 5
      vertex 0 134.25 4.25
    endloop
  endfacet
  facet normal 0 -0.923882 -0.382677
    outer loop
      vertex 3 133.939 5
      vertex 5 134.25 4.25
      vertex 5 133.939 5
    endloop
  endfacet
  facet normal -1 7.23568e-07 2.99712e-07
    outer loop
      vertex 5 132 2
      vertex 5 130.409 2.65901
      vertex 5 129.75 4.25
    endloop
  endfacet
  facet normal -1 -3.83727e-07 -1.58946e-07
    outer loop
      vertex 5 132 2
      vertex 5 132 5
      vertex 5 133.243 5
    endloop
  endfacet
  facet normal 0 0.923879 0.382684
    outer loop
      vertex 5 130.409 2.65901
      vertex 0 129.75 4.25
      vertex 5 129.75 4.25
    endloop
  endfacet
  facet normal 0 0.923879 0.382684
    outer loop
      vertex 0 129.75 4.25
      vertex 5 130.409 2.65901
      vertex 0 130.409 2.65901
    endloop
  endfacet
  facet normal -1 1.80892e-07 -2.42963e-07
    outer loop
      vertex 5 129.75 4.25
      vertex 5 130.757 5
      vertex 5 132 2
    endloop
  endfacet
  facet normal -1 -0 0
    outer loop
      vertex 5 130.757 5
      vertex 5 129.75 4.25
      vertex 5 130.061 5
    endloop
  endfacet
  facet normal -0 0.382683 0.92388
    outer loop
      vertex 0 132 2
      vertex 5 130.409 2.65901
      vertex 5 132 2
    endloop
  endfacet
  facet normal 0 0.382683 0.92388
    outer loop
      vertex 5 130.409 2.65901
      vertex 0 132 2
      vertex 0 130.409 2.65901
    endloop
  endfacet
  facet normal 0 0.382684 -0.923879
    outer loop
      vertex 0 130.409 5.84099
      vertex 3 132 6.5
      vertex 3 130.409 5.84099
    endloop
  endfacet
  facet normal 0 0.382684 -0.923879
    outer loop
      vertex 3 132 6.5
      vertex 0 130.409 5.84099
      vertex 0 132 6.5
    endloop
  endfacet
  facet normal 0 0.923882 -0.382677
    outer loop
      vertex 5 130.061 5
      vertex 5 129.75 4.25
      vertex 3 130.061 5
    endloop
  endfacet
  facet normal 0 0.923876 -0.382692
    outer loop
      vertex 3 130.061 5
      vertex 0 130.409 5.84099
      vertex 3 130.409 5.84099
    endloop
  endfacet
  facet normal 0 0.923882 -0.382677
    outer loop
      vertex 0 129.75 4.25
      vertex 3 130.061 5
      vertex 5 129.75 4.25
    endloop
  endfacet
  facet normal 2.31334e-06 0.923879 -0.382685
    outer loop
      vertex 3 130.061 5
      vertex 0 129.75 4.25
      vertex 0 130.409 5.84099
    endloop
  endfacet
  facet normal 1 0 0
    outer loop
      vertex 3 322 8
      vertex 3 133.939 5
      vertex 3 322 5
    endloop
  endfacet
  facet normal 1 0 0
    outer loop
      vertex 3 322 8
      vertex 3 133.591 5.84099
      vertex 3 133.939 5
    endloop
  endfacet
  facet normal 1 0 0
    outer loop
      vertex 3 322 8
      vertex 3 132 6.5
      vertex 3 133.591 5.84099
    endloop
  endfacet
  facet normal 1 -0 0
    outer loop
      vertex 3 2 8
      vertex 3 132 6.5
      vertex 3 322 8
    endloop
  endfacet
  facet normal 1 0 0
    outer loop
      vertex 3 2 8
      vertex 3 130.409 5.84099
      vertex 3 132 6.5
    endloop
  endfacet
  facet normal 1 0 0
    outer loop
      vertex 3 2 8
      vertex 3 130.061 5
      vertex 3 130.409 5.84099
    endloop
  endfacet
  facet normal 1 0 0
    outer loop
      vertex 3 130.061 5
      vertex 3 2 8
      vertex 3 2 5
    endloop
  endfacet
  facet normal 0 0 -1
    outer loop
      vertex 3 2 8
      vertex 5 322 8
      vertex 5 2 8
    endloop
  endfacet
  facet normal -0 0 -1
    outer loop
      vertex 5 322 8
      vertex 3 2 8
      vertex 3 322 8
    endloop
  endfacet
  facet normal 0 0 -1
    outer loop
      vertex 81 2 8
      vertex 83 322 8
      vertex 83 2 8
    endloop
  endfacet
  facet normal -0 0 -1
    outer loop
      vertex 83 322 8
      vertex 81 2 8
      vertex 81 322 8
    endloop
  endfacet
  facet normal -1 0 0
    outer loop
      vertex 83 2 5
      vertex 83 322 8
      vertex 83 322 5
    endloop
  endfacet
  facet normal -1 -0 0
    outer loop
      vertex 83 322 8
      vertex 83 2 5
      vertex 83 2 8
    endloop
  endfacet
  facet normal 0 -1 0
    outer loop
      vertex 3 322 5
      vertex 5 322 8
      vertex 3 322 8
    endloop
  endfacet
  facet normal 0 -1 -0
    outer loop
      vertex 5 322 8
      vertex 3 322 5
      vertex 81 322 8
    endloop
  endfacet
  facet normal 0 -1 0
    outer loop
      vertex 83 322 5
      vertex 81 322 8
      vertex 3 322 5
    endloop
  endfacet
  facet normal 0 -1 0
    outer loop
      vertex 81 322 8
      vertex 83 322 5
      vertex 83 322 8
    endloop
  endfacet
  facet normal 0 -1 0
    outer loop
      vertex 5 322 8
      vertex 81 322 10
      vertex 5 322 10
    endloop
  endfacet
  facet normal 0 -1 -0
    outer loop
      vertex 81 322 10
      vertex 5 322 8
      vertex 81 322 8
    endloop
  endfacet
  facet normal 0 0 1
    outer loop
      vertex 83 322 5
      vertex 69 295 5
      vertex 83 2 5
    endloop
  endfacet
  facet normal 0 0 1
    outer loop
      vertex 83 322 5
      vertex 62 295 5
      vertex 69 295 5
    endloop
  endfacet
  facet normal 0 0 1
    outer loop
      vertex 62 295 5
      vertex 38 180 5
      vertex 62 29 5
    endloop
  endfacet
  facet normal 0 0 1
    outer loop
      vertex 62 295 5
      vertex 28 180 5
      vertex 38 180 5
    endloop
  endfacet
  facet normal 0 0 1
    outer loop
      vertex 5 133.939 5
      vertex 28 140 5
      vertex 28 180 5
    endloop
  endfacet
  facet normal 0 0 1
    outer loop
      vertex 3 322 5
      vertex 28 180 5
      vertex 62 295 5
    endloop
  endfacet
  facet normal 0 0 1
    outer loop
      vertex 28 140 5
      vertex 5 133.939 5
      vertex 5 133.243 5
    endloop
  endfacet
  facet normal -0 0 1
    outer loop
      vertex 3 322 5
      vertex 62 295 5
      vertex 83 322 5
    endloop
  endfacet
  facet normal 0 0 1
    outer loop
      vertex 28 180 5
      vertex 3 322 5
      vertex 3 133.939 5
    endloop
  endfacet
  facet normal 0 0 1
    outer loop
      vertex 28 180 5
      vertex 3 133.939 5
      vertex 5 133.939 5
    endloop
  endfacet
  facet normal -0 0 1
    outer loop
      vertex 69 29 5
      vertex 83 2 5
      vertex 69 295 5
    endloop
  endfacet
  facet normal -0 0 1
    outer loop
      vertex 62 29 5
      vertex 83 2 5
      vertex 69 29 5
    endloop
  endfacet
  facet normal -0 0 1
    outer loop
      vertex 38 140 5
      vertex 62 29 5
      vertex 38 180 5
    endloop
  endfacet
  facet normal 0 0 1
    outer loop
      vertex 5 130.061 5
      vertex 38 140 5
      vertex 28 140 5
    endloop
  endfacet
  facet normal 0 0 1
    outer loop
      vertex 5 130.757 5
      vertex 28 140 5
      vertex 5 132 5
    endloop
  endfacet
  facet normal 0 0 1
    outer loop
      vertex 5 130.061 5
      vertex 28 140 5
      vertex 5 130.757 5
    endloop
  endfacet
  facet normal 0 0 1
    outer loop
      vertex 38 140 5
      vertex 5 130.061 5
      vertex 62 29 5
    endloop
  endfacet
  facet normal 0 0 1
    outer loop
      vertex 3 2 5
      vertex 5 130.061 5
      vertex 3 130.061 5
    endloop
  endfacet
  facet normal 0 0 1
    outer loop
      vertex 62 29 5
      vertex 3 2 5
      vertex 83 2 5
    endloop
  endfacet
  facet normal 0 0 1
    outer loop
      vertex 5 130.061 5
      vertex 3 2 5
      vertex 62 29 5
    endloop
  endfacet
  facet normal 0 0 1
    outer loop
      vertex 28 140 5
      vertex 5 133.243 5
      vertex 5 132 5
    endloop
  endfacet
  facet normal 0 1 -0
    outer loop
      vertex 83 2 5
      vertex 81 2 8
      vertex 83 2 8
    endloop
  endfacet
  facet normal 0 1 0
    outer loop
      vertex 81 2 8
      vertex 83 2 5
      vertex 5 2 8
    endloop
  endfacet
  facet normal 0 1 0
    outer loop
      vertex 3 2 5
      vertex 5 2 8
      vertex 83 2 5
    endloop
  endfacet
  facet normal 0 1 0
    outer loop
      vertex 5 2 8
      vertex 3 2 5
      vertex 3 2 8
    endloop
  endfacet
  facet normal 0 1 -0
    outer loop
      vertex 81 2 8
      vertex 5 2 10
      vertex 81 2 10
    endloop
  endfacet
  facet normal 0 1 0
    outer loop
      vertex 5 2 10
      vertex 81 2 8
      vertex 5 2 8
    endloop
  endfacet
  facet normal 1 -0 0
    outer loop
      vertex 5 2 10
      vertex 5 322 8
      vertex 5 322 10
    endloop
  endfacet
  facet normal 1 0 0
    outer loop
      vertex 5 322 8
      vertex 5 2 10
      vertex 5 2 8
    endloop
  endfacet
  facet normal -1 0 0
    outer loop
      vertex 81 2 8
      vertex 81 322 10
      vertex 81 322 8
    endloop
  endfacet
  facet normal -1 -0 0
    outer loop
      vertex 81 322 10
      vertex 81 2 8
      vertex 81 2 10
    endloop
  endfacet
  facet normal 1 -0 0
    outer loop
      vertex 62 29 5
      vertex 62 295 0
      vertex 62 295 5
    endloop
  endfacet
  facet normal 1 0 0
    outer loop
      vertex 62 295 0
      vertex 62 29 5
      vertex 62 29 0
    endloop
  endfacet
  facet normal -1 0 0
    outer loop
      vertex 69 29 0
      vertex 69 295 5
      vertex 69 295 0
    endloop
  endfacet
  facet normal -1 -0 0
    outer loop
      vertex 69 295 5
      vertex 69 29 0
      vertex 69 29 5
    endloop
  endfacet
  facet normal 0 1 -0
    outer loop
      vertex 69 29 0
      vertex 62 29 5
      vertex 69 29 5
    endloop
  endfacet
  facet normal 0 1 0
    outer loop
      vertex 62 29 5
      vertex 69 29 0
      vertex 62 29 0
    endloop
  endfacet
  facet normal 0 -1 0
    outer loop
      vertex 62 295 0
      vertex 69 295 5
      vertex 62 295 5
    endloop
  endfacet
  facet normal 0 -1 -0
    outer loop
      vertex 69 295 5
      vertex 62 295 0
      vertex 69 295 0
    endloop
  endfacet
  facet normal 1 -0 0
    outer loop
      vertex 101 29 5
      vertex 101 295 0
      vertex 101 295 5
    endloop
  endfacet
  facet normal 1 0 0
    outer loop
      vertex 101 295 0
      vertex 101 29 5
      vertex 101 29 0
    endloop
  endfacet
  facet normal 0 0 1
    outer loop
      vertex 165 322 5
      vertex 128.5 180 5
      vertex 165 2 5
    endloop
  endfacet
  facet normal -0 0 1
    outer loop
      vertex 108 295 5
      vertex 128.5 180 5
      vertex 165 322 5
    endloop
  endfacet
  facet normal 0 0 1
    outer loop
      vertex 118.5 180 5
      vertex 108 295 5
      vertex 118.5 140 5
    endloop
  endfacet
  facet normal 0 0 1
    outer loop
      vertex 128.5 180 5
      vertex 108 295 5
      vertex 118.5 180 5
    endloop
  endfacet
  facet normal -0 0 1
    outer loop
      vertex 85 322 5
      vertex 108 295 5
      vertex 165 322 5
    endloop
  endfacet
  facet normal 0 0 1
    outer loop
      vertex 101 295 5
      vertex 85 322 5
      vertex 101 29 5
    endloop
  endfacet
  facet normal 0 0 1
    outer loop
      vertex 108 295 5
      vertex 85 322 5
      vertex 101 295 5
    endloop
  endfacet
  facet normal -0 0 1
    outer loop
      vertex 128.5 140 5
      vertex 165 2 5
      vertex 128.5 180 5
    endloop
  endfacet
  facet normal 0 0 1
    outer loop
      vertex 108 29 5
      vertex 128.5 140 5
      vertex 118.5 140 5
    endloop
  endfacet
  facet normal 0 0 1
    outer loop
      vertex 108 29 5
      vertex 118.5 140 5
      vertex 108 295 5
    endloop
  endfacet
  facet normal 0 0 1
    outer loop
      vertex 128.5 140 5
      vertex 108 29 5
      vertex 165 2 5
    endloop
  endfacet
  facet normal 0 0 1
    outer loop
      vertex 85 2 5
      vertex 108 29 5
      vertex 101 29 5
    endloop
  endfacet
  facet normal 0 0 1
    outer loop
      vertex 108 29 5
      vertex 85 2 5
      vertex 165 2 5
    endloop
  endfacet
  facet normal 0 0 1
    outer loop
      vertex 85 2 5
      vertex 101 29 5
      vertex 85 322 5
    endloop
  endfacet
  facet normal -1 0 0
    outer loop
      vertex 108 29 0
      vertex 108 295 5
      vertex 108 295 0
    endloop
  endfacet
  facet normal -1 -0 0
    outer loop
      vertex 108 295 5
      vertex 108 29 0
      vertex 108 29 5
    endloop
  endfacet
  facet normal 0 1 -0
    outer loop
      vertex 108 29 0
      vertex 101 29 5
      vertex 108 29 5
    endloop
  endfacet
  facet normal 0 1 0
    outer loop
      vertex 101 29 5
      vertex 108 29 0
      vertex 101 29 0
    endloop
  endfacet
  facet normal 0 -1 0
    outer loop
      vertex 101 295 0
      vertex 108 295 5
      vertex 101 295 5
    endloop
  endfacet
  facet normal 0 -1 -0
    outer loop
      vertex 108 295 5
      vertex 101 295 0
      vertex 108 295 0
    endloop
  endfacet
  facet normal 1 -0 0
    outer loop
      vertex 85 2 8
      vertex 85 322 5
      vertex 85 322 8
    endloop
  endfacet
  facet normal 1 0 0
    outer loop
      vertex 85 322 5
      vertex 85 2 8
      vertex 85 2 5
    endloop
  endfacet
  facet normal 0 0 -1
    outer loop
      vertex 85 2 8
      vertex 87 322 8
      vertex 87 2 8
    endloop
  endfacet
  facet normal -0 0 -1
    outer loop
      vertex 87 322 8
      vertex 85 2 8
      vertex 85 322 8
    endloop
  endfacet
  facet normal 0 0 -1
    outer loop
      vertex 163 2 8
      vertex 165 322 8
      vertex 165 2 8
    endloop
  endfacet
  facet normal -0 0 -1
    outer loop
      vertex 165 322 8
      vertex 163 2 8
      vertex 163 322 8
    endloop
  endfacet
  facet normal -1 0 0
    outer loop
      vertex 165 2 5
      vertex 165 322 8
      vertex 165 322 5
    endloop
  endfacet
  facet normal -1 -0 0
    outer loop
      vertex 165 322 8
      vertex 165 2 5
      vertex 165 2 8
    endloop
  endfacet
  facet normal 0 1 -0
    outer loop
      vertex 165 2 5
      vertex 163 2 8
      vertex 165 2 8
    endloop
  endfacet
  facet normal 0 1 0
    outer loop
      vertex 163 2 8
      vertex 165 2 5
      vertex 87 2 8
    endloop
  endfacet
  facet normal 0 1 0
    outer loop
      vertex 85 2 5
      vertex 87 2 8
      vertex 165 2 5
    endloop
  endfacet
  facet normal 0 1 0
    outer loop
      vertex 87 2 8
      vertex 85 2 5
      vertex 85 2 8
    endloop
  endfacet
  facet normal 0 1 -0
    outer loop
      vertex 163 2 8
      vertex 87 2 10
      vertex 163 2 10
    endloop
  endfacet
  facet normal 0 1 0
    outer loop
      vertex 87 2 10
      vertex 163 2 8
      vertex 87 2 8
    endloop
  endfacet
  facet normal 0 -1 0
    outer loop
      vertex 85 322 5
      vertex 87 322 8
      vertex 85 322 8
    endloop
  endfacet
  facet normal 0 -1 -0
    outer loop
      vertex 87 322 8
      vertex 85 322 5
      vertex 163 322 8
    endloop
  endfacet
  facet normal 0 -1 0
    outer loop
      vertex 165 322 5
      vertex 163 322 8
      vertex 85 322 5
    endloop
  endfacet
  facet normal 0 -1 0
    outer loop
      vertex 163 322 8
      vertex 165 322 5
      vertex 165 322 8
    endloop
  endfacet
  facet normal 0 -1 0
    outer loop
      vertex 87 322 8
      vertex 163 322 10
      vertex 87 322 10
    endloop
  endfacet
  facet normal 0 -1 -0
    outer loop
      vertex 163 322 10
      vertex 87 322 8
      vertex 163 322 8
    endloop
  endfacet
  facet normal 1 -0 0
    outer loop
      vertex 87 2 10
      vertex 87 322 8
      vertex 87 322 10
    endloop
  endfacet
  facet normal 1 0 0
    outer loop
      vertex 87 322 8
      vertex 87 2 10
      vertex 87 2 8
    endloop
  endfacet
  facet normal -1 0 0
    outer loop
      vertex 163 2 8
      vertex 163 322 10
      vertex 163 322 8
    endloop
  endfacet
  facet normal -1 -0 0
    outer loop
      vertex 163 322 10
      vertex 163 2 8
      vertex 163 2 10
    endloop
  endfacet
  facet normal 1 -0 0
    outer loop
      vertex 28 140 5
      vertex 28 180 2
      vertex 28 180 5
    endloop
  endfacet
  facet normal 1 0 0
    outer loop
      vertex 28 180 2
      vertex 28 140 5
      vertex 28 140 2
    endloop
  endfacet
  facet normal -1 0 0
    outer loop
      vertex 38 140 2
      vertex 38 180 5
      vertex 38 180 2
    endloop
  endfacet
  facet normal -1 -0 0
    outer loop
      vertex 38 180 5
      vertex 38 140 2
      vertex 38 140 5
    endloop
  endfacet
  facet normal 0 -1 0
    outer loop
      vertex 28 180 2
      vertex 38 180 5
      vertex 28 180 5
    endloop
  endfacet
  facet normal 0 -1 -0
    outer loop
      vertex 38 180 5
      vertex 28 180 2
      vertex 38 180 2
    endloop
  endfacet
  facet normal -0 0 1
    outer loop
      vertex 28 180 2
      vertex 38 140 2
      vertex 38 180 2
    endloop
  endfacet
  facet normal 0 0 1
    outer loop
      vertex 38 140 2
      vertex 28 180 2
      vertex 28 140 2
    endloop
  endfacet
  facet normal 0 1 -0
    outer loop
      vertex 38 140 2
      vertex 28 140 5
      vertex 38 140 5
    endloop
  endfacet
  facet normal 0 1 0
    outer loop
      vertex 28 140 5
      vertex 38 140 2
      vertex 28 140 2
    endloop
  endfacet
  facet normal 1 -0 0
    outer loop
      vertex 118.5 140 5
      vertex 118.5 180 2
      vertex 118.5 180 5
    endloop
  endfacet
  facet normal 1 0 0
    outer loop
      vertex 118.5 180 2
      vertex 118.5 140 5
      vertex 118.5 140 2
    endloop
  endfacet
  facet normal -1 0 0
    outer loop
      vertex 128.5 140 2
      vertex 128.5 180 5
      vertex 128.5 180 2
    endloop
  endfacet
  facet normal -1 -0 0
    outer loop
      vertex 128.5 180 5
      vertex 128.5 140 2
      vertex 128.5 140 5
    endloop
  endfacet
  facet normal -0 0 1
    outer loop
      vertex 118.5 180 2
      vertex 128.5 140 2
      vertex 128.5 180 2
    endloop
  endfacet
  facet normal 0 0 1
    outer loop
      vertex 128.5 140 2
      vertex 118.5 180 2
      vertex 118.5 140 2
    endloop
  endfacet
  facet normal 0 1 -0
    outer loop
      vertex 128.5 140 2
      vertex 118.5 140 5
      vertex 128.5 140 5
    endloop
  endfacet
  facet normal 0 1 0
    outer loop
      vertex 118.5 140 5
      vertex 128.5 140 2
      vertex 118.5 140 2
    endloop
  endfacet
  facet normal 0 -1 0
    outer loop
      vertex 118.5 180 2
      vertex 128.5 180 5
      vertex 118.5 180 5
    endloop
  endfacet
  facet normal 0 -1 -0
    outer loop
      vertex 128.5 180 5
      vertex 118.5 180 2
      vertex 128.5 180 2
    endloop
  endfacet
  facet normal -1 0 0
    outer loop
      vertex -17 177 0
      vertex -17 174 2
      vertex -17 177 6
    endloop
  endfacet
  facet normal -1 0 0
    outer loop
      vertex -17 177 0
      vertex -17 165 2
      vertex -17 174 2
    endloop
  endfacet
  facet normal -1 0 0
    outer loop
      vertex -17 162 6
      vertex -17 165 2
      vertex -17 162 0
    endloop
  endfacet
  facet normal -1 0 0
    outer loop
      vertex -17 162 0
      vertex -17 165 2
      vertex -17 177 0
    endloop
  endfacet
  facet normal -1 0 0
    outer loop
      vertex -17 174 5
      vertex -17 177 6
      vertex -17 174 2
    endloop
  endfacet
  facet normal -1 0 0
    outer loop
      vertex -17 165 5
      vertex -17 177 6
      vertex -17 174 5
    endloop
  endfacet
  facet normal -1 0 0
    outer loop
      vertex -17 165 5
      vertex -17 162 6
      vertex -17 177 6
    endloop
  endfacet
  facet normal -1 0 0
    outer loop
      vertex -17 165 2
      vertex -17 162 6
      vertex -17 165 5
    endloop
  endfacet
  facet normal 0 0 1
    outer loop
      vertex 0 177 6
      vertex -14 174 6
      vertex 0 174 6
    endloop
  endfacet
  facet normal 0 0 1
    outer loop
      vertex -14 174 6
      vertex -17 177 6
      vertex -14 165 6
    endloop
  endfacet
  facet normal -0 0 1
    outer loop
      vertex -17 177 6
      vertex -14 174 6
      vertex 0 177 6
    endloop
  endfacet
  facet normal -0 0 1
    outer loop
      vertex -14 165 6
      vertex 0 162 6
      vertex 0 165 6
    endloop
  endfacet
  facet normal 0 0 1
    outer loop
      vertex -14 165 6
      vertex -17 162 6
      vertex 0 162 6
    endloop
  endfacet
  facet normal 0 0 1
    outer loop
      vertex -17 162 6
      vertex -14 165 6
      vertex -17 177 6
    endloop
  endfacet
  facet normal 0 -1 0
    outer loop
      vertex -17 162 0
      vertex 0 162 6
      vertex -17 162 6
    endloop
  endfacet
  facet normal 0 -1 -0
    outer loop
      vertex 0 162 6
      vertex -17 162 0
      vertex 0 162 0
    endloop
  endfacet
  facet normal 0 1 -0
    outer loop
      vertex 0 177 0
      vertex -17 177 6
      vertex 0 177 6
    endloop
  endfacet
  facet normal 0 1 0
    outer loop
      vertex -17 177 6
      vertex 0 177 0
      vertex -17 177 0
    endloop
  endfacet
  facet normal 1 -0 0
    outer loop
      vertex -14 165 2
      vertex -14 174 0
      vertex -14 174 2
    endloop
  endfacet
  facet normal 1 0 0
    outer loop
      vertex -14 174 0
      vertex -14 165 2
      vertex -14 165 0
    endloop
  endfacet
  facet normal 1 -0 0
    outer loop
      vertex -14 165 6
      vertex -14 174 5
      vertex -14 174 6
    endloop
  endfacet
  facet normal 1 0 0
    outer loop
      vertex -14 174 5
      vertex -14 165 6
      vertex -14 165 5
    endloop
  endfacet
  facet normal -0 0 1
    outer loop
      vertex -8 174 3
      vertex 0 165 3
      vertex 0 174 3
    endloop
  endfacet
  facet normal 0 0 1
    outer loop
      vertex 0 165 3
      vertex -8 174 3
      vertex -8 165 3
    endloop
  endfacet
  facet normal -1 0 0
    outer loop
      vertex -8 165 0
      vertex -8 174 3
      vertex -8 174 0
    endloop
  endfacet
  facet normal -1 -0 0
    outer loop
      vertex -8 174 3
      vertex -8 165 0
      vertex -8 165 3
    endloop
  endfacet
  facet normal 0 1 -0
    outer loop
      vertex -8 165 0
      vertex -14 165 2
      vertex -8 165 3
    endloop
  endfacet
  facet normal 0 1 0
    outer loop
      vertex -14 165 2
      vertex -8 165 0
      vertex -14 165 0
    endloop
  endfacet
  facet normal 0 1 -0
    outer loop
      vertex -8 165 3
      vertex -14 165 6
      vertex 0 165 6
    endloop
  endfacet
  facet normal 0 1 0
    outer loop
      vertex -8 165 3
      vertex 0 165 6
      vertex 0 165 3
    endloop
  endfacet
  facet normal 0 1 0
    outer loop
      vertex -14 165 6
      vertex -8 165 3
      vertex -14 165 5
    endloop
  endfacet
  facet normal 0 1 0
    outer loop
      vertex -14 165 2
      vertex -14 165 5
      vertex -8 165 3
    endloop
  endfacet
  facet normal 0 1 0
    outer loop
      vertex -14 165 5
      vertex -14 165 2
      vertex -17 165 5
    endloop
  endfacet
  facet normal 0 1 0
    outer loop
      vertex -17 165 5
      vertex -14 165 2
      vertex -17 165 2
    endloop
  endfacet
  facet normal 0 -1 0
    outer loop
      vertex -14 174 2
      vertex -14 174 5
      vertex -17 174 5
    endloop
  endfacet
  facet normal 0 -1 0
    outer loop
      vertex -14 174 2
      vertex -17 174 5
      vertex -17 174 2
    endloop
  endfacet
  facet normal 0 -1 0
    outer loop
      vertex -14 174 5
      vertex -14 174 2
      vertex -8 174 3
    endloop
  endfacet
  facet normal 0 -1 0
    outer loop
      vertex -8 174 0
      vertex -14 174 2
      vertex -14 174 0
    endloop
  endfacet
  facet normal 0 -1 0
    outer loop
      vertex -14 174 2
      vertex -8 174 0
      vertex -8 174 3
    endloop
  endfacet
  facet normal 0 -1 0
    outer loop
      vertex -8 174 3
      vertex -14 174 6
      vertex -14 174 5
    endloop
  endfacet
  facet normal 0 -1 0
    outer loop
      vertex -14 174 6
      vertex -8 174 3
      vertex 0 174 6
    endloop
  endfacet
  facet normal 0 -1 -0
    outer loop
      vertex 0 174 6
      vertex -8 174 3
      vertex 0 174 3
    endloop
  endfacet
  facet normal 0 0 -1
    outer loop
      vertex -17 165 5
      vertex -14 174 5
      vertex -14 165 5
    endloop
  endfacet
  facet normal -0 0 -1
    outer loop
      vertex -14 174 5
      vertex -17 165 5
      vertex -17 174 5
    endloop
  endfacet
  facet normal -0 0 1
    outer loop
      vertex -17 174 2
      vertex -14 165 2
      vertex -14 174 2
    endloop
  endfacet
  facet normal 0 0 1
    outer loop
      vertex -14 165 2
      vertex -17 174 2
      vertex -17 165 2
    endloop
  endfacet
endsolid OpenSCAD_Model
